<svg xmlns="http://www.w3.org/2000/svg" width="960" height="960" fill="none" viewBox="0 0 960 960"><g clip-path="url(#a)"><mask id="b" width="960" height="960" x="0" y="0" maskUnits="userSpaceOnUse" style="mask-type:luminance"><path fill="#fff" d="M960 0H0v960h960V0Z"/></mask><g mask="url(#b)"><path fill="#171717" fill-rule="evenodd" d="M639.99 840.39c-6.1 7.6-16.7 11-26.5 13.3-16.9 3.9-35.7 6.4-51.2-.4 0 10.43-.09 20.87-.19 31.3h.39l1.419.023c30.624.492 61.154.983 91.781 1.377 10 .2 20.11.3 29.71-2.4 9.6-2.7 18.7-8.7 22.9-17.7l1.36-.83a21.606 21.606 0 0 0-4.33-6.78 29.494 29.494 0 0 0-2.37-2.24 32.001 32.001 0 0 0-10.86-5.85c-6.89-2.13-14.12-2.52-21.35-2.81a728 728 0 0 1-4.76-.19c-8.7-.5-17.8-1.6-25.3-6.2l-.7-.6Zm13.866 15.154a54.435 54.435 0 0 1 13.601-.76h.001a55.879 55.879 0 0 1 24.98 7.872 1.477 1.477 0 1 0 1.524-2.532 58.834 58.834 0 0 0-26.3-8.289 57.43 57.43 0 0 0-14.339.801 1.478 1.478 0 0 0 .533 2.908Z" clip-rule="evenodd"/><path fill="#fff" fill-rule="evenodd" d="M420.107 555.462c-4.943 19.874-9.93 39.924-18.738 58.508-8.9 18.7-22.1 36.11-40.1 46.41-28.9 16.6-65.2 12.8-97.1 3l-1.417-.441c-8.277-2.58-16.88-5.262-25.393-3.559a27.3 27.3 0 0 0-12.4 6.1c-.01.01-.03.02-.04.03l.09.11.05.06c-7.5 6.2-12.9 15.8-17.3 24.8-5.4 11.13-10.59 22.54-11.22 34.34a38.955 38.955 0 0 0 .01 4.71c.05.81.11 1.63.21 2.45.136 1.414.37 2.818.7 4.2.88 3.98 2.09 6.75 3.81 8.71.287.326.598.63.93.91 3.963 3.422 10.236 3.679 20.358 4.093 3.721.153 7.963.327 12.802.687 115.11 8.6 194.22-14.7 225.92-75.9 8.7-16.7 12.9-35.21 16.5-53.81a1.687 1.687 0 0 1 .08.2c4.3 10.24 8.29 20.04 11.99 29.58.68 1.75 1.35 3.48 2.01 5.21.66 1.73 1.31 3.44 1.95 5.16.317.843.635 1.696.952 2.549l.008.021c.95 2.56 1.88 5.11 2.79 7.65 1.52 4.23 2.99 8.44 4.41 12.63 1.42 4.19 2.78 8.36 4.1 12.55a.035.035 0 0 1 .01.02c9.27 29.33 16.33 59.01 22.4 94.95 2.14 12.37 4.78 25.54 10.01 36.84a67.15 67.15 0 0 0 1.75 3.5 47.942 47.942 0 0 0 16.05 18.06 37.699 37.699 0 0 0 5.9 3.2c.03.01.07.03.1.04 15.48 6.75 34.24 4.25 51.1.36 9.8-2.3 20.5-5.7 26.5-13.3a23.473 23.473 0 0 0 2.4-3.7c5.3-10.3 1.2-22.8-3-33.7-17.95-46.889-35.741-93.238-53.539-139.608-16.38-42.674-32.767-85.366-49.291-128.512h-.08c-7.97-.35-15.444-.724-22.918-1.099-7.493-.375-14.987-.751-22.982-1.101h-.2l-2.8 28.2-49.39 2.1-.01.1-16.03-8.3-1.17-.6-.08-.04-.52.94-.172.692Zm112.034-3.667a1.478 1.478 0 1 0-2.723 1.15 3896.431 3896.431 0 0 1 103.57 273.616 1.478 1.478 0 0 0 2.802-.942 3899.494 3899.494 0 0 0-103.649-273.824Z" clip-rule="evenodd"/><path fill="#171717" d="M269.069 508.16c3.8 7.61 8.3 15.71 2.4 23.41-5.7 7.5-16.71 11.5-24.91 15.1a205.078 205.078 0 0 1-33.1 11.3c-2.9.7-33.9 6.9-34.1 5.4a438.517 438.517 0 0 0-11.5-51.71c9.4-5.1 20.1-7.4 30.6-9.5 10.5-2.1 21.2-4.2 30.7-9.2 9.5-4.9 17.8-13.2 20.2-23.7 6.5 13 13.1 26.1 19.71 38.9ZM710.4 867.39c1.9 7.9-1.7 16.5-7.8 21.9-6.1 5.4-14.2 8-22.3 8.8-8.1.8-16.21 0-24.31-.6-3.46-.26-6.924-.487-10.39-.68a.483.483 0 0 1-.12-.01 564.97 564.97 0 0 0-69.59.39c-3.58.16-7.74.19-10.55-1.72-.18-.13-.35-.26-.52-.39-.17-.13-.33-.29-.48-.45a5.215 5.215 0 0 1-.45-.49c-.14-.17-.27-.36-.4-.55-1.4-2.1-1.4-4.8-1.4-7.3.01-.57.01-1.13.01-1.7h.39c31.1.5 62.1 1 93.2 1.4 10 .2 20.1.3 29.71-2.4 9.61-2.7 18.7-8.7 22.9-17.7l1.36-.83c.297.76.545 1.538.74 2.33Z"/><path fill="#171717" d="M565.34 895.47c2.81 1.91 6.97 1.88 10.55 1.72-3.59.24-7.75.22-10.55-1.72Zm-.52-.39c.17.13.34.26.52.39a6.524 6.524 0 0 1-.52-.39Zm-.931-.94Z"/><path fill="#fff" d="M544 173.6c.15-.18.3-.37.45-.56-.14.19-.29.38-.45.56Zm-.93 1.13.85-1.03c-.27.34-.56.69-.85 1.03Zm-.961 1.12c.29-.34.58-.68.88-1.02-.28.34-.58.68-.88 1.02Zm-.97 1.11c.29-.34.59-.67.89-1.01-.29.34-.59.67-.89 1.01Z"/><path fill="#171717" d="M538.269 514.47c-.59 6.61-1.18 13.33-1.87 19.94-.01-.01-.01-.03-.02-.04-16-.7-30-1.5-46-2.2h-.08l1.88-18.98.6.08a46.91 46.91 0 0 1 8.38-.01l.004.003a.013.013 0 0 0 .006.001l.005-.001.005-.003c2.89.24 5.77.66 8.66 1.12.49.08.97.16 1.46.23 1.44.24 2.88.47 4.33.69 1.45.22 2.9.41 4.35.57 6.1.7 12.59.6 18.29-1.4Z"/><path fill="#171717" d="M519.979 515.87c6.2.6 12.7.5 18.3-1.5 0 .03-.011.07-.011.1-5.7 2-12.189 2.1-18.289 1.4Z"/><path fill="#fff" d="M536.459 534.57h-.08c.01-.05.01-.11.02-.16.02.05.04.11.06.16Zm-9.059-363.2c-.43.57-.84 1.13-1.22 1.67l.15-.24c.34-.47.69-.95 1.07-1.43Z"/><path fill="#171717" d="M511.299 514.61c1.44.23 2.89.47 4.33.69-1.45-.22-2.89-.45-4.33-.69Z"/><path fill="#fff" d="M512.479 187.54c7.746.516 15.526.181 23.2-1a107.461 107.461 0 0 0 19.51-5.1 17.135 17.135 0 0 0 5.58-3.35 17.041 17.041 0 0 1-5.68 3.45 109.62 109.62 0 0 1-19.51 5.1c-.66.1-1.33.2-2 .29a99.033 99.033 0 0 1-21.2.71c-9.93-.64-21.63-2.13-28.66 4.24 7.02-6.49 18.78-4.99 28.76-4.34Zm-3.26-19.04c2.74-1.83 5.31-4.1 7.89-5.81-2.56 1.74-5.13 4.01-7.89 5.81Z"/><path fill="#171717" d="m508.68 310.35-.07.1h-30.88l-.05-.1h31Z"/><path fill="#171717" d="m508.61 310.45-14.3 19.71-.43-.31c-2.3-.2-4.7-.5-7-.7l-9.15-18.7h30.88Z"/><path fill="#fff" d="M528.48 791.39c2.14 12.37 4.78 25.54 10.01 36.84-5.3-11.35-7.96-24.59-10.11-37.04-6.01-35.82-13.04-65.44-22.3-94.75 9.27 29.33 16.33 59.01 22.4 94.95Z"/><path fill="#171717" d="m505.079 384.96-13 128.21v.01l-.1-.01-1.88 19h-.02l-2.8 28.2-49.17 2.09 15.57-186.1h-.01l.01-.08 51.4 8.68Zm-27.8 167.61 13.9-125.61-29.6-2.8-14.3 129.01h.11l-.01.1 29.9-.7Zm12.8-152.21a11.1 11.1 0 0 0-3.07-8.174 11.109 11.109 0 0 0-18.431 3.773 11.12 11.12 0 0 0-.699 4.401c.001.786.078 1.569.23 2.34a11.44 11.44 0 0 0 8.11 8.99c.174.054.351.097.53.13.363.08.731.14 1.1.18.752.08 1.509.08 2.26 0 .37-.04.737-.1 1.1-.18.18-.04.36-.08.53-.13a11.436 11.436 0 0 0 8.11-8.99c.153-.771.23-1.554.23-2.34Zm15.001-15.4-51.4-8.68v-.02l51.4 8.7Z"/><path fill="#fff" d="M501.969 683.87c1.42 4.19 2.78 8.36 4.1 12.55a673.855 673.855 0 0 0-4.1-12.55Z"/><path fill="#171717" d="M501.18 513.26c2.89.23 5.78.66 8.66 1.12-2.89-.46-5.77-.88-8.66-1.12Zm-8.401.01a45.994 45.994 0 0 1 8.38-.01 46.91 46.91 0 0 0-8.38.01Z"/><path fill="#fff" d="M491.859 655.86Z"/><path fill="#171717" d="m492.179 513.19-1.88 18.98h-.1l1.88-18.99.1.01Zm.001-.02v.02l-.1-.01v-.01l13-128.21-12.9 128.21Z"/><path fill="#171717" d="m492.08 513.18-1.88 18.99h-.1l1.88-19 .1.01Zm44.299 21.39c-15.96-.7-29.93-1.5-45.9-2.2h-.2l.02-.2h.08c16 .7 30 1.5 46 2.2.01.01.01.03.02.04-.01.05-.01.11-.02.16Z"/><path fill="#171717" d="m490.3 532.17-.02.2h-.1l.02-.2h.1Zm-2.82 28.4-49.39 2.1 49.19-2.1 2.9-28.2h.1l-2.8 28.2Z"/><path fill="#171717" d="m490.2 532.17-.02.2h-.1l.02-.2h.1Z"/><path fill="#171717" d="m487.28 560.57-49.19 2.1.02-.21 49.17-2.09 2.8-28.2h.02l-.02.2h.1l-2.9 28.2Z"/><path fill="#171717" d="m477.279 552.57-29.9.7.01-.1 29.89-.6Z"/><path fill="#fff" d="M472.48 177.24c-.2.21-.39.42-.57.64.15-.18.31-.36.47-.54a.944.944 0 0 1 .1-.1Zm-.571.64c-.18.21-.36.43-.53.66.17-.23.34-.45.53-.66Z"/><path fill="#171717" d="M468.109 402.7a11.572 11.572 0 0 0 8.11 8.99 11.431 11.431 0 0 1-8.11-8.99Z"/><path fill="#fff" d="M468.99 182.87c-.08.2-.16.4-.22.6.07-.2.14-.4.22-.6Zm-.77 2.36c-.08.27-.14.54-.21.82.07-.28.14-.55.21-.82Zm-.531 58.82c.15.03.29.06.44.08a3.47 3.47 0 0 1-.44-.08Zm-1.64-.65c.506.307 1.06.527 1.64.65a4.856 4.856 0 0 1-1.64-.65Z"/><path fill="#fff" d="M527.88 170.76c5.36-6.78 13.73-14.64 19.71-11.52 3.82 1.64 2.49 5.82-.74 10.58a55.78 55.78 0 0 1-2.4 3.22c-.15.19-.3.38-.45.56-.03.04-.06.07-.08.1l-.85 1.03a.387.387 0 0 0-.08.1c-.3.34-.59.68-.88 1.02a.78.78 0 0 0-.08.1c-.3.34-.6.67-.89 1.01-.65.74-1.31 1.47-1.96 2.18a1.049 1.049 0 0 0-.1.1c4.28-3.13 8.54-4.46 11.7-7.07.17-.13.34-.28.51-.43 3.2-2.9 9.1-4.5 11.4-.8 1.33 2.2.54 4.48-1.18 6.41a8.472 8.472 0 0 1-.74.74 17.124 17.124 0 0 1-5.58 3.35 107.38 107.38 0 0 1-19.51 5.1 106.138 106.138 0 0 1-23.2 1c-9.98-.65-21.74-2.15-28.76 4.34a9.981 9.981 0 0 0-.8.78c-.331.344-.645.704-.94 1.08-3.8 4.8-4.1 11.3-4.3 17.4-.3 8.8-.6 17.7-.9 26.51a4.85 4.85 0 0 1-.05.67 4.984 4.984 0 0 1-.13.65c-.03.1-.06.21-.1.31-.08.21-.17.42-.26.62a8.49 8.49 0 0 1-6.17 4.21c-.12.02-.23.03-.35.05-.529.05-1.063.04-1.59-.03-.15-.02-.29-.05-.44-.08a5.278 5.278 0 0 1-1.64-.65c-.12-.08-.25-.16-.37-.25-3.7-2.8-2.5-9.51 1.6-11.31-3.4 1.3-6.8 4.11-10.1 2.4-9.3-4.1 8.9-19.9 9.5-30.7.28-5.12.09-10.64.97-15.69.1-.61.22-1.21.36-1.8.07-.28.13-.55.21-.82.16-.59.34-1.18.55-1.76.06-.2.14-.4.22-.6.1-.26.2-.51.31-.77.22-.5.46-.99.73-1.47.11-.21.23-.41.35-.61.1-.17.2-.34.31-.5.22-.34.45-.66.69-.98.17-.23.35-.45.53-.66.18-.21.37-.43.57-.64.255-.278.526-.542.81-.79 6.78-6.12 17.52-5.19 26.79-4.81 2.78.021 5.502-.786 7.82-2.32.45-.25.89-.53 1.32-.82 2.76-1.8 5.33-4.07 7.89-5.81.41-.28.81-.54 1.22-.79a10.597 10.597 0 0 1 6.25-1.76c6.4 0 4.1 9 1.5 13 .08-.11.16-.23.25-.34l-.15.24c.38-.54.79-1.1 1.22-1.67.16-.2.31-.41.48-.61Z"/><path fill="#171717" d="m453.68 376.36-15.57 186.1h-.01l15.57-186.1h.01Z"/><path fill="#171717" d="m453.67 376.36-15.57 186.1-.1.01 15.57-186.1.1-.01Zm-10.49 22.5-37.6-8.9c.01-.02.02-.05.03-.07l37.57 8.97Zm-5.07 163.6-.02.21h-.01l.02-.21h.01Z"/><path fill="#171717" d="m438.1 562.46-.02.21h-.1l.02-.2.1-.01Z"/><path fill="#171717" d="M438.079 562.67h.01l-.01.1-16.03-8.3 15.93 8.2h.1Z"/><path fill="#171717" d="M437.879 562.47h.12l-.02.2-15.93-8.2-1.17-.6-.08-.04v-.01l.08-.15 17 8.8Z"/><path fill="#171717" d="m409.58 380.56.6.4 43.39-4.59L438 562.47h-.12l-17-8.8-.08.15-22.23-11.55-.2-.1-.57-.3-7.73-4-.5-.1v-1.1c-.02-.14-.04-.27-.07-.41a12.126 12.126 0 0 0-3.13-5.39c-3.76-4.55-7.67-8.86-11.81-13.02-.59-.6-1.19-1.19-1.79-1.78l-2.7-.2 1.8-.6a17.706 17.706 0 0 0 5.58-3.91.946.946 0 0 0 .1-.11c.18-.19.36-.39.53-.59l.19.1 40.51 29.31 24.4-141.21-37.57-8.97c.29-.58.58-1.15.87-1.73a2.218 2.218 0 0 0 .49-1.64c.01-.29.01-.6.02-.89a1.812 1.812 0 0 1 .49-1.37c.7-1.2 1.4-2.5 2.1-3.7Z"/><path fill="#171717" d="M378.079 510.66c-.17.2-.35.4-.53.59.18-.19.35-.39.52-.59h.01Zm-3.52 7.19c4.14 4.16 8.05 8.47 11.81 13.02-3.76-4.46-7.68-8.85-11.81-13.02Zm-41.989-7.49a12.482 12.482 0 0 0 2.2 2.81l-.7.2a17.457 17.457 0 0 0-.5 2.2l-.12-.02-.48-.08-10.4-7.01.01-.03 2.39-13.17v-.3a35.79 35.79 0 0 1 5.66.2v.02a.429.429 0 0 0-.06.25v.03a28.023 28.023 0 0 0-.56 4.15 22.314 22.314 0 0 0-.01 2.44 17.412 17.412 0 0 0 2.57 8.31Z"/><path fill="#171717" d="M330.669 495.16a.054.054 0 0 0-.022.005.065.065 0 0 0-.018.015v-.02h.04Zm-.099.3v.1a27.902 27.902 0 0 0-.56 4.05 27.89 27.89 0 0 1 .56-4.15Zm74.31-161.01c55.77 14.87 76.48.21 81.06-4.03-4.37 4.12-24.96 19.12-81.16 4.13-5.61-1.5-11.11-2.9-16.61-4.3-51.43-12.95-98.38-19.29-127.26 16.33 28.46-35.31 74.56-29.56 125.21-16.97.71.18 1.43.36 2.15.54 5.5 1.4 11 2.8 16.61 4.3Zm-135.91 64.41-28.31 7 .01-.03 28.2-6.97s31.16-46.51 94.65-49.37c-63.42 2.91-94.55 49.37-94.55 49.37Zm-65.51 256.42a14.316 14.316 0 0 1 7.44.54c-7.48 4.29-13.96 10.08-20.34 15.76-10.1 8.9-20.1 17.8-30.2 26.7-3.7 3.3-7.4 6.5-10.4 10.4a28.056 28.056 0 0 0-5.9 13.3 26.052 26.052 0 0 0 3.6 15.1c2.6 4.6 6.2 8.4 10 12.1l.17.58a8.273 8.273 0 0 1-4.67.22 8.961 8.961 0 0 1-4.02-2.87c-.19-.21-.37-.44-.55-.67-.43-.55-.83-1.11-1.23-1.66-2.9-4.1-5.9-8.1-8.8-12.2-.29-.4-.58-.8-.87-1.21-.31-.44-.61-.9-.91-1.36-.14-.21-.27-.43-.4-.64a23.539 23.539 0 0 1-1.04-1.85 11.133 11.133 0 0 1-1.28-7.44c.7-3.2 3.2-5.6 5.5-7.9l51.3-48.9c3.7-3.5 7.6-7.1 12.6-8Zm4.299 35.1c4.39-8.98 9.78-18.56 17.25-24.76l.05.06c-7.5 6.2-12.9 15.8-17.3 24.8-5.4 11.13-10.59 22.54-11.22 34.34.6-11.83 5.8-23.28 11.22-34.44Z"/><path fill="#fff" d="M196.759 731.98c.136 1.415.369 2.818.7 4.2.88 3.98 2.09 6.75 3.81 8.71-1.78-1.96-3.02-4.76-3.91-8.81-.28-1.33-.48-2.66-.67-3.99l.07-.01c-.1-.85-.17-1.7-.21-2.55.05.81.11 1.63.21 2.45Z"/><path fill="#171717" d="M196.549 729.53c.04.85.11 1.7.21 2.55l-.07.01-.03-.21c-1.6-14.4 4.6-28.2 11-41.6 4.39-8.98 9.78-18.57 17.26-24.77l.09.11c-7.47 6.2-12.86 15.78-17.25 24.76-5.42 11.16-10.62 22.61-11.22 34.44a39.16 39.16 0 0 0 .01 4.71Z"/><path fill="#171717" d="M195.959 732.18c-11.4 5.4-22.9 10.8-34.3 16.2-2.6 1.3-5.6 2.5-8.4 1.7a8.363 8.363 0 0 1-4.12-2.97 8.967 8.967 0 0 0 4.02 2.87c1.546.377 3.167.3 4.67-.22l-.17-.58c-3.8-3.7-7.4-7.5-10-12.1a26.06 26.06 0 0 1-3.6-15.1 28.056 28.056 0 0 1 5.9-13.3c3-3.9 6.7-7.1 10.4-10.4 10.1-8.9 20.1-17.8 30.2-26.7 6.38-5.68 12.86-11.47 20.34-15.76.49.16.98.34 1.47.54a23.78 23.78 0 0 1 2.89 1.46c.18.11.37.22.56.34a49.018 49.018 0 0 1 6.38 4.8c.21.18.41.36.61.54.59.53 1.18 1.05 1.75 1.58l.36.43c-7.48 6.2-12.87 15.79-17.26 24.77-6.4 13.4-12.6 27.2-11 41.6l.03.21-.73.09Zm-59.58-2.81c.13.21.26.43.4.64-.14-.21-.28-.42-.4-.64Zm-.389-.65c.13.22.26.43.39.65-.14-.21-.27-.43-.39-.65Z"/><path stroke="#fff" stroke-linecap="round" stroke-linejoin="round" stroke-width="2.956" d="M510.08 286.65c-3-5.4-1.2-11.2 2.3-16.2s8.5-8.8 12.5-13.4c7.9-9.2 11.7-21.4 12.7-33.51s-.5-24.2-1.9-36.3m-68.401 44.6c-4.1 1.8-5.3 8.51-1.6 11.31.12.09.25.17.37.25.506.307 1.06.527 1.64.65.15.03.29.06.44.08.527.07 1.06.08 1.59.03.12-.01.24-.03.35-.05a8.365 8.365 0 0 0 6.17-4.21c.101-.2.188-.408.26-.62.04-.1.07-.21.1-.31.057-.214.101-.431.13-.65a5.01 5.01 0 0 0 .05-.67v-.5m-8.4-5.61c-.4.1-.7.2-1.1.3"/><path stroke="#fff" stroke-linecap="round" stroke-linejoin="round" stroke-width="2.956" d="M475.28 287.15v-.2c.5-16.4 1-32.9 1.6-49.3.3-8.91.6-17.71.9-26.61.2-6.1.6-12.7 4.3-17.4.27-.34.55-.67.84-.98.252-.275.519-.536.8-.78 7.02-6.49 18.78-4.99 28.76-4.34a106.14 106.14 0 0 0 23.2-1 107.461 107.461 0 0 0 19.51-5.1 17.135 17.135 0 0 0 5.58-3.35 8.91 8.91 0 0 0 .74-.74c1.79-1.95 2.63-4.27 1.28-6.51-2.3-3.7-8.2-2.1-11.4.8-.2.18-.4.36-.61.53-3.14 2.54-7.28 3.88-11.6 6.97.65-.71 1.31-1.44 1.96-2.18.29-.34.59-.67.89-1.01a.702.702 0 0 1 .08-.1c.29-.34.58-.68.88-1.02a.387.387 0 0 1 .08-.1l.85-1.03c.02-.03.05-.06.08-.1.15-.18.3-.37.45-.56a55.78 55.78 0 0 0 2.4-3.22c3.28-4.77 4.68-8.97.84-10.68-6.02-3.14-14.52 4.82-19.81 11.62-.17.2-.32.41-.48.61-.43.57-.84 1.13-1.22 1.67l.15-.24c2.53-4.11 4.53-12.76-1.65-12.76a10.594 10.594 0 0 0-6.35 1.86c-.41.25-.81.51-1.22.79-2.56 1.74-5.13 4.01-7.89 5.81-.43.29-.87.57-1.32.82a14.154 14.154 0 0 1-7.72 2.22c-9.32-.38-20.11-1.32-26.89 4.91a9.9 9.9 0 0 0-.81.79c-.2.21-.39.42-.57.64-.18.22-.36.43-.53.66-.24.32-.47.64-.69.98-.11.16-.21.33-.31.5-.12.2-.24.4-.35.61-.27.48-.51.97-.73 1.47-.11.26-.21.51-.31.77-.08.2-.16.4-.22.6-.21.58-.39 1.17-.55 1.76-.08.27-.14.54-.21.82-.14.59-.26 1.19-.36 1.8-.86 4.99-.65 10.46-.87 15.59-.6 10.8-18.8 26.6-9.5 30.7 3.3 1.71 6.7-1.1 10.1-2.4"/><path stroke="#fff" stroke-linecap="round" stroke-linejoin="round" stroke-width="2.956" d="M457.579 303.35c-.7-3.1-1.2-4.4-.8-7.6.4-3.2 2-6.4 5-7.8a15.307 15.307 0 0 1 6.4-.9h7.2c11.57 0 23.13.1 34.7.1h3.5c5.1 0 10.4.1 14.9 2.6 4.36 2.48 7.54 8 5.55 12.58a.574.574 0 0 1-.05.12"/><path stroke="#fff" stroke-linecap="round" stroke-linejoin="round" stroke-width="2.956" d="M457.08 303.85h.6c25.4.9 51.1 1.7 76.2-1.5.05-.01.1-.01.15-.02 6.45-.8 12.81-1.89 19.16-3.28a194.567 194.567 0 0 0 104.5-62.1c7.2-8.31 14.6-17.81 25.31-20.31a26.18 26.18 0 0 1 2.71-.48c.06-.01.13-.01.19-.02a24.381 24.381 0 0 1 8.72.75c.06.02.12.03.18.05a29.918 29.918 0 0 1 16.4 12l.06.09a35.92 35.92 0 0 1 1.94 3.31c5.4 11.01 4.1 24.41-.9 35.61-5.1 11.2-13.6 20.4-22.7 28.6-40.11 36-92.91 54.8-146.01 64.7-.1.02-.2.03-.3.05-2.2.38-4.41.77-6.51 1.15m148.819-147.21c1.4-2.8.7-6.2-.7-9s-3.4-5.3-4.7-8.1c-1.3-2.8-1.91-6.3-.41-9 1.81-3.2 5.61-4.3 9.31-4.9.46-.109.928-.176 1.4-.2 4.2-.6 8.6-1.2 12.7-.3.02 0 .04.01.06.01a13.07 13.07 0 0 1 2.54.79 9.822 9.822 0 0 1 5.2 4.2 6.564 6.564 0 0 1 .1 6.5c-1.5 2.4-4.7 3.2-7.6 3.3-1.4 0-2.9 0-4.3.1a11.396 11.396 0 0 0-4.1.7"/><path stroke="#fff" stroke-linecap="round" stroke-linejoin="round" stroke-width="2.956" d="M710.8 229.04h.3c.05 0 .11-.01.16-.01 14.64-1.04 28.69 5.64 41.84 12.22 19.5 9.7 39.1 19.5 58.6 29.2 14.01-49.21 27.98-98.38 41.91-147.51a5.876 5.876 0 0 0 .2-3.7 6.27 6.27 0 0 0-2.6-2.5c-15.4-9.4-31-18.9-47.61-26.11-16.61-7.21-34.6-11.9-52.7-11.4-6.1.2-12.7 1.1-17.3 5.1-4.6 4-6.4 10.3-8 16.21l-15.3 57c-.01.05-.03.11-.04.16-2.29 8.55-4.57 16.99-6.86 25.44m-4.2 15.5a90.021 90.021 0 0 0-4.58 18.25c-.01.05-.01.1-.02.15 0 .2-.1.4-.1.6m-5.401-33.9a25.948 25.948 0 0 1 5.1-16.8 25.636 25.636 0 0 1 14.7-9.6m-165.61 203.81v.2a1141.798 1141.798 0 0 1 10.8 116.81c.5 11.3.1 24.2-8.2 31.8a22.585 22.585 0 0 1-7.61 4.51h-.01c-5.7 2-12.19 2.1-18.29 1.4-1.45-.16-2.9-.36-4.35-.57-1.45-.21-2.89-.45-4.33-.69-.49-.07-.97-.15-1.46-.23-2.89-.46-5.77-.88-8.66-1.12l-.004.003-.006.001-.005-.001-.005-.003a46.91 46.91 0 0 0-8.38.01m45.601 1.2c-.6 6.7-1.3 13.4-1.9 20.1h-.1c-15.96-.7-29.93-1.5-45.9-2.2m45.999 2.2c34.51 90.1 68.41 178.21 102.91 268.32 4.2 10.9 8.3 23.4 3 33.7a23.448 23.448 0 0 1-2.4 3.7c-6 7.6-16.7 11-26.5 13.3-16.9 3.9-35.7 6.4-51.2-.4a37.699 37.699 0 0 1-5.9-3.2c-7.08-4.58-12.25-10.93-16.15-18.26a67.15 67.15 0 0 1-1.75-3.5c-5.23-11.3-7.87-24.47-10.01-36.84-6.07-35.94-13.13-65.62-22.4-94.95a.03.03 0 0 0-.01-.02c-1.32-4.19-2.68-8.36-4.1-12.55-1.42-4.19-2.89-8.4-4.41-12.63a719.327 719.327 0 0 0-3.75-10.22c-.64-1.72-1.29-3.43-1.95-5.16-.66-1.73-1.33-3.46-2.01-5.21-3.7-9.54-7.69-19.34-11.99-29.58a1.635 1.635 0 0 0-.08-.2c-1.1-2.7-2.3-5.4-3.5-8.2"/><path stroke="#fff" stroke-linecap="round" stroke-linejoin="round" stroke-width="2.956" d="M420.379 554.87c-5 20.2-10 40.5-18.91 59.2-8.9 18.8-22.1 36.1-40.1 46.41-28.9 16.6-65.3 12.8-97.1 3-8.71-2.7-17.91-5.8-26.81-4a28.348 28.348 0 0 0-12.4 6.1c-.02.01-.03.03-.05.04-7.47 6.2-12.86 15.78-17.25 24.76-5.42 11.16-10.62 22.61-11.22 34.44a38.955 38.955 0 0 0 .01 4.71c.05.81.11 1.63.21 2.45.136 1.414.37 2.818.7 4.2.88 3.98 2.09 6.75 3.81 8.71.287.326.598.63.93.91 5.39 4.79 15.15 3.54 33.26 4.88 115.11 8.5 194.22-14.8 225.92-75.9 8.68-16.67 12.88-35.14 16.48-53.71.01-.03.01-.07.02-.1 1.4-7.4 2.8-14.9 4.3-22.2M370.07 350.15a109.84 109.84 0 0 0-12.3 23.51c-.8 2-1.5 4-2.2 6-1.9 5.4-3.6 10.8-5.3 16.3-7.8 33.3-13.7 64.7-19.6 99a.199.199 0 0 1-.02.11.309.309 0 0 1-.02.09v.02a.895.895 0 0 0-.06.25v.03a27.76 27.76 0 0 0-.56 4.15 21.825 21.825 0 0 0-.01 2.44 17.409 17.409 0 0 0 2.57 8.21 12.665 12.665 0 0 0 2.2 2.81c4.5 4.2 11.7 4.3 17.5 5.1 6.2.9 12.4-.6 17.9-2.4l1.8-.6a17.732 17.732 0 0 0 5.48-3.81c.036-.034.069-.071.1-.11.18-.19.36-.39.53-.59.03-.03.06-.07.09-.1.382-.458.736-.939 1.06-1.44a.242.242 0 0 0 .04-.06c3-4.4 4.2-10 5.5-15.6 5.49-33.76 5-67.43 18.17-98.1.01-.03.03-.07.04-.1a55.27 55.27 0 0 1 2.54-5.39c.02-.04.04-.07.06-.11l.9-1.8c.344-.398.52-.915.49-1.44.01-.29.01-.6.02-.89a2.014 2.014 0 0 1 .076-.838c.085-.27.226-.52.414-.732.7-1.2 1.4-2.5 2.1-3.7a112.44 112.44 0 0 1 22-25.21m25.999-51.1a103.7 103.7 0 0 0-55.81 15.6 106.976 106.976 0 0 0-13.4 9.8m137.91-129.31a79.968 79.968 0 0 0-13.8-.9 5.24 5.24 0 0 0-2.8.6c-1.3 1-1.3 2.9-1.2 4.5.7 8.2 1.4 16.5 2.1 24.7a8.031 8.031 0 0 1-.4 4.1 5.351 5.351 0 0 1-4.4 2.81c-1.821.103-3.646-.1-5.4-.6"/><path stroke="#fff" stroke-linecap="round" stroke-linejoin="round" stroke-width="2.956" d="M516.58 210.64c.043-.078.093-.151.15-.22.05-.08.11-.16.16-.23s.09-.11.13-.17"/><path stroke="#fff" stroke-linecap="round" stroke-linejoin="round" stroke-width="2.956" d="M517.019 210.02c-.04.05-.09.11-.13.17m.131-.17c.078-.1.165-.194.26-.28"/><path stroke="#fff" stroke-linecap="round" stroke-linejoin="round" stroke-width="2.956" d="M524.979 210.84a4.608 4.608 0 0 0-4.1-2.7 5.072 5.072 0 0 0-3.6 1.6m-20.299 0a4.918 4.918 0 0 0-4.1-3.7 4.862 4.862 0 0 0-4.8 2.5m7.799 40.31a5.806 5.806 0 0 1-7.86-2.698 5.818 5.818 0 0 1-.54-3.002m-262.92 421.93c-.57-.53-1.16-1.05-1.75-1.58-.2-.18-.41-.36-.61-.54a48.95 48.95 0 0 0-6.38-4.8c-.19-.12-.38-.23-.56-.34a23.78 23.78 0 0 0-2.89-1.46c-.48-.21-.96-.39-1.44-.56a14.92 14.92 0 0 0-7.57-.62c-5 .9-8.9 4.6-12.6 8l-51.3 48.9c-2.4 2.2-4.8 4.7-5.5 7.9a11.11 11.11 0 0 0 1.38 7.54c.2.4.42.8.65 1.2.13.22.26.43.39.65.13.22.26.43.4.64.3.46.6.92.91 1.36.26.38.51.75.77 1.11 2.9 4.1 5.9 8.1 8.8 12.2.43.59.87 1.19 1.33 1.76.18.23.36.46.55.67a8.967 8.967 0 0 0 4.02 2.87 8.273 8.273 0 0 0 4.67-.22 31.35 31.35 0 0 0 3.73-1.48c11.4-5.4 22.9-10.8 34.3-16.2M562.29 852.49v.8c-.1 11-.2 22-.2 33 0 2.5 0 5.2 1.4 7.3.13.19.26.38.4.55.139.173.29.336.45.49.15.16.32.31.48.45.16.14.34.26.52.39 2.81 1.91 6.97 1.88 10.55 1.72a585.401 585.401 0 0 1 69.59-.39c.039.008.08.012.12.01 3.47.19 6.933.417 10.39.68 8.1.6 16.2 1.4 24.31.6 8.11-.8 16.2-3.4 22.3-8.8 6.1-5.4 9.7-14 7.8-21.9a18.603 18.603 0 0 0-.74-2.33 21.606 21.606 0 0 0-4.33-6.78 26.397 26.397 0 0 0-2.37-2.24 32.67 32.67 0 0 0-10.86-5.95c-6.87-2.21-14.09-2.54-21.3-2.82-1.61-.05-3.21-.11-4.81-.18-8.8-.4-17.9-1.5-25.3-6.2M389.969 537.77l7.83 4.1.57.3.05.03.15.07 22.23 11.56.08.04 1.17.6 15.93 8.2m0 0 .02-.2 15.57-186.1.01-.11.1.02 51.4 8.68-13 128.21v.01l-1.88 18.99-.02.2-2.9 28.2-49.19 2.1h-.11Zm15.601-186.41-43.5 4.6m-5 8.9.4.1.04.01.09.02 37.57 8.97-24.4 141.21-40.51-29.31"/><path stroke="#fff" stroke-linecap="round" stroke-linejoin="round" stroke-width="2.956" d="m403.18 395.46 30.6 4.8-16.7 127.31-37.81-18.41-.04-.04-.06-.06m-25.2-129.9c-5.9-3.3-13.7 0-17.7 5.4s-5.3 12.3-6.4 19c-4.7 28.4-9.5 56.7-14.2 85.1-.5 2.8-.9 5.7-1.4 8.5a35.299 35.299 0 0 1 10.6-2.3 36.301 36.301 0 0 1 5.7.2"/><path stroke="#fff" stroke-linecap="round" stroke-linejoin="round" stroke-width="2.956" d="M314.769 488.46c-2 0-3.9 0-5.8-.1 4.4-36.8 9.666-73.533 15.8-110.2a44.175 44.175 0 0 1 33-4.5h.2m14.801 142.41c.6.59 1.2 1.18 1.79 1.78 4.14 4.16 8.05 8.47 11.81 13.02 1.31 1.59 2.71 3.36 3.13 5.39.03.14.05.27.07.41v1.1a7.749 7.749 0 0 1-6.4 6.5c-3.6.6-6.8-1.7-8.5-4.9-1.7-3.2-1.9-5.6-2.4-8.9m-20.801 15.7h-.4c-7.1.1-13.6-5.1-16.4-11.6-2.59-5.98-2.5-12.64-1.22-19.02.01-.03.01-.05.02-.08.2-.7.3-1.5.5-2.2m11.101 17.7a33.2 33.2 0 0 0 5.9 12.8c.43.58.87 1.15 1.33 1.69a30.288 30.288 0 0 0 4.27 4.21c5.3 4.2 13 5.5 19.1 2.4"/><path stroke="#fff" stroke-linecap="round" stroke-linejoin="round" stroke-width="2.956" d="M359.17 531.57c0 8.7 7.8 17 16.3 19.8.07 0 .15.06.27.08a.518.518 0 0 0 .13.02 18.888 18.888 0 0 0 22.1-8.4m-73.101-47.91-2.4 13.2.11.07 10.29 6.94m114.52 37.8-.01.1 29.9-.7 13.9-125.61-29.6-2.7-14.19 128.91ZM468.11 402.7a12.016 12.016 0 0 1-.23-2.34 11.098 11.098 0 0 1 3.071-8.174 11.105 11.105 0 0 1 12.395-2.538 11.12 11.12 0 0 1 6.036 6.311c.527 1.404.765 2.902.698 4.401 0 .786-.077 1.569-.23 2.34a11.564 11.564 0 0 1-8.11 8.99c-.17.05-.35.09-.53.13-.363.08-.73.14-1.1.18-.751.08-1.509.08-2.26 0-.37-.04-.737-.1-1.1-.18a4.603 4.603 0 0 1-.53-.13 11.433 11.433 0 0 1-8.11-8.99Zm276.089-298.16a249.237 249.237 0 0 1 86.41 22.8m-91.91 2.7a233.307 233.307 0 0 1 81.71 23m-89.11 4a131.315 131.315 0 0 1 71.5 19.1m-553.44 293.12c-2.4 10.5-10.7 18.8-20.2 23.7-9.5 5-20.2 7.1-30.7 9.2-10.5 2.1-21.2 4.4-30.6 9.5a438.517 438.517 0 0 1 11.5 51.71c.2 1.5 31.2-4.7 34.1-5.4a205.078 205.078 0 0 0 33.1-11.3c8.2-3.6 19.21-7.6 24.91-15.1 5.9-7.7 1.4-15.8-2.4-23.41-6.61-12.8-13.21-25.9-19.71-38.9Zm-63-16c-9.8-2-19.8-4-28.9-8.4-9-4.3-17.2-11.3-21-20.6 5.6-9.2 11.2-18.5 16.8-27.7-1.8 3 18.4 14 20.7 14.9 8.5 3.4 16.7 3.6 25.6 3.8-1.4 12.4-9 26.2-13.2 38Zm-95.709 48.3a97.489 97.489 0 0 0-25.6 34.71c-1.4 3.3-2.7 6.9-2.2 10.4.8 5.4 5.4 9.4 10.1 12.4 3.3 2.1 6.3 3.6 8.9 5.9a2.317 2.317 0 0 0 1.997.49 2.325 2.325 0 0 0 1.603-1.29c1.9-4.5 6.4-11.1 7.2-12.9a88.435 88.435 0 0 1 11.199-17.1c8.3-9.8 10.7-8.8 4.8-15.4-5.5-6.1-12.1-11.51-18-17.21Zm340.929-146.61c46.4 2.5 60.8-6.4 62.3-24.1l14.8-20.4h-31.1l9.3 19s-.11.14-.34.39c-.15.15-.35.35-.6.58-4.37 4.12-24.96 19.12-81.16 4.13-5.61-1.5-11.11-2.9-16.61-4.3-51.43-12.95-98.38-19.29-127.26 16.33-.61.75-1.22 1.53-1.82 2.33a92.775 92.775 0 0 0-8.33 13.44l-10.2 43.51.11-.03 28.2-6.97s31.16-46.51 94.65-49.37c2.15-.1 4.333-.147 6.55-.14 2.25 0 4.543.057 6.88.17 3.89.2 7.896.577 12.02 1.13 16.51 2.3 30.61 3.6 42.61 4.3ZM335.63 212.97a40.41 40.41 0 0 1-20.66 22.18c-11.6 5.1-24.9 4-37.6 2.6-12.7-1.4-25.81-3-37.71 1.4-11.9 4.3-22.1 16.7-19.3 29.1m115.269-55.28c-.952.07-1.909.06-2.86-.03-6.2-.6-12.2-6-12.1-12.3.1-6.3 8.1-11.5 13.3-7.9 4.3 2.9 4.5 9.1 3.5 14.1a38.532 38.532 0 0 1-1.84 6.13Z"/><path stroke="#fff" stroke-linecap="round" stroke-linejoin="round" stroke-width="2.956" d="M345.069 157.44c4.6-1.6 10 .5 13.2 4.2 3.2 3.7 4.5 8.7 4.8 13.6a39.09 39.09 0 0 1-13.1 31.2c-4.06 3.47-9.13 6.15-14.34 6.53M730.09 420.59a29.597 29.597 0 0 0 3.71-3.43c12.5-13.8 11.8-37.6-1.5-50.71m-2.211 54.14c-.85-5.92-3.53-11.89-8.49-15.13-5.2-3.4-13.3-2.7-16.7 2.6-4 6.4 1.5 15.6 8.8 17.2 5.69 1.25 11.63-.97 16.39-4.67Z"/><path stroke="#fff" stroke-linecap="round" stroke-linejoin="round" stroke-width="2.956" d="M630.99 489.56c.5-13.4 10.6-25.9 23.6-29.2 14.7-3.8 30.31 3.4 45.31 1 18.2-2.9 32.4-21.6 30.3-39.9-.03-.29-.07-.58-.11-.87m-153.5-309.15.15-10.48.15-10.43"/><path stroke="#fff" stroke-linecap="round" stroke-linejoin="round" stroke-width="2.956" d="M567.09 102.54c3.22-.54 6.43-1.06 9.65-1.58 3.28-.53 6.57-1.06 9.85-1.62m-60.811 31.6c-1.32-2.12-2.643-4.24-3.97-6.36-1-1.58-2.01-3.16-3.03-4.74"/><path stroke="#fff" stroke-linecap="round" stroke-linejoin="round" stroke-width="2.956" d="M516.479 129.44c1.78-1.62 3.55-3.24 5.33-4.86 1.62-1.48 3.25-2.96 4.87-4.44m65.911 39c.84-1.82 1.67-3.64 2.51-5.46.86-1.88 1.73-3.76 2.59-5.64"/><path stroke="#fff" stroke-linecap="round" stroke-linejoin="round" stroke-width="2.956" d="M600.089 157.24c-1.65-1.18-3.32-2.37-4.99-3.56-1.58-1.13-3.16-2.27-4.71-3.44M191.46 551.97l-7.2-31.5m16.499 29.7c-1.1-4.6-2.1-9.3-3.2-13.9m23.101 10.1c-2-9-4-17.9-6-26.9m-52-80.61a19.396 19.396 0 0 1 5.1-9.3m-15.401 5.5a84.37 84.37 0 0 1 10.4-19.4m-65.01 113.11a33.213 33.213 0 0 0-9.7-9.7m4.2 16.7c-1.1-1.4-2.2-2.8-3.2-4.2m378.131 8.4c2.3-32.61 6.2-65.21 11.7-97.41m-73.8 62.6c4.7-29.7 9.5-59.4 14.2-89.1m-22.21 57.1c3.1-19.5 6.11-39 9.21-58.4M680.1 277.85c1.2-4.6 2.4-9.3 3.7-13.9m-28.511 3.6c-3-1-6-2.1-8.9-3.1l.5.5m-18.899 49.6c1.7-4 3.3-8.1 5-12.1m-29.201.9a19.2 19.2 0 0 0-8.4-2.3m-16.299 38.5 4.2-9.3m-32.501-6.3c-3-1.4-6.1-2.7-9.1-4.1m-34.41 36a26.579 26.579 0 0 1 6.3-9.9m18.6 53.71c-2.6-1.6-5.2-3.1-7.8-4.7m-14.199 39.3c1.7-2.7 3.3-5.3 5-8m26.41 41.8c-2.31-2.5-4.61-4.9-7.01-7.4m-29.701 38c2-2.5 3.9-5 5.9-7.5M459.98 369.65a18.614 18.614 0 0 1-5-5.8m-14.101-37.3c1.7-2.5 3.4-5 5.1-7.4m-50.509 58.01c-.8-2.9-1.6-5.91-2.3-8.81m-36.1 38.01c2.5-2.2 4.9-4.3 7.4-6.5m16.6 45.5a34.257 34.257 0 0 1-6.3-10.1m-30.2 55.1a58.837 58.837 0 0 1 8.1-10.5m20.7-2.6-4.2-5.1M734.5 63.23l-.6-28.2m-23.801 30.1c-12.3-15.6-24.5-31.1-36.81-46.7m29.411 71.6c-9-2.5-18.1-5-27.11-7.4M807 287.35c10 2.7 21.61-4.3 23.81-14.5m-214.921 94.5a133.605 133.605 0 0 0 67.11-39M343.67 768.18a93.52 93.52 0 0 0 62.81-18.1m-30.31 31.2c5.2-2.4 10.5-4.8 15.7-7.2m-206.811-38.9a30.819 30.819 0 0 1-6.3-21.9m-7.2 27.1a15.547 15.547 0 0 1-7.3-14.6m506.63 121.31-.09.18a.353.353 0 0 1-.05.11 52.758 52.758 0 0 1-3.19 5.93 55.598 55.598 0 0 1-11.87 13.68m-3.099-20.9a57.452 57.452 0 0 1-21.1 17.1m-69 21.4c31.1.5 62.1 1 93.2 1.4 10 .2 20.1.3 29.71-2.4 9.61-2.7 18.7-8.7 22.9-17.7"/><path stroke="#fff" stroke-linecap="round" stroke-linejoin="round" stroke-width="2.956" d="M210.959 655.78c-.01.01-.02.01-.03.02-.01.01-.02.01-.03.02-7.48 4.29-13.96 10.08-20.34 15.76-10.1 8.9-20.1 17.8-30.2 26.7-3.7 3.3-7.4 6.5-10.4 10.4a28.056 28.056 0 0 0-5.9 13.3 26.06 26.06 0 0 0 3.6 15.1c2.6 4.6 6.2 8.4 10 12.1m329.22-420.03c2.3.2 4.7.5 7 .7"/><path fill="#171717" fill-rule="evenodd" d="M431.58 354.85c46.4 2.5 60.8-6.4 62.3-24.1l.43-.59-.43-.31c-1.15-.1-2.325-.225-3.5-.35-1.175-.125-2.35-.25-3.5-.35l.1.2s-.14.18-.44.49c-.15.15-.35.35-.6.58-4.37 4.12-24.96 19.12-81.16 4.13-5.609-1.5-11.109-2.9-16.608-4.3h-.002c-51.43-12.95-98.38-19.29-127.26 16.33-.61.75-1.22 1.53-1.82 2.33a93.462 93.462 0 0 0-8.23 13.34l-10.19 43.58 28.2-6.97s31.16-46.51 94.65-49.37c2.147-.103 4.33-.15 6.55-.14 2.247.003 4.54.06 6.88.17 3.92.183 7.96.56 12.12 1.13 16.51 2.2 30.61 3.6 42.51 4.2Zm-138.795-20.556a162.314 162.314 0 0 1 95.729 8.126 1.477 1.477 0 1 0 1.11-2.74 165.275 165.275 0 0 0-97.472-8.274 1.478 1.478 0 0 0 .633 2.888Z" clip-rule="evenodd"/><path fill="#fff" d="M503.907 186.1a20.143 20.143 0 0 0-15.754 2.475c-5.69 3.625-8.816 8.295-10.8 14.709-2.281 7.388-2.518 15.391-3.053 23.058-.587 8.407-.937 16.827-.987 25.254-.045 7.787.483 15.576.422 23.356-.023 2.869-.135 5.3-2.781 6.733-2.472 1.341-5.439 1.691-7.934 3.077a14.94 14.94 0 0 0-5.86 5.812c-1.76 3.213-1.489 6.692-2.563 10.059-1.638 5.137-11.625 3.688-16.06 4.366a100.148 100.148 0 0 0-44.722 19.158c-6.013 4.5-.131 14.764 5.962 10.2 14.756-11.054 31.141-15.994 49.175-18.5 7.077-.982 14.523-3.237 17.352-10.5 1.131-2.9.454-7.8 3.114-9.653 2.7-1.876 6.585-2.069 9.442-3.9 7.529-4.815 7.71-13.766 7.447-21.75-.32-9.719-.319-19.436-.067-29.156a424.308 424.308 0 0 1 1.864-30.266c.8-8.157 3.542-21.82 14.578-20.111 2.851.442 4.136-3.593 1.222-4.429l.003.008ZM374.842 345.935c-14.368 6.036-19.036 26.117-22.292 39.666-4.534 18.866-8.668 37.837-12.616 56.833-3.917 18.844-7.84 37.784-9.289 57.012a74.259 74.259 0 0 0 2.406 25.5c2 7.45 2.549 13.962 7.873 20.025 3.55 4.043 9.432-1.877 5.9-5.9-4.949-5.636-5.907-14.25-4.345-21.38 1.655-7.555 1.706-15.29 2.469-23.03 1.737-17.62 5.586-34.994 9.229-52.295 3.57-16.953 7.212-33.894 11.077-50.783a148.055 148.055 0 0 1 5.9-20.759c1.318-3.388 2.985-6.555 4.558-9.824 1.529-3.18 3.664-5.99 4.893-9.294 1.164-3.128-2.544-7.12-5.766-5.767l.003-.004Zm160.172 17.175c7.692-.907 15.445-1.531 23.011-3.234a238.287 238.287 0 0 0 23.45-6.865 417.3 417.3 0 0 0 43.694-17.722c14.376-6.726 28.554-14.014 42.231-22.075 12.764-7.523 25.355-16.239 34.981-27.637a81.315 81.315 0 0 0 13.055-20.919c2.96-7.029 5.308-15.953 2.376-23.313-1.3-3.261-6.2-4.785-8.139-1.064-3.871 7.439-5.083 15.921-9.048 23.4a74.194 74.194 0 0 1-14.986 19.262c-13.419 12.615-30.212 21.163-46.346 29.734a455.668 455.668 0 0 1-51.162 23.662c-8.748 3.336-17.625 6.338-26.627 8.913-9.282 2.654-18.433 5.752-27.836 7.91-5.442 1.249-4.4 10.621 1.346 9.944v.004Z" opacity=".1"/></g></g><defs><clipPath id="a"><path fill="#fff" d="M0 0h960v960H0z"/></clipPath></defs></svg>