<svg width="960" height="960" viewBox="0 0 960 960" fill="none" xmlns="http://www.w3.org/2000/svg">
<path d="M845.831 243.6C846.256 242.067 846.501 240.49 846.562 238.9C845.914 231.946 839.403 226.552 832.491 225.476C827.529 225.19 822.563 225.981 817.935 227.794C813.387 229.608 809.177 232.173 805.478 235.382C794.51 244.694 786.357 258.918 780.052 271.017C775.071 271.248 770.11 271.819 765.206 272.728L765.151 272.438C763.619 247.177 765.041 233.864 790.385 222.703C815.798 211.003 839.665 187.012 861.146 219.103C883.73 244.309 852.62 253.29 832.257 269.639L830.357 266.617C829.957 265.445 829.569 264.286 829.169 263.117C836.477 257.538 843.568 251.9 845.831 243.6Z" fill="white"/>
<path d="M569.371 807.966C546.263 824.507 516.794 833.42 489.712 822.466C464.106 812.685 449.786 784.058 457.939 757.9C465.845 724.155 496.914 697.142 531.928 696.59C543.71 696.038 557.3 699.666 563.828 709.931C584.881 678.724 618.792 645.392 659.353 654.897C687.111 662.665 712.027 685.98 715.863 715.008L716.318 714.939C736.612 690.092 775.818 685.511 801.289 705.019C805.966 708.468 810.408 713.049 811.195 718.802V719.009C840.87 718.25 853.218 757.955 842.112 782.568C825.888 829.668 773.559 853.149 733.95 817.183C718.87 847.548 692.188 872.933 657.463 876.272C615.575 883.679 565.784 853.866 569.371 807.966Z" fill="white"/>
<path d="M830.354 266.615L832.254 269.637C826.707 274.079 821.975 279.087 819.327 285.102L819.271 285.144C817.083 282.525 814.538 280.227 811.711 278.315L813.146 278.204C816.926 272.258 823.121 267.704 829.163 263.111C829.567 264.284 829.954 265.443 830.354 266.615Z" fill="white"/>
<path d="M590.41 409.158C641.966 371.922 639.11 273.941 630.35 218.08C628.142 206.795 625.55 194.089 632.05 184.597C634.847 181.35 638.242 178.67 642.05 176.705C647.153 174.122 652.683 172.486 658.371 171.877C671.091 170.332 684.942 172.746 695.786 176.623C696.007 176.705 696.228 176.788 696.448 176.885C698.956 177.832 701.379 178.99 703.691 180.348C722.206 191.26 730.291 213.1 729.391 234.581C741.091 340.343 675.544 433.743 609.691 510.616C675.181 464.081 729.414 373.922 743.114 296.916C746.853 287.134 753.268 277.891 762.65 273.228C763.505 273.048 764.36 272.897 765.202 272.728C770.105 271.819 775.065 271.247 780.047 271.017C793.622 270.424 804.011 273.117 811.709 278.317C814.536 280.229 817.081 282.527 819.269 285.146C853.498 326.328 800.92 445.127 770.389 482.087C722.378 543.587 658.589 603.977 581.712 624.519C575.021 626.313 568.224 627.794 561.321 628.962C562.687 625.296 563.654 621.494 564.205 617.621C570.565 572.466 523.492 548.047 530.776 500.146C530.5 482.546 544.835 472.623 556.851 462.083C566.668 452.148 572.374 438.874 572.827 424.915C572.961 422.827 572.906 420.73 572.662 418.652C578.979 416.302 584.949 413.108 590.41 409.158Z" fill="#171717"/>
<path d="M687.08 117.948C684.828 119.465 682.845 121.349 681.216 123.522C679.975 125.191 678.761 126.902 677.602 128.64C668.695 141.669 662.165 156.172 658.315 171.478L658.37 171.878C652.682 172.486 647.152 174.122 642.049 176.706L641.787 175.685C632.187 141.774 652.948 120.514 677.905 101.379C694.116 81.7607 718.052 86.8927 736.857 99.6267C775.21 126.327 710.078 152.604 704.008 179.797L703.69 180.349C701.378 178.991 698.955 177.832 696.447 176.886L696.53 176.693C696.558 166.014 703.13 157.24 709.154 148.3C712.202 144.068 714.779 139.515 716.838 134.724C717.418 133.258 717.898 131.755 718.273 130.224C721.322 109.657 699.952 109.022 687.08 117.948Z" fill="white"/>
<path d="M511.207 676.061C494.486 676.889 476.854 675.992 460.807 675.137C463.307 658.967 474.479 646.703 484.633 634.631C510.653 608.115 488.027 577.749 477.693 550.046C463.566 520.37 515.371 498.434 496.029 470.539L495.987 470.483C510.846 457.464 524.496 443.126 536.769 427.646L537.348 428.101C553.007 455.528 521.814 480.292 512.694 504.353C495.78 551.853 538.994 581.446 537.294 618.738C533.983 639.377 509.067 653.159 511.164 675.275L511.207 676.061Z" fill="white"/>
<path d="M511.165 675.274C509.065 653.158 533.984 639.374 537.295 618.737C538.995 581.445 495.782 551.852 512.695 504.352C521.815 480.291 553.008 455.527 537.349 428.1L536.77 427.645C548.849 412.446 559.795 396.381 569.522 379.579C575.993 370.86 581.304 372.253 585.057 377.799L584.957 377.868C563.766 367.342 571.157 401.736 572.665 418.65C572.909 420.729 572.964 422.825 572.83 424.913C572.377 438.872 566.671 452.146 556.854 462.08C544.838 472.621 530.503 482.54 530.779 500.144C523.495 548.044 570.568 572.464 564.208 617.619C563.656 621.492 562.689 625.294 561.324 628.96C557.461 639.376 550.494 648.605 541.044 654.345C524.488 663.423 535.87 672.652 548.162 669.934C537.262 673.673 524.516 675.411 511.202 676.06L511.165 675.274Z" fill="white"/>
<path d="M453.647 501.125C468.683 492.251 482.858 481.992 495.987 470.483L496.029 470.539C515.371 498.434 463.566 520.37 477.694 550.046C488.027 577.746 510.653 608.115 484.633 634.631C474.479 646.703 463.304 658.967 460.807 675.137C446.818 674.392 434.042 673.688 424.123 674.185C358.853 746.546 263.093 760.314 185.117 698.659C166.199 689.443 108.01 631.501 80.0312 585.737L80.1832 585.637C98.7997 579.542 116.086 569.96 131.119 557.401L132.608 557.125C169.237 630.562 266.86 709.311 328.722 650.291L328.57 649.739V649.725C332.13 648.801 335.73 647.67 339.37 646.331C356.877 638.343 365.417 620.504 362.74 604.666L362.796 604.653C444.111 636.536 458.969 556.49 391.45 555.453L390.719 555.398C399.535 541.798 402.308 519.598 395.148 508.27C393.825 505.476 392.299 502.783 390.581 500.213L390.65 500.172C407.882 420.112 410.268 365.562 391.023 293.822L391.285 293.753C410.751 281.953 436.716 266.726 458.707 280.591L459.397 280.563C462.297 354.07 456.775 427.576 453.575 501.013L453.647 501.125Z" fill="white"/>
<path d="M459.4 280.564L458.71 280.592C436.719 266.727 410.754 281.958 391.288 293.754L391.026 293.823C389.632 288.594 388.11 283.264 386.459 277.833L386.542 277.805C403.566 259.042 433.794 247.136 457.648 259.939L458.348 259.898C458.793 266.796 459.143 273.684 459.4 280.564Z" fill="white"/>
<path d="M425.379 224.233C428.452 224.287 431.513 224.62 434.526 225.227C450.475 225.127 458.614 238.237 457.926 253.233C458.077 255.454 458.226 257.675 458.353 259.897L457.653 259.938C433.799 247.138 403.571 259.038 386.547 277.804L386.464 277.832C384.905 272.644 383.236 267.351 381.456 261.952C381.273 257.346 382.048 252.753 383.732 248.461C385.415 244.17 387.971 240.275 391.237 237.022C399.7 228.483 412.59 224 425.379 224.233Z" fill="white"/>
<path d="M114.812 272.81L113.557 273.045C87.3852 284.081 45.3902 254.2 65.8362 226.551C73.0792 216.411 83.9502 210.161 96.0912 210.934C84.2122 182.141 118.234 161.309 142.474 187.508L142.598 187.563C160.698 147.126 235.985 146.505 245.145 190.405C266.791 181.879 296.053 196.627 305.545 216.894C318.745 261.373 258.928 307.394 225.003 268.616C206.792 329.168 121.821 335.514 114.812 272.81Z" fill="white"/>
<path d="M300.868 512.823C288.134 533.186 310.484 554.584 304.593 575.596C305.159 576.368 306.483 576.296 307.504 576.096C318.859 573.917 330.958 574.344 341.498 579.076C351.583 583.27 357.985 590.334 361.047 598.446C361.82 600.457 362.385 602.542 362.731 604.668H362.744C365.421 620.506 356.881 638.345 339.374 646.333C335.731 647.671 332.131 648.802 328.574 649.727V649.741C251.591 670.09 197.882 599.674 248.239 529.162C273.265 496.754 263.346 483.496 253.357 448.288C244.183 372.368 345.657 391.613 319.482 285.162C357.96 303.511 413.807 362.517 392.671 408.169C384.821 424.738 367.038 437.32 366.486 455.628C365.976 472.901 380.848 485.51 390.586 500.217C392.304 502.787 393.83 505.48 395.153 508.274C402.313 519.601 399.54 541.799 390.724 555.402C387.468 560.424 383.384 564.287 378.68 566.002C373.741 567.809 368.112 567.257 362.014 563.228L361.614 563.035C359.848 533.125 326.006 520.86 301.449 513.203L300.868 512.823Z" fill="#171717"/>
<path d="M132.609 557.124L131.119 557.4C116.087 569.96 98.8007 579.544 80.1842 585.64L80.0322 585.74C76.9799 580.806 74.1848 575.718 71.6582 570.495L72.4582 570.205C90.9926 562.625 108.768 553.308 125.546 542.378L125.987 542.213C127.891 547.121 130.1 552.116 132.609 557.124Z" fill="white"/>
<path d="M114.866 516.742C115.982 515.502 116.891 514.091 117.557 512.562L118.467 512.631C119.652 522.78 122.18 532.727 125.986 542.21L125.545 542.375C108.767 553.304 90.9915 562.621 72.4571 570.201L71.6571 570.491C67.3251 561.386 64.7721 553.191 64.7031 546.499H64.9521C68.4971 545.244 72.1811 543.947 75.8781 542.54C90.9441 536.857 106.327 529.517 114.866 516.742Z" fill="white"/>
<path d="M453.578 501.013C456.778 427.576 462.297 354.07 459.4 280.563C459.138 273.679 458.788 266.791 458.351 259.897C458.227 257.675 458.075 255.454 457.924 253.233C458.613 238.233 450.474 225.133 434.524 225.227C431.511 224.62 428.45 224.287 425.377 224.233C412.588 223.999 399.702 228.483 391.232 237.023C387.966 240.276 385.41 244.171 383.726 248.462C382.042 252.753 381.267 257.346 381.45 261.952C383.23 267.36 384.899 272.654 386.458 277.832C388.114 283.268 389.636 288.598 391.025 293.822C410.27 365.562 407.884 420.112 390.652 500.172" stroke="#171717" stroke-width="4.139" stroke-linecap="round" stroke-linejoin="round"/>
<path d="M362.012 563.221C368.112 567.249 373.739 567.801 378.678 565.994C383.378 564.283 387.466 560.42 390.722 555.394C399.538 541.794 402.311 519.594 395.151 508.266C393.828 505.472 392.302 502.779 390.584 500.209C380.844 485.502 365.972 472.893 366.484 455.62C367.036 437.312 384.819 424.73 392.669 408.161C413.805 362.509 357.958 303.503 319.48 285.154C345.652 391.605 244.18 372.36 253.355 448.28C263.343 483.488 273.263 496.746 248.237 529.154C197.88 599.666 251.589 670.082 328.572 649.733V649.719C332.131 648.795 335.731 647.664 339.372 646.325C356.879 638.337 365.419 620.499 362.742 604.66H362.729C362.383 602.534 361.818 600.449 361.045 598.438C357.983 590.326 351.581 583.262 341.496 579.068C330.956 574.336 318.856 573.909 307.502 576.088C306.481 576.295 305.157 576.364 304.591 575.588C304.525 575.516 304.474 575.432 304.439 575.34" stroke="#171717" stroke-width="4.139" stroke-linecap="round" stroke-linejoin="round"/>
<path d="M300.991 583.349C302.59 580.969 303.805 578.353 304.591 575.596C310.482 554.584 288.132 533.186 300.866 512.823C301.44 511.877 302.075 510.969 302.766 510.105C305.657 503.863 306.829 496.961 306.16 490.114" stroke="#171717" stroke-width="4.139" stroke-linecap="round" stroke-linejoin="round"/>
<path d="M301.447 513.2C326.004 520.857 359.847 533.122 361.612 563.032" stroke="#171717" stroke-width="4.139" stroke-linecap="round" stroke-linejoin="round"/>
<path d="M425.352 224.358C425.365 224.316 425.365 224.275 425.379 224.233C432.222 195.733 418.55 117.433 411.997 196.933C411.969 197.209 411.955 197.471 411.928 197.747" stroke="#171717" stroke-width="4.139" stroke-linecap="round" stroke-linejoin="round"/>
<path d="M391.401 237.119C391.346 237.092 391.291 237.05 391.236 237.019C382.613 231.819 361.353 220.133 360.387 210.144C367.387 205.026 378.971 210.917 386.324 216.463C387.566 217.387 388.683 218.312 389.635 219.163" stroke="#171717" stroke-width="4.139" stroke-linecap="round" stroke-linejoin="round"/>
<path d="M412.107 197.427C412.066 197.262 412.038 197.096 411.997 196.927C397.925 133.505 386.405 170.41 399.07 206.874C399.332 207.619 399.608 208.364 399.884 209.109" stroke="#171717" stroke-width="4.139" stroke-linecap="round" stroke-linejoin="round"/>
<path d="M399.456 208.341C399.346 207.982 399.18 207.486 398.987 206.906C395.387 196.256 378.458 151.556 370.539 170.167C370.912 185.784 381.7 203.913 387.067 216.095" stroke="#171717" stroke-width="4.139" stroke-linecap="round" stroke-linejoin="round"/>
<path d="M386.543 277.801C403.567 259.038 433.795 247.132 457.649 259.935" stroke="#171717" stroke-width="4.139" stroke-linecap="round" stroke-linejoin="round"/>
<path d="M391.289 293.754C410.755 281.954 436.72 266.727 458.711 280.592" stroke="#171717" stroke-width="4.139" stroke-linecap="round" stroke-linejoin="round"/>
<path d="M453.453 501.248C453.522 501.207 453.578 501.165 453.647 501.124C468.683 492.25 482.858 481.992 495.987 470.482C510.846 457.464 524.496 443.126 536.769 427.645C548.848 412.446 559.795 396.381 569.521 379.579C575.992 370.86 581.303 372.253 585.056 377.799C590.356 385.599 592.519 401.653 590.409 409.158C590.309 409.475 590.215 409.765 590.119 410.058" stroke="#171717" stroke-width="4.139" stroke-linecap="round" stroke-linejoin="round"/>
<path d="M424.123 674.184C434.042 673.684 446.818 674.391 460.807 675.136C476.852 675.991 494.484 676.888 511.207 676.06C524.52 675.412 537.268 673.673 548.167 669.934C567.826 663.216 581.54 650.026 581.898 625.166" stroke="#171717" stroke-width="4.139" stroke-linecap="round" stroke-linejoin="round"/>
<path d="M552.649 668.375C551.218 669.062 549.714 669.585 548.166 669.934C535.873 672.652 524.491 663.423 541.047 654.345C550.497 648.605 557.464 639.376 561.327 628.96C562.693 625.294 563.659 621.492 564.211 617.619C570.571 572.464 523.498 548.045 530.782 500.144C530.507 482.544 544.841 472.621 556.857 462.08C566.674 452.146 572.38 438.872 572.833 424.913C572.967 422.825 572.912 420.729 572.668 418.65C571.168 401.736 563.768 367.342 584.96 377.868" stroke="#171717" stroke-width="4.139" stroke-linecap="round" stroke-linejoin="round"/>
<path d="M572.625 418.664C572.639 418.664 572.653 418.65 572.667 418.65C578.982 416.3 584.95 413.107 590.409 409.158C641.965 371.922 639.109 273.941 630.349 218.08C628.141 206.795 625.549 194.089 632.049 184.597C634.846 181.35 638.241 178.67 642.049 176.705C647.152 174.122 652.682 172.486 658.37 171.877C671.09 170.332 684.942 172.746 695.785 176.623C696.006 176.705 696.227 176.788 696.448 176.885C698.956 177.832 701.379 178.991 703.691 180.348C722.205 191.26 730.291 213.1 729.391 234.581C741.091 340.343 675.544 433.743 609.691 510.616" stroke="#171717" stroke-width="4.139" stroke-linecap="round" stroke-linejoin="round"/>
<path d="M561.326 628.96C568.224 627.802 575.021 626.321 581.717 624.517C658.59 603.975 722.384 543.589 770.394 482.085C800.925 445.125 853.503 326.326 819.274 285.144C817.086 282.525 814.541 280.226 811.714 278.315C804.014 273.115 793.627 270.423 780.052 271.015C775.07 271.246 770.111 271.817 765.207 272.726C764.365 272.892 763.507 273.043 762.655 273.226C753.273 277.889 746.855 287.132 743.119 296.914C729.419 373.924 675.187 464.083 609.696 510.614" stroke="#171717" stroke-width="4.139" stroke-linecap="round" stroke-linejoin="round"/>
<path d="M765.151 272.437C763.619 247.177 765.041 233.863 790.385 222.702C815.798 211.002 839.665 187.011 861.146 219.102C883.73 244.308 852.62 253.289 832.257 269.638C826.71 274.08 821.977 279.088 819.328 285.103" stroke="#171717" stroke-width="4.139" stroke-linecap="round" stroke-linejoin="round"/>
<path d="M780.012 271.085C780.026 271.058 780.04 271.044 780.054 271.016C786.354 258.916 794.512 244.693 805.48 235.381C809.178 232.172 813.389 229.606 817.938 227.793C822.566 225.98 827.531 225.189 832.493 225.475C839.405 226.551 845.917 231.946 846.565 238.899C846.504 240.489 846.258 242.066 845.834 243.599C843.572 251.891 836.48 257.534 829.168 263.107C823.126 267.701 816.931 272.254 813.151 278.2" stroke="#171717" stroke-width="4.139" stroke-linecap="round" stroke-linejoin="round"/>
<path d="M641.787 175.685C632.187 141.774 652.948 120.514 677.905 101.379C694.116 81.7607 718.052 86.8927 736.857 99.6267C775.21 126.327 710.078 152.604 704.008 179.797" stroke="#171717" stroke-width="4.139" stroke-linecap="round" stroke-linejoin="round"/>
<path d="M658.314 171.477C662.164 156.172 668.693 141.669 677.599 128.639C678.758 126.901 679.972 125.19 681.213 123.521C682.843 121.349 684.825 119.465 687.077 117.947C699.949 109.021 721.319 109.656 718.27 130.226C717.895 131.757 717.416 133.261 716.835 134.726C714.776 139.518 712.2 144.071 709.151 148.302C703.122 157.242 696.551 166.016 696.527 176.695" stroke="#171717" stroke-width="4.139" stroke-linecap="round" stroke-linejoin="round"/>
<path d="M332.301 573.03C339.696 573.899 343.683 567.318 345.311 561.041" stroke="#171717" stroke-width="4.139" stroke-linecap="round" stroke-linejoin="round"/>
<path d="M322.527 550.295C327.577 541.079 335.247 548.777 329.563 555.716" stroke="#171717" stroke-width="4.139" stroke-linecap="round" stroke-linejoin="round"/>
<path d="M319.48 531.476C316.418 532.622 316.1 537.05 316.969 539.782" stroke="#171717" stroke-width="4.139" stroke-linecap="round" stroke-linejoin="round"/>
<path d="M310.33 555.771C309.194 556.751 308.27 557.953 307.615 559.303C306.96 560.653 306.589 562.122 306.523 563.621" stroke="#171717" stroke-width="4.139" stroke-linecap="round" stroke-linejoin="round"/>
<path d="M307.778 525.791C304.315 529.254 301.639 536.718 303.253 541.229" stroke="#171717" stroke-width="4.139" stroke-linecap="round" stroke-linejoin="round"/>
<path d="M361.352 598.318C377.659 599.27 391.262 579.032 378.68 565.995C378.68 565.981 378.652 565.952 378.639 565.938" stroke="#171717" stroke-width="4.139" stroke-linecap="round" stroke-linejoin="round"/>
<path d="M391.455 555.453C458.974 556.488 444.115 636.534 362.801 604.653" stroke="#171717" stroke-width="4.139" stroke-linecap="round" stroke-linejoin="round"/>
<path d="M383.107 586.274C385.617 597.932 402.063 591.793 398.655 581.156C394.916 574.658 381.23 577.444 383.107 586.274Z" stroke="#171717" stroke-width="4.139" stroke-linecap="round" stroke-linejoin="round"/>
<path d="M72.3611 531.738C66.9671 534.814 64.6491 539.933 64.7041 546.5C64.7731 553.191 67.3261 561.386 71.6581 570.491C74.1844 575.714 76.9795 580.803 80.0321 585.736C108.011 631.5 166.2 689.442 185.118 698.658C263.094 760.313 358.854 746.545 424.124 674.184" stroke="#171717" stroke-width="4.139" stroke-linecap="round" stroke-linejoin="round"/>
<path d="M64.9531 546.501C68.4981 545.245 72.1821 543.948 75.8791 542.541C90.9451 536.857 106.328 529.517 114.867 516.741C115.983 515.502 116.892 514.09 117.558 512.561C122.524 502.407 128.112 479.491 121.848 477.67C112.867 483.27 112.067 497.261 105.348 505.414C104.879 481.878 106.493 456.438 100.795 433.881C86.1951 434.019 90.3651 491.135 91.0141 502.724C88.2411 482.899 82.3081 463.681 76.4041 444.559C76.0591 443.442 75.3411 442.076 74.1821 442.269C60.8971 459.763 73.8931 485.355 76.3071 505.125C70.7443 491.654 64.4578 478.493 57.4751 465.701C56.7751 464.401 55.7371 462.914 54.2471 463.011C45.0001 469.048 65.1731 509.513 72.9001 531.545C74.2143 534.936 75.1532 538.462 75.7001 542.058" stroke="#171717" stroke-width="4.139" stroke-linecap="round" stroke-linejoin="round"/>
<path d="M118.469 512.631C119.653 522.78 122.182 532.727 125.988 542.21C127.888 547.121 130.1 552.116 132.61 557.124C169.239 630.561 266.862 709.31 328.724 650.29" stroke="#171717" stroke-width="4.139" stroke-linecap="round" stroke-linejoin="round"/>
<path d="M72.457 570.2C90.9914 562.62 108.767 553.303 125.545 542.373" stroke="#171717" stroke-width="4.139" stroke-linecap="round" stroke-linejoin="round"/>
<path d="M80.1836 585.639C98.8001 579.544 116.086 569.96 131.119 557.399" stroke="#171717" stroke-width="4.139" stroke-linecap="round" stroke-linejoin="round"/>
<path d="M460.795 675.232C460.795 675.205 460.809 675.163 460.809 675.132C463.309 658.962 474.481 646.698 484.635 634.626C510.655 608.11 488.029 577.744 477.695 550.041C463.568 520.365 515.373 498.429 496.031 470.534" stroke="#171717" stroke-width="4.139" stroke-linecap="round" stroke-linejoin="round"/>
<path d="M511.165 675.275C509.065 653.159 533.984 639.375 537.295 618.738C538.995 581.446 495.782 551.853 512.695 504.353C521.815 480.292 553.008 455.528 537.349 428.101" stroke="#171717" stroke-width="4.139" stroke-linecap="round" stroke-linejoin="round"/>
<path d="M565.411 712.882C564.948 711.864 564.418 710.877 563.824 709.93C557.299 699.665 543.709 696.037 531.924 696.589C496.91 697.141 465.84 724.154 457.935 757.899C449.782 784.057 464.102 812.684 489.708 822.465C516.79 833.42 546.259 824.507 569.367 807.965C574.86 804.037 580.024 799.667 584.808 794.9" stroke="#171717" stroke-width="4.139" stroke-linecap="round" stroke-linejoin="round"/>
<path d="M569.385 807.745C569.385 807.814 569.371 807.897 569.371 807.966C565.784 853.866 615.571 883.679 657.46 876.266C692.185 872.927 718.867 847.542 733.947 817.176C734.761 815.562 735.533 813.921 736.278 812.276" stroke="#171717" stroke-width="4.139" stroke-linecap="round" stroke-linejoin="round"/>
<path d="M563.135 710.978C563.369 710.633 563.604 710.288 563.824 709.93C584.877 678.723 618.789 645.391 659.349 654.896C687.107 662.664 712.023 685.979 715.859 715.007C716.242 717.924 716.409 720.866 716.359 723.807" stroke="#171717" stroke-width="4.139" stroke-linecap="round" stroke-linejoin="round"/>
<path d="M811.19 718.801C810.403 713.048 805.961 708.467 801.284 705.018C775.816 685.51 736.607 690.091 716.312 714.938" stroke="#171717" stroke-width="4.139" stroke-linecap="round" stroke-linejoin="round"/>
<path d="M806 719.533C807.714 719.234 809.448 719.058 811.188 719.009C840.863 718.25 853.211 757.955 842.105 782.568C825.881 829.668 773.552 853.149 733.943 817.183C733.832 817.083 733.736 816.989 733.625 816.893" stroke="#171717" stroke-width="4.139" stroke-linecap="round" stroke-linejoin="round"/>
<path d="M898.715 555.633C900.761 556.476 902.991 556.77 905.185 556.488C916.678 555.026 925.3 538.07 919.796 527.957C907.131 514.382 895.638 519.1 887.375 526.233C886.257 527.199 885.209 528.206 884.215 529.213" stroke="#171717" stroke-width="4.139" stroke-linecap="round" stroke-linejoin="round"/>
<path d="M887.76 526.951C887.636 526.703 887.511 526.468 887.373 526.234C880.448 513.169 865.879 512.81 857.698 525.158C855.587 527.144 854.732 529.021 854.676 530.842C854.538 534.815 858.167 538.513 860.871 542.307" stroke="#171717" stroke-width="4.139" stroke-linecap="round" stroke-linejoin="round"/>
<path d="M854.042 530.813C827.788 520.659 813.053 557.881 840.853 565.456C844.605 566.132 852.193 564.956 856.253 561.689C857.19 561.051 857.935 560.169 858.406 559.138C858.878 558.107 859.059 556.967 858.93 555.84" stroke="#171717" stroke-width="4.139" stroke-linecap="round" stroke-linejoin="round"/>
<path d="M856.193 561.056C856.207 561.263 856.221 561.483 856.248 561.69C859.325 594.373 909.06 589.09 905.183 556.49C905.17 556.297 905.142 556.09 905.114 555.883" stroke="#171717" stroke-width="4.139" stroke-linecap="round" stroke-linejoin="round"/>
<path d="M363.683 792.528C359.957 798.212 356.196 803.879 352.398 809.528C348.011 816.039 343.578 822.514 339.098 828.953" stroke="white" stroke-width="4.139" stroke-linecap="round" stroke-linejoin="round"/>
<path d="M363.227 822.01C359.723 817.761 356.113 813.599 352.397 809.525C348.189 804.875 343.852 800.35 339.387 795.949" stroke="white" stroke-width="4.139" stroke-linecap="round" stroke-linejoin="round"/>
<path d="M96.5175 357.271C92.7655 354.085 89.1645 350.691 85.4945 347.38C80.676 342.812 75.4548 338.688 69.8945 335.06" stroke="white" stroke-width="4.139" stroke-linecap="round" stroke-linejoin="round"/>
<path d="M94.7926 331.168C91.7159 336.576 88.6159 341.98 85.4926 347.379C83.0259 351.697 80.5336 356.001 78.0156 360.292" stroke="white" stroke-width="4.139" stroke-linecap="round" stroke-linejoin="round"/>
<path d="M264.985 124.557C261.274 121.259 257.517 118.025 253.714 114.857C249.064 110.939 244.345 107.103 239.559 103.351" stroke="#171717" stroke-width="4.139" stroke-linecap="round" stroke-linejoin="round"/>
<path d="M243.172 129.923C246.801 124.971 250.315 119.949 253.713 114.858C257.203 109.658 260.57 104.374 263.813 99.0059" stroke="#171717" stroke-width="4.139" stroke-linecap="round" stroke-linejoin="round"/>
<path d="M890.366 440.214C886.89 436.476 883.5 432.663 880.198 428.777C876.445 424.403 872.803 419.943 869.271 415.395" stroke="#171717" stroke-width="4.139" stroke-linecap="round" stroke-linejoin="round"/>
<path d="M870.336 440.586C873.689 436.695 876.977 432.758 880.201 428.776C883.581 424.596 886.887 420.361 890.12 416.07" stroke="#171717" stroke-width="4.139" stroke-linecap="round" stroke-linejoin="round"/>
<path d="M523.552 102.482C523.107 101.262 522.581 100.073 521.979 98.9224C510.515 77.5524 472.579 77.0554 461 98.9224C441.437 130.861 468.326 158.991 495.587 141.722C498.637 139.766 501.455 137.471 503.987 134.879" stroke="white" stroke-width="4.139" stroke-linecap="round" stroke-linejoin="round"/>
<path d="M557.587 105.9C559.468 104.359 561.589 103.138 563.865 102.286C578.806 96.739 597.721 108.315 599.9 124.525C600.08 155.208 567.259 164.603 549.268 147.425C545.085 143.347 541.98 138.293 540.232 132.718" stroke="white" stroke-width="4.139" stroke-linecap="round" stroke-linejoin="round"/>
<path d="M521.828 99.2263C521.867 99.1211 521.918 99.0205 521.979 98.9263C530.064 81.0463 558.057 82.8673 563.685 101.768" stroke="white" stroke-width="4.139" stroke-linecap="round" stroke-linejoin="round"/>
<path d="M495.727 141.939C495.851 152.59 506.902 161.93 516.559 164.661C529.942 167.503 541.659 157.432 549.27 147.43C549.298 147.402 549.312 147.375 549.339 147.347" stroke="white" stroke-width="4.139" stroke-linecap="round" stroke-linejoin="round"/>
<path d="M100.947 793.48C100.394 791.675 99.6973 789.917 98.8638 788.223C84.8638 760.189 40.9888 780.623 41.5128 810.173C40.8368 835.779 63.4768 839.918 78.4448 827.915C81.6316 825.367 84.3091 822.24 86.3368 818.699" stroke="#171717" stroke-width="4.139" stroke-linecap="round" stroke-linejoin="round"/>
<path d="M145.427 828.329C147.283 829.861 149.328 831.15 151.511 832.164C174.04 842.553 200.611 815.65 194.017 791.564C185.974 769.573 156.147 770.607 141.978 785.852C141.813 786.032 141.633 786.225 141.478 786.418C138.548 789.679 136.434 793.59 135.311 797.827" stroke="#171717" stroke-width="4.139" stroke-linecap="round" stroke-linejoin="round"/>
<path d="M98.752 788.844C98.794 788.637 98.821 788.43 98.863 788.223C102.933 766.963 132.139 770.55 141.479 786.416C141.562 786.554 141.645 786.692 141.728 786.844L141.976 785.85C142.031 785.616 142.086 785.381 142.155 785.15" stroke="#171717" stroke-width="4.139" stroke-linecap="round" stroke-linejoin="round"/>
<path d="M78.3066 827.309C78.3486 827.516 78.3896 827.709 78.4446 827.916C87.9646 870.933 133.713 871.443 151.386 832.469" stroke="#171717" stroke-width="4.139" stroke-linecap="round" stroke-linejoin="round"/>
<path d="M139.84 195.882C140.478 193.024 141.402 190.237 142.599 187.563C160.699 147.126 235.986 146.505 245.146 190.405C246.157 195.493 246.338 200.711 245.684 205.857" stroke="#171717" stroke-width="4.139" stroke-linecap="round" stroke-linejoin="round"/>
<path d="M114.385 266.601C114.44 268.739 114.592 270.808 114.812 272.809C121.821 335.509 206.792 329.167 225.003 268.615C225.838 265.802 226.52 262.947 227.045 260.061" stroke="#171717" stroke-width="4.139" stroke-linecap="round" stroke-linejoin="round"/>
<path d="M142.473 187.508C118.233 161.308 84.2107 182.141 96.0897 210.934C97.5873 214.51 99.5495 217.872 101.926 220.934" stroke="#171717" stroke-width="4.139" stroke-linecap="round" stroke-linejoin="round"/>
<path d="M224.686 268.257C224.797 268.381 224.893 268.505 225.004 268.616C258.929 307.397 318.749 261.373 305.546 216.894C296.054 196.627 266.793 181.879 245.146 190.405C244.981 190.46 244.815 190.529 244.646 190.598" stroke="#171717" stroke-width="4.139" stroke-linecap="round" stroke-linejoin="round"/>
<path d="M113.557 273.044C87.3852 284.081 45.3902 254.2 65.8362 226.551C73.0792 216.411 83.9502 210.161 96.0912 210.934H96.1322" stroke="#171717" stroke-width="4.139" stroke-linecap="round" stroke-linejoin="round"/>
<path d="M713.112 154.038C711.802 152.121 710.483 150.208 709.154 148.299C705.22 142.643 701.229 137.037 697.179 131.481C693.854 126.929 690.487 122.418 687.078 117.947C685.812 116.264 684.529 114.585 683.229 112.912" stroke="#171717" stroke-width="4.139" stroke-linecap="round" stroke-linejoin="round"/>
<path d="M667.82 127.343C671.087 127.757 674.348 128.19 677.602 128.643C684.141 129.513 690.667 130.46 697.179 131.485C703.747 132.492 710.3 133.573 716.838 134.727C721.032 135.46 725.227 136.219 729.421 137.004" stroke="#171717" stroke-width="4.139" stroke-linecap="round" stroke-linejoin="round"/>
<path d="M830.354 266.616C829.954 265.444 829.567 264.285 829.167 263.116C826.449 255.039 823.827 246.939 821.3 238.817C820.155 235.147 819.033 231.472 817.934 227.794C817.201 225.338 816.474 222.882 815.754 220.427" stroke="#171717" stroke-width="4.139" stroke-linecap="round" stroke-linejoin="round"/>
<path d="M796.994 233.437C799.823 234.099 802.651 234.747 805.479 235.382C810.746 236.568 816.02 237.713 821.303 238.817C829.457 240.514 837.634 242.11 845.833 243.604C847.833 243.977 849.848 244.336 851.862 244.694" stroke="#171717" stroke-width="4.139" stroke-linecap="round" stroke-linejoin="round"/>
<path d="M587.889 349.416C589.32 326.546 591.88 303.784 595.57 281.131" stroke="#171717" stroke-width="4.139" stroke-linecap="round" stroke-linejoin="round"/>
<path d="M514.309 382.758C515.22 376.013 515.763 369.223 515.937 362.418C517.592 327.709 521.399 293.136 527.337 258.898" stroke="#171717" stroke-width="4.139" stroke-linecap="round" stroke-linejoin="round"/>
<path d="M335.934 271.354C340.826 226.384 344.805 181.326 347.872 136.181" stroke="#171717" stroke-width="4.139" stroke-linecap="round" stroke-linejoin="round"/>
<path d="M137.824 452.667C136.999 442.821 138.436 432.947 139.405 423.114C141.309 403.799 141.417 384.349 139.727 365.014" stroke="#171717" stroke-width="4.139" stroke-linecap="round" stroke-linejoin="round"/>
<path d="M618.404 445.313C615.177 446.129 611.79 445.467 608.489 445.057C603.761 444.469 598.982 444.408 594.24 444.875L594.74 443.519" stroke="white" stroke-width="4.139" stroke-linecap="round" stroke-linejoin="round"/>
<path d="M608.5 437.055C606.927 443.326 605.92 449.727 605.492 456.179" stroke="white" stroke-width="4.139" stroke-linecap="round" stroke-linejoin="round"/>
<path d="M629.76 571.091C629.872 564.459 630.389 557.841 631.308 551.272" stroke="white" stroke-width="4.139" stroke-linecap="round" stroke-linejoin="round"/>
<path d="M617.156 562.76L643.456 559.538" stroke="white" stroke-width="4.139" stroke-linecap="round" stroke-linejoin="round"/>
<path d="M752.216 461.04C750.538 453.044 748.862 445.047 747.188 437.051" stroke="white" stroke-width="4.139" stroke-linecap="round" stroke-linejoin="round"/>
<path d="M738.832 453.8L763.247 443.907" stroke="white" stroke-width="4.139" stroke-linecap="round" stroke-linejoin="round"/>
<path d="M762.639 354.234C761.345 348.064 760.053 341.894 758.762 335.726" stroke="white" stroke-width="4.139" stroke-linecap="round" stroke-linejoin="round"/>
<path d="M751.52 348.046C758.437 344.868 765.612 342.283 772.968 340.318" stroke="white" stroke-width="4.139" stroke-linecap="round" stroke-linejoin="round"/>
<path d="M702.131 277.239C700.331 270.843 698.333 264.51 696.137 258.239" stroke="white" stroke-width="4.139" stroke-linecap="round" stroke-linejoin="round"/>
<path d="M689.613 273.55C696.755 269.225 703.842 264.809 710.874 260.303" stroke="white" stroke-width="4.139" stroke-linecap="round" stroke-linejoin="round"/>
<path d="M668.223 221.188C667.053 223.238 666.478 225.574 666.562 227.933C666.499 228.679 666.566 229.43 666.762 230.153C667.055 230.942 667.545 231.643 668.186 232.189C670.014 233.712 672.37 234.449 674.74 234.24C677.11 234.03 679.301 232.891 680.833 231.071C687.492 222.486 674.891 211.259 668.223 221.188Z" stroke="white" stroke-width="4.139" stroke-linecap="round" stroke-linejoin="round"/>
<path d="M642.701 407.743C641.854 411.063 643.578 415.027 646.818 416.143C648.104 416.518 649.45 416.646 650.785 416.519C652.863 416.419 655.109 416.081 656.56 414.593C657.301 413.737 657.87 412.747 658.235 411.675C659.044 409.683 659.776 407.431 658.977 405.435C656.111 398.266 644.339 401.32 642.701 407.743Z" stroke="white" stroke-width="4.139" stroke-linecap="round" stroke-linejoin="round"/>
<path d="M776.599 383.454C775.159 384.493 774.041 385.916 773.37 387.56C772.7 389.204 772.504 391.004 772.806 392.754C772.992 393.87 773.564 394.886 774.423 395.623C775.67 396.384 777.14 396.698 778.589 396.513C780.577 396.457 782.689 396.253 784.262 395.036C785.157 394.289 785.867 393.345 786.336 392.278C787.443 390.21 787.694 387.791 787.036 385.54C785.436 380.976 779.976 380.964 776.599 383.454Z" stroke="white" stroke-width="4.139" stroke-linecap="round" stroke-linejoin="round"/>
<path d="M690.2 521.1C696.911 513.498 702.959 505.335 708.277 496.7C708.44 496.535 708.562 496.333 708.633 496.112C708.705 495.891 708.724 495.656 708.689 495.427C708.654 495.197 708.566 494.978 708.432 494.789C708.297 494.599 708.121 494.443 707.916 494.333C700.34 487.586 691.792 482.016 682.559 477.812C682.202 477.608 681.794 477.511 681.384 477.533C680.837 477.699 680.377 478.073 680.104 478.575L658.43 508.638L683.222 524.56" stroke="white" stroke-width="4.139" stroke-linecap="round" stroke-linejoin="round"/>
<path d="M683.059 354C683.328 354.029 683.6 353.988 683.849 353.88C684.097 353.772 684.312 353.601 684.474 353.384C684.636 353.167 684.739 352.912 684.772 352.643C684.806 352.375 684.769 352.102 684.664 351.852C683.489 341.007 682.315 330.162 681.141 319.318C671.93 321.498 662.634 323.265 653.252 324.618C652.864 324.565 652.468 324.609 652.1 324.746C651.733 324.883 651.405 325.109 651.146 325.403C650.887 325.698 650.705 326.052 650.616 326.434C650.527 326.817 650.535 327.215 650.637 327.593C650.955 334.872 647.961 348.838 653.869 354.663C656.908 357.663 661.144 356.828 664.969 356.336C670.998 355.562 677.028 354.783 683.059 354Z" stroke="white" stroke-width="4.139" stroke-linecap="round" stroke-linejoin="round"/>
<path d="M672.779 365.3C673.688 358.908 670.828 352.45 671.587 346.039C671.617 346.394 671.649 346.747 671.679 347.101" stroke="white" stroke-width="4.139" stroke-linecap="round" stroke-linejoin="round"/>
<path d="M662.193 365.925C662.011 359.655 661.83 353.384 661.648 347.112" stroke="white" stroke-width="4.139" stroke-linecap="round" stroke-linejoin="round"/>
<path d="M676.57 332.3L689.196 330.152" stroke="white" stroke-width="4.139" stroke-linecap="round" stroke-linejoin="round"/>
<path d="M668.757 326.654C668.667 322.195 668.237 317.749 667.472 313.354C667.44 313.42 667.423 313.491 667.42 313.563C667.418 313.635 667.431 313.707 667.458 313.774C667.485 313.841 667.526 313.902 667.578 313.952C667.63 314.003 667.692 314.042 667.76 314.066" stroke="white" stroke-width="4.139" stroke-linecap="round" stroke-linejoin="round"/>
<path d="M661.344 327.625C660.991 323.515 660.637 319.405 660.283 315.296" stroke="white" stroke-width="4.139" stroke-linecap="round" stroke-linejoin="round"/>
<path d="M692.346 491.369C695.14 486.846 697.819 482.253 700.382 477.59C700.445 478.026 700.507 478.462 700.571 478.898" stroke="white" stroke-width="4.139" stroke-linecap="round" stroke-linejoin="round"/>
<path d="M697.633 502.965C700.775 504.155 703.769 505.705 706.555 507.583" stroke="white" stroke-width="4.139" stroke-linecap="round" stroke-linejoin="round"/>
<path d="M691.531 511.859C694.973 513.001 698.143 514.841 700.84 517.264" stroke="white" stroke-width="4.139" stroke-linecap="round" stroke-linejoin="round"/>
<path d="M673.513 512.267C670.83 516.707 667.834 520.951 664.549 524.967C664.762 524.761 664.974 524.554 665.187 524.349" stroke="white" stroke-width="4.139" stroke-linecap="round" stroke-linejoin="round"/>
<path d="M673.447 494.394C669.421 491.353 665.35 488.374 661.232 485.458L661.938 485.717" stroke="white" stroke-width="4.139" stroke-linecap="round" stroke-linejoin="round"/>
<g opacity="0.1">
<path d="M91.9109 208.004C81.4109 208.039 72.3199 213.661 66.4409 222.204C61.0129 230.089 57.4009 242.104 60.3519 251.533C66.9979 272.775 96.2119 281.111 113.643 267.933L99.2089 259.646C101.209 285.852 119.636 308.432 144.057 317.483C168.478 326.534 196.23 317.247 212.606 297.568C222.294 285.927 228.137 271.935 228.49 256.697L211.536 263.72C225.108 278.354 246.958 285.542 266.364 279.858C275.564 277.158 284.708 272.106 290.646 264.493C295.825 257.855 301.488 249.122 299.401 240.41C298.924 238.418 296.149 237.073 294.375 238.365C288.775 242.442 285.498 248.584 279.704 252.519C274.146 256.294 268.618 259.798 261.996 261.306C255.439 262.718 248.627 262.387 242.237 260.347C235.848 258.306 230.105 254.627 225.581 249.675C219.546 243.142 208.836 248.42 208.628 256.697C208.055 279.459 188.011 300.254 165.102 301.113C141.93 301.983 120.243 282.778 118.395 259.646C117.886 253.281 110.295 246.538 103.96 251.363C95.5699 257.755 81.6109 256.369 74.9669 246.645C70.9359 240.745 70.5379 234.486 74.2029 228.232C77.9249 221.878 84.4499 217.076 91.9109 216.532C97.3239 216.14 97.4669 207.982 91.9109 208V208.004Z" fill="#171717"/>
</g>
<g opacity="0.1">
<path d="M49.4972 784.336C48.2252 786.29 46.2132 787.546 44.8972 789.536C43.8269 791.189 42.9037 792.932 42.1382 794.746C40.3978 798.465 39.1364 802.391 38.3842 806.427C37.3352 813.042 38.3942 820.609 42.0552 826.327C52.6552 842.881 75.0782 836.162 85.5872 823.091L69.0722 818.73C74.9952 836.472 84.0092 855.172 104.055 859.792C125.198 864.665 146.774 851.298 151.255 829.959L138.8 837.03C152.211 840.666 166.877 839.209 178.265 830.859C182.922 827.444 188.288 822.73 190.299 817.159C191.115 814.899 191.411 812.515 192.106 810.243C193.077 807.064 192.897 805.237 192.906 801.97C192.906 799.906 189.962 798.344 188.506 800.147C185.974 803.254 182.966 805.939 179.593 808.103C175.973 810.371 172.985 813.26 169.105 815.185C161.365 818.989 152.496 819.815 144.186 817.506C139.165 816.08 132.851 819.242 131.731 824.577C129.308 836.118 117.943 844.098 106.262 839.333C96.2172 835.233 90.1512 823.554 88.1312 813.478C86.9312 807.492 78.6542 804.11 73.6162 807.578C67.9322 811.484 61.2622 820.188 54.7082 813.337C52.0932 810.603 51.3622 806.974 51.5082 803.225C51.6182 800.33 52.5372 797.661 53.2522 794.877C53.9462 792.171 53.7672 789.107 54.6452 786.515C55.7052 783.382 51.1782 781.774 49.5042 784.348L49.4972 784.336Z" fill="#171717"/>
</g>
<g opacity="0.1">
<path d="M480.603 720.687C474.991 724.117 469.797 727.855 465.81 733.13C461.836 738.491 458.819 744.499 456.893 750.888C452.53 764.888 455.178 780.423 462.218 793.123C477.518 820.715 512.16 832.123 541.774 824.623C558.459 820.394 575.607 810.357 586.403 796.78L567.272 785.643C559.901 818.122 574.736 853.352 605.072 868.258C638.4 884.632 677.532 876.558 705.412 853.416C719.887 841.401 731.167 825.379 738.784 808.258L720.547 810.608C742.888 833.92 780.201 840.469 808.481 824.287C834.04 809.663 850.101 775.557 838.851 747.296C837.463 743.81 832.139 744.064 832.037 748.218C831.465 771.575 820.212 795.339 798.494 805.806C778.194 815.592 752.207 810.236 736.968 794.187C732.232 789.2 721.803 789.716 718.732 796.537C707.853 820.694 689.053 842.896 662.881 850.703C637.908 858.153 608.822 851.729 594.886 828.884C591.352 823.328 588.808 817.201 587.368 810.776C585.931 804.125 587.005 798.216 589.347 791.724C593.333 780.677 577.876 772.824 570.215 780.587C559.453 791.497 547.853 799.827 532.533 802.904C525.914 804.181 519.108 804.137 512.507 802.775C505.905 801.412 499.638 798.759 494.066 794.966C483.732 788.115 476.118 776.635 475.333 764.34C474.512 751.498 476.433 737.37 486.284 728.049C490.139 724.4 485.159 717.902 480.603 720.687Z" fill="#171717"/>
</g>
<g opacity="0.1">
<path d="M834.036 532.52C830.036 534.82 826.67 537.839 825.661 542.492C824.751 547.565 825.487 552.796 827.761 557.421C833.714 568.999 851.679 567.811 859.255 558.795L845.341 557.002C852.068 570.991 862.568 586.596 880.114 586.223C896.38 585.877 906.361 570.495 905.97 555.347L899.378 564.006C913.656 560.322 924.216 544.445 919.471 529.768C918.287 526.107 912.862 525.855 911.787 529.768C909.397 538.461 903.458 544.477 894.603 546.687C892.717 547.227 891.057 548.362 889.869 549.923C888.681 551.483 888.029 553.386 888.01 555.347C888.11 561.123 885.219 569.579 877.987 568.341C868.611 566.735 864.247 555.568 860.641 548.059C858.296 543.178 850.227 542.101 846.726 546.266C844.226 549.235 840.859 549.812 837.268 548.19C833.148 546.329 833.768 538.717 836.481 535.69C836.811 535.339 837.005 534.882 837.028 534.401C837.052 533.92 836.903 533.447 836.609 533.065C836.315 532.684 835.894 532.42 835.423 532.321C834.952 532.222 834.461 532.294 834.038 532.524L834.036 532.52Z" fill="#171717"/>
</g>
<g opacity="0.1">
<path d="M60.361 550.507C62.95 586.837 87.561 616.785 112.255 641.555C138.955 668.345 167.585 695.206 199.923 715.073C233.471 735.683 272.563 747.198 311.909 740.348C330.661 737.084 348.722 729.657 365.25 720.348C381.797 711.025 395.992 698.41 412.18 688.6C429.246 678.257 448.022 674.144 467.843 673.566C478.363 673.26 489.179 673.496 499.663 674.076C504.811 674.36 510.04 674.185 515.153 674.529C517.763 674.704 519.953 675.215 522.57 674.79C525.47 674.319 528.276 673.604 531.209 673.214C533.009 672.974 534.179 670.514 532.226 669.457C528.554 667.466 524.959 664.557 520.97 663.307C516.637 661.951 512.122 660.707 507.705 659.56C498.846 657.232 489.819 655.602 480.705 654.687C462.589 652.903 444.428 653.41 426.762 658.155C417.606 660.513 408.813 664.102 400.622 668.824C392.809 673.435 385.646 679.041 378.35 684.407C364.104 694.886 348.794 704.517 332.215 710.86C315.529 717.244 298.183 720.56 280.298 719.413C262.682 718.282 245.209 712.842 229.378 705.175C195.778 688.9 168.066 663.213 141.169 637.823C127.823 625.223 114.449 612.194 103.532 597.379C92.4258 582.51 84.0162 565.807 78.686 548.03C75.792 538.33 59.586 539.647 60.363 550.51L60.361 550.507Z" fill="#171717"/>
</g>
</svg>
