<svg xmlns="http://www.w3.org/2000/svg" width="960" height="960" fill="none" viewBox="0 0 960 960"><path fill="#fff" d="M845.831 243.6c.425-1.533.67-3.11.731-4.7-.648-6.954-7.159-12.348-14.071-13.424a34.47 34.47 0 0 0-14.556 2.318 43.733 43.733 0 0 0-12.457 7.588c-10.968 9.312-19.121 23.536-25.426 35.635-4.981.231-9.942.802-14.846 1.711l-.055-.29c-1.532-25.261-.11-38.574 25.234-49.735 25.413-11.7 49.28-35.691 70.761-3.6 22.584 25.206-8.526 34.187-28.889 50.536l-1.9-3.022c-.4-1.172-.788-2.331-1.188-3.5 7.308-5.579 14.399-11.217 16.662-19.517Zm-276.46 564.366c-23.108 16.541-52.577 25.454-79.659 14.5-25.606-9.781-39.926-38.408-31.773-64.566 7.906-33.745 38.975-60.758 73.989-61.31 11.782-.552 25.372 3.076 31.9 13.341 21.053-31.207 54.964-64.539 95.525-55.034 27.758 7.768 52.674 31.083 56.51 60.111l.455-.069c20.294-24.847 59.5-29.428 84.971-9.92 4.677 3.449 9.119 8.03 9.906 13.783v.207c29.675-.759 42.023 38.946 30.917 63.559-16.224 47.1-68.553 70.581-108.162 34.615-15.08 30.365-41.762 55.75-76.487 59.089-41.888 7.407-91.679-22.406-88.092-68.306Z"/><path fill="#fff" d="m830.354 266.615 1.9 3.022c-5.547 4.442-10.279 9.45-12.927 15.465l-.056.042a36.482 36.482 0 0 0-7.56-6.829l1.435-.111c3.78-5.946 9.975-10.5 16.017-15.093.404 1.173.791 2.332 1.191 3.504Z"/><path fill="#171717" d="M590.41 409.158c51.556-37.236 48.7-135.217 39.94-191.078-2.208-11.285-4.8-23.991 1.7-33.483a33.438 33.438 0 0 1 10-7.892 47.287 47.287 0 0 1 16.321-4.828c12.72-1.545 26.571.869 37.415 4.746.221.082.442.165.662.262a47.268 47.268 0 0 1 7.243 3.463c18.515 10.912 26.6 32.752 25.7 54.233 11.7 105.762-53.847 199.162-119.7 276.035 65.49-46.535 119.723-136.694 133.423-213.7 3.739-9.782 10.154-19.025 19.536-23.688.855-.18 1.71-.331 2.552-.5a109.016 109.016 0 0 1 14.845-1.711c13.575-.593 23.964 2.1 31.662 7.3a36.482 36.482 0 0 1 7.56 6.829c34.229 41.182-18.349 159.981-48.88 196.941-48.011 61.5-111.8 121.89-188.677 142.432a221.165 221.165 0 0 1-20.391 4.443 54.44 54.44 0 0 0 2.884-11.341c6.36-45.155-40.713-69.574-33.429-117.475-.276-17.6 14.059-27.523 26.075-38.063a55.44 55.44 0 0 0 15.976-37.168 34.673 34.673 0 0 0-.165-6.263 74.76 74.76 0 0 0 17.748-9.494Z"/><path fill="#fff" d="M687.08 117.948a24.287 24.287 0 0 0-5.864 5.574 122.557 122.557 0 0 0-3.614 5.118 133.693 133.693 0 0 0-19.287 42.838l.055.4a47.243 47.243 0 0 0-16.321 4.828l-.262-1.021c-9.6-33.911 11.161-55.171 36.118-74.306 16.211-19.618 40.147-14.486 58.952-1.752 38.353 26.7-26.779 52.977-32.849 80.17l-.318.552a47.175 47.175 0 0 0-7.243-3.463l.083-.193c.028-10.679 6.6-19.453 12.624-28.393a71.616 71.616 0 0 0 7.684-13.576 34.619 34.619 0 0 0 1.435-4.5c3.049-20.567-18.321-21.202-31.193-12.276ZM511.207 676.061c-16.721.828-34.353-.069-50.4-.924 2.5-16.17 13.672-28.434 23.826-40.506 26.02-26.516 3.394-56.882-6.94-84.585-14.127-29.676 37.678-51.612 18.336-79.507l-.042-.056a327.31 327.31 0 0 0 40.782-42.837l.579.455c15.659 27.427-15.534 52.191-24.654 76.252-16.914 47.5 26.3 77.093 24.6 114.385-3.311 20.639-28.227 34.421-26.13 56.537l.043.786Z"/><path fill="#fff" d="M511.165 675.274c-2.1-22.116 22.819-35.9 26.13-56.537 1.7-37.292-41.513-66.885-24.6-114.385 9.12-24.061 40.313-48.825 24.654-76.252l-.579-.455a396.722 396.722 0 0 0 32.752-48.066c6.471-8.719 11.782-7.326 15.535-1.78l-.1.069c-21.191-10.526-13.8 23.868-12.292 40.782.244 2.079.299 4.175.165 6.263a55.435 55.435 0 0 1-15.976 37.167c-12.016 10.541-26.351 20.46-26.075 38.064-7.284 47.9 39.789 72.32 33.429 117.475a54.566 54.566 0 0 1-2.884 11.341c-3.863 10.416-10.83 19.645-20.28 25.385-16.556 9.078-5.174 18.307 7.118 15.589-10.9 3.739-23.646 5.477-36.96 6.126l-.037-.786Zm-57.518-174.149a280.545 280.545 0 0 0 42.34-30.642l.042.056c19.342 27.895-32.463 49.831-18.335 79.507 10.333 27.7 32.959 58.069 6.939 84.585-10.154 12.072-21.329 24.336-23.826 40.506-13.989-.745-26.765-1.449-36.684-.952-65.27 72.361-161.03 86.129-239.006 24.474-18.918-9.216-77.107-67.158-105.086-112.922l.152-.1a154.355 154.355 0 0 0 50.936-28.236l1.489-.276c36.629 73.437 134.252 152.186 196.114 93.166l-.152-.552v-.014a114.91 114.91 0 0 0 10.8-3.394c17.507-7.988 26.047-25.827 23.37-41.665l.056-.013c81.315 31.883 96.173-48.163 28.654-49.2l-.731-.055c8.816-13.6 11.589-35.8 4.429-47.128a63.048 63.048 0 0 0-4.567-8.057l.069-.041c17.232-80.06 19.618-134.61.373-206.35l.262-.069c19.466-11.8 45.431-27.027 67.422-13.162l.69-.028c2.9 73.507-2.622 147.013-5.822 220.45l.072.112Z"/><path fill="#fff" d="m459.4 280.564-.69.028c-21.991-13.865-47.956 1.366-67.422 13.162l-.262.069a480.964 480.964 0 0 0-4.567-15.99l.083-.028c17.024-18.763 47.252-30.669 71.106-17.866l.7-.041c.445 6.898.795 13.786 1.052 20.666Z"/><path fill="#fff" d="M425.379 224.233c3.073.054 6.134.387 9.147.994 15.949-.1 24.088 13.01 23.4 28.006.151 2.221.3 4.442.427 6.664l-.7.041c-23.854-12.8-54.082-.9-71.106 17.866l-.083.028a627.324 627.324 0 0 0-5.008-15.88 33.312 33.312 0 0 1 9.781-24.93c8.463-8.539 21.353-13.022 34.142-12.789ZM114.812 272.81l-1.255.235c-26.172 11.036-68.167-18.845-47.72-46.494 7.242-10.14 18.113-16.39 30.254-15.617-11.879-28.793 22.143-49.625 46.383-23.426l.124.055c18.1-40.437 93.387-41.058 102.547 2.842 21.646-8.526 50.908 6.222 60.4 26.489 13.2 44.479-46.617 90.5-80.542 51.722-18.211 60.552-103.182 66.898-110.191 4.194Z"/><path fill="#171717" d="M300.868 512.823c-12.734 20.363 9.616 41.761 3.725 62.773.566.772 1.89.7 2.911.5 11.355-2.179 23.454-1.752 33.994 2.98 10.085 4.194 16.487 11.258 19.549 19.37a31.402 31.402 0 0 1 1.684 6.222h.013c2.677 15.838-5.863 33.677-23.37 41.665a116.065 116.065 0 0 1-10.8 3.394v.014c-76.983 20.349-130.692-50.067-80.335-120.579 25.026-32.408 15.107-45.666 5.118-80.874-9.174-75.92 92.3-56.675 66.125-163.126 38.478 18.349 94.325 77.355 73.189 123.007-7.85 16.569-25.633 29.151-26.185 47.459-.51 17.273 14.362 29.882 24.1 44.589a63.048 63.048 0 0 1 4.567 8.057c7.16 11.327 4.387 33.525-4.429 47.128-3.256 5.022-7.34 8.885-12.044 10.6-4.939 1.807-10.568 1.255-16.666-2.774l-.4-.193c-1.766-29.91-35.608-42.175-60.165-49.832l-.581-.38Z"/><path fill="#fff" d="m132.609 557.124-1.49.276a154.35 154.35 0 0 1-50.935 28.24l-.152.1a168.215 168.215 0 0 1-8.374-15.245l.8-.29a317.311 317.311 0 0 0 53.088-27.827l.441-.165a173.24 173.24 0 0 0 6.622 14.911Z"/><path fill="#fff" d="M114.866 516.742a15.504 15.504 0 0 0 2.691-4.18l.91.069a115.319 115.319 0 0 0 7.519 29.579l-.441.165a317.381 317.381 0 0 1-53.088 27.826l-.8.29c-4.332-9.105-6.885-17.3-6.954-23.992h.25c3.544-1.255 7.228-2.552 10.925-3.959 15.066-5.683 30.449-13.023 38.988-25.798Z"/><path stroke="#171717" stroke-linecap="round" stroke-linejoin="round" stroke-width="4.139" d="M453.578 501.013c3.2-73.437 8.719-146.943 5.822-220.45a819.046 819.046 0 0 0-1.049-20.666c-.124-2.222-.276-4.443-.427-6.664.689-15-7.45-28.1-23.4-28.006a50.835 50.835 0 0 0-9.147-.994c-12.789-.234-25.675 4.25-34.145 12.79a33.332 33.332 0 0 0-9.782 24.929 652.627 652.627 0 0 1 5.008 15.88 464.317 464.317 0 0 1 4.567 15.99c19.245 71.74 16.859 126.29-.373 206.35"/><path stroke="#171717" stroke-linecap="round" stroke-linejoin="round" stroke-width="4.139" d="M362.012 563.221c6.1 4.028 11.727 4.58 16.666 2.773 4.7-1.711 8.788-5.574 12.044-10.6 8.816-13.6 11.589-35.8 4.429-47.128a63.048 63.048 0 0 0-4.567-8.057c-9.74-14.707-24.612-27.316-24.1-44.589.552-18.308 18.335-30.89 26.185-47.459 21.136-45.652-34.711-104.658-73.189-123.007 26.172 106.451-75.3 87.206-66.125 163.126 9.988 35.208 19.908 48.466-5.118 80.874-50.357 70.512 3.352 140.928 80.335 120.579v-.014a115.095 115.095 0 0 0 10.8-3.394c17.507-7.988 26.047-25.826 23.37-41.665h-.013a31.402 31.402 0 0 0-1.684-6.222c-3.062-8.112-9.464-15.176-19.549-19.37-10.54-4.732-22.64-5.159-33.994-2.98-1.021.207-2.345.276-2.911-.5a.772.772 0 0 1-.152-.248"/><path stroke="#171717" stroke-linecap="round" stroke-linejoin="round" stroke-width="4.139" d="M300.991 583.349a27.347 27.347 0 0 0 3.6-7.753c5.891-21.012-16.459-42.41-3.725-62.773a25.685 25.685 0 0 1 1.9-2.718 38.631 38.631 0 0 0 3.394-19.991"/><path stroke="#171717" stroke-linecap="round" stroke-linejoin="round" stroke-width="4.139" d="M301.447 513.2c24.557 7.657 58.4 19.922 60.165 49.832m63.74-338.674c.013-.042.013-.083.027-.125 6.843-28.5-6.829-106.8-13.382-27.3-.028.276-.042.538-.069.814m-20.527 39.372c-.055-.027-.11-.069-.165-.1-8.623-5.2-29.883-16.886-30.849-26.875 7-5.118 18.584.773 25.937 6.319a47.937 47.937 0 0 1 3.311 2.7"/><path stroke="#171717" stroke-linecap="round" stroke-linejoin="round" stroke-width="4.139" d="M412.107 197.427c-.041-.165-.069-.331-.11-.5-14.072-63.422-25.592-26.517-12.927 9.947.262.745.538 1.49.814 2.235m-.428-.768c-.11-.359-.276-.855-.469-1.435-3.6-10.65-20.529-55.35-28.448-36.739.373 15.617 11.161 33.746 16.528 45.928m-.524 61.706c17.024-18.763 47.252-30.669 71.106-17.866m-66.36 33.819c19.466-11.8 45.431-27.027 67.422-13.162m-5.258 220.656c.069-.041.125-.083.194-.124a280.475 280.475 0 0 0 42.34-30.642 327.184 327.184 0 0 0 40.782-42.837 396.607 396.607 0 0 0 32.752-48.066c6.471-8.719 11.782-7.326 15.535-1.78 5.3 7.8 7.463 23.854 5.353 31.359-.1.317-.194.607-.29.9M424.123 674.184c9.919-.5 22.695.207 36.684.952 16.045.855 33.677 1.752 50.4.924 13.313-.648 26.061-2.387 36.96-6.126 19.659-6.718 33.373-19.908 33.731-44.768"/><path stroke="#171717" stroke-linecap="round" stroke-linejoin="round" stroke-width="4.139" d="M552.649 668.375a21.062 21.062 0 0 1-4.483 1.559c-12.293 2.718-23.675-6.511-7.119-15.589 9.45-5.74 16.417-14.969 20.28-25.385a54.503 54.503 0 0 0 2.884-11.341c6.36-45.155-40.713-69.574-33.429-117.475-.275-17.6 14.059-27.523 26.075-38.064a55.435 55.435 0 0 0 15.976-37.167 34.675 34.675 0 0 0-.165-6.263c-1.5-16.914-8.9-51.308 12.292-40.782"/><path stroke="#171717" stroke-linecap="round" stroke-linejoin="round" stroke-width="4.139" d="M572.625 418.664c.014 0 .028-.014.042-.014a74.75 74.75 0 0 0 17.742-9.492c51.556-37.236 48.7-135.217 39.94-191.078-2.208-11.285-4.8-23.991 1.7-33.483a33.438 33.438 0 0 1 10-7.892 47.287 47.287 0 0 1 16.321-4.828c12.72-1.545 26.572.869 37.415 4.746.221.082.442.165.663.262a47.362 47.362 0 0 1 7.243 3.463c18.514 10.912 26.6 32.752 25.7 54.233 11.7 105.762-53.847 199.162-119.7 276.035"/><path stroke="#171717" stroke-linecap="round" stroke-linejoin="round" stroke-width="4.139" d="M561.326 628.96a215.46 215.46 0 0 0 20.391-4.443c76.873-20.542 140.667-80.928 188.677-142.432 30.531-36.96 83.109-155.759 48.88-196.941a36.454 36.454 0 0 0-7.56-6.829c-7.7-5.2-18.087-7.892-31.662-7.3-4.982.231-9.941.802-14.845 1.711-.842.166-1.7.317-2.552.5-9.382 4.663-15.8 13.906-19.536 23.688-13.7 77.01-67.932 167.169-133.423 213.7"/><path stroke="#171717" stroke-linecap="round" stroke-linejoin="round" stroke-width="4.139" d="M765.151 272.437c-1.532-25.26-.11-38.574 25.234-49.735 25.413-11.7 49.28-35.691 70.761-3.6 22.584 25.206-8.526 34.187-28.889 50.536-5.547 4.442-10.28 9.45-12.929 15.465"/><path stroke="#171717" stroke-linecap="round" stroke-linejoin="round" stroke-width="4.139" d="M780.012 271.085c.014-.027.028-.041.042-.069 6.3-12.1 14.458-26.323 25.426-35.635a43.688 43.688 0 0 1 12.458-7.588 34.466 34.466 0 0 1 14.555-2.318c6.912 1.076 13.424 6.471 14.072 13.424a20.593 20.593 0 0 1-.731 4.7c-2.262 8.292-9.354 13.935-16.666 19.508-6.042 4.594-12.237 9.147-16.017 15.093M641.787 175.685c-9.6-33.911 11.161-55.171 36.118-74.306 16.211-19.618 40.147-14.486 58.952-1.752 38.353 26.7-26.779 52.977-32.849 80.17"/><path stroke="#171717" stroke-linecap="round" stroke-linejoin="round" stroke-width="4.139" d="M658.314 171.477a133.73 133.73 0 0 1 19.285-42.838 122.557 122.557 0 0 1 3.614-5.118 24.344 24.344 0 0 1 5.864-5.574c12.872-8.926 34.242-8.291 31.193 12.279a34.418 34.418 0 0 1-1.435 4.5 71.5 71.5 0 0 1-7.684 13.576c-6.029 8.94-12.6 17.714-12.624 28.393M332.301 573.03c7.395.869 11.382-5.712 13.01-11.989m-22.784-10.746c5.05-9.216 12.72-1.518 7.036 5.421m-10.083-24.24c-3.062 1.146-3.38 5.574-2.511 8.306m-6.639 15.989a11.015 11.015 0 0 0-3.807 7.85m1.255-37.83c-3.463 3.463-6.139 10.927-4.525 15.438m58.099 57.089c16.307.952 29.91-19.286 17.328-32.323 0-.014-.028-.043-.041-.057"/><path stroke="#171717" stroke-linecap="round" stroke-linejoin="round" stroke-width="4.139" d="M391.455 555.453c67.519 1.035 52.66 81.081-28.654 49.2"/><path stroke="#171717" stroke-linecap="round" stroke-linejoin="round" stroke-width="4.139" d="M383.107 586.274c2.51 11.658 18.956 5.519 15.548-5.118-3.739-6.498-17.425-3.712-15.548 5.118ZM72.361 531.738c-5.394 3.076-7.712 8.195-7.657 14.762.07 6.691 2.622 14.886 6.954 23.991a167.933 167.933 0 0 0 8.374 15.245C108.011 631.5 166.2 689.442 185.118 698.658c77.976 61.655 173.736 47.887 239.006-24.474"/><path stroke="#171717" stroke-linecap="round" stroke-linejoin="round" stroke-width="4.139" d="M64.953 546.501c3.545-1.256 7.23-2.553 10.926-3.96 15.066-5.684 30.449-13.024 38.988-25.8a15.488 15.488 0 0 0 2.691-4.18c4.966-10.154 10.554-33.07 4.29-34.891-8.981 5.6-9.781 19.591-16.5 27.744-.469-23.536 1.145-48.976-4.553-71.533-14.6.138-10.43 57.254-9.78 68.843-2.774-19.825-8.707-39.043-14.61-58.165-.346-1.117-1.064-2.483-2.223-2.29-13.285 17.494-.289 43.086 2.125 62.856a404.577 404.577 0 0 0-18.832-39.424c-.7-1.3-1.738-2.787-3.228-2.69C45 469.048 65.173 509.513 72.9 531.545a49.826 49.826 0 0 1 2.8 10.513m42.769-29.427a115.278 115.278 0 0 0 7.519 29.579c1.9 4.911 4.112 9.906 6.622 14.914 36.629 73.437 134.252 152.186 196.114 93.166M72.457 570.2a317.313 317.313 0 0 0 53.088-27.827m-45.361 43.266a154.328 154.328 0 0 0 50.935-28.24m329.676 117.833c0-.027.014-.069.014-.1 2.5-16.17 13.672-28.434 23.826-40.506 26.02-26.516 3.394-56.882-6.94-84.585-14.127-29.676 37.678-51.612 18.336-79.507m15.134 204.741c-2.1-22.116 22.819-35.9 26.13-56.537 1.7-37.292-41.513-66.885-24.6-114.385 9.12-24.061 40.313-48.825 24.654-76.252m28.062 284.781a25.157 25.157 0 0 0-1.587-2.952c-6.525-10.265-20.115-13.893-31.9-13.341-35.014.552-66.084 27.565-73.989 61.31-8.153 26.158 6.167 54.785 31.773 64.566 27.082 10.955 56.551 2.042 79.659-14.5a124.356 124.356 0 0 0 15.441-13.065"/><path stroke="#171717" stroke-linecap="round" stroke-linejoin="round" stroke-width="4.139" d="M569.385 807.745c0 .069-.014.152-.014.221-3.587 45.9 46.2 75.713 88.089 68.3 34.725-3.339 61.407-28.724 76.487-59.09a129.791 129.791 0 0 0 2.331-4.9M563.135 710.978c.234-.345.469-.69.689-1.048 21.053-31.207 54.965-64.539 95.525-55.034 27.758 7.768 52.674 31.083 56.51 60.111.383 2.917.55 5.859.5 8.8m94.831-5.006c-.787-5.753-5.229-10.334-9.906-13.783-25.468-19.508-64.677-14.927-84.972 9.92"/><path stroke="#171717" stroke-linecap="round" stroke-linejoin="round" stroke-width="4.139" d="M806 719.533a36.106 36.106 0 0 1 5.188-.524c29.675-.759 42.023 38.946 30.917 63.559-16.224 47.1-68.553 70.581-108.162 34.615-.111-.1-.207-.194-.318-.29m165.09-261.26a12.725 12.725 0 0 0 6.47.855c11.493-1.462 20.115-18.418 14.611-28.531-12.665-13.575-24.158-8.857-32.421-1.724a54.746 54.746 0 0 0-3.16 2.98"/><path stroke="#171717" stroke-linecap="round" stroke-linejoin="round" stroke-width="4.139" d="M887.76 526.951a11.668 11.668 0 0 0-.387-.717c-6.925-13.065-21.494-13.424-29.675-1.076-2.111 1.986-2.966 3.863-3.022 5.684-.138 3.973 3.491 7.671 6.195 11.465m-6.829-11.494c-26.254-10.154-40.989 27.068-13.189 34.643 3.752.676 11.34-.5 15.4-3.767a6.222 6.222 0 0 0 2.677-5.849"/><path stroke="#171717" stroke-linecap="round" stroke-linejoin="round" stroke-width="4.139" d="M856.193 561.056c.014.207.028.427.055.634 3.077 32.683 52.812 27.4 48.935-5.2a9.337 9.337 0 0 0-.069-.607"/><path stroke="#fff" stroke-linecap="round" stroke-linejoin="round" stroke-width="4.139" d="M363.683 792.528a1749.17 1749.17 0 0 1-11.285 17 1573.443 1573.443 0 0 1-13.3 19.425"/><path stroke="#fff" stroke-linecap="round" stroke-linejoin="round" stroke-width="4.139" d="M363.227 822.01a331.381 331.381 0 0 0-10.83-12.485 329.425 329.425 0 0 0-13.01-13.576M96.517 357.271c-3.751-3.186-7.352-6.58-11.022-9.891a110.22 110.22 0 0 0-15.6-12.32"/><path stroke="#fff" stroke-linecap="round" stroke-linejoin="round" stroke-width="4.139" d="M94.793 331.168a2593.117 2593.117 0 0 1-9.3 16.211 1281.29 1281.29 0 0 1-7.477 12.913"/><path stroke="#171717" stroke-linecap="round" stroke-linejoin="round" stroke-width="4.139" d="M264.985 124.557a464.931 464.931 0 0 0-11.271-9.7 516.907 516.907 0 0 0-14.155-11.506"/><path stroke="#171717" stroke-linecap="round" stroke-linejoin="round" stroke-width="4.139" d="M243.172 129.923a419.034 419.034 0 0 0 10.541-15.065 394.4 394.4 0 0 0 10.1-15.852m626.553 341.208a341.869 341.869 0 0 1-10.168-11.437 353.825 353.825 0 0 1-10.927-13.382"/><path stroke="#171717" stroke-linecap="round" stroke-linejoin="round" stroke-width="4.139" d="M870.336 440.586a501.683 501.683 0 0 0 9.865-11.81c3.38-4.18 6.686-8.415 9.919-12.706"/><path stroke="#fff" stroke-linecap="round" stroke-linejoin="round" stroke-width="4.139" d="M523.552 102.482a29.442 29.442 0 0 0-1.573-3.56c-11.464-21.37-49.4-21.867-60.979 0-19.563 31.939 7.326 60.069 34.587 42.8a47.857 47.857 0 0 0 8.4-6.843m53.6-28.979a22.173 22.173 0 0 1 6.278-3.614c14.941-5.547 33.856 6.029 36.035 22.239.18 30.683-32.641 40.078-50.632 22.9a35.281 35.281 0 0 1-9.036-14.707"/><path stroke="#fff" stroke-linecap="round" stroke-linejoin="round" stroke-width="4.139" d="M521.828 99.226c.039-.105.09-.206.151-.3 8.085-17.88 36.078-16.059 41.706 2.842m-67.958 40.171c.124 10.651 11.175 19.991 20.832 22.722 13.383 2.842 25.1-7.229 32.711-17.231.028-.028.042-.055.069-.083"/><path stroke="#171717" stroke-linecap="round" stroke-linejoin="round" stroke-width="4.139" d="M100.947 793.48a35.39 35.39 0 0 0-2.083-5.257c-14-28.034-57.875-7.6-57.351 21.95-.676 25.606 21.964 29.745 36.932 17.742a32.438 32.438 0 0 0 7.892-9.216m59.09 9.63a28.26 28.26 0 0 0 6.084 3.835c22.529 10.389 49.1-16.514 42.506-40.6-8.043-21.991-37.87-20.957-52.039-5.712-.165.18-.345.373-.5.566a27.684 27.684 0 0 0-6.167 11.409"/><path stroke="#171717" stroke-linecap="round" stroke-linejoin="round" stroke-width="4.139" d="M98.752 788.844c.042-.207.069-.414.111-.621 4.07-21.26 33.276-17.673 42.616-1.807.083.138.166.276.249.428l.248-.994c.055-.234.11-.469.179-.7m-63.848 42.159c.042.207.083.4.138.607 9.52 43.017 55.268 43.527 72.941 4.553M139.84 195.882a43.62 43.62 0 0 1 2.759-8.319c18.1-40.437 93.387-41.058 102.547 2.842a48.142 48.142 0 0 1 .538 15.452m-131.299 60.744a74.19 74.19 0 0 0 .427 6.208c7.009 62.7 91.98 56.358 110.191-4.194a81.008 81.008 0 0 0 2.042-8.554m-84.572-72.553c-24.24-26.2-58.262-5.367-46.383 23.426a44.081 44.081 0 0 0 5.836 10"/><path stroke="#171717" stroke-linecap="round" stroke-linejoin="round" stroke-width="4.139" d="M224.686 268.257c.111.124.207.248.318.359 33.925 38.781 93.745-7.243 80.542-51.722-9.492-20.267-38.753-35.015-60.4-26.489-.165.055-.331.124-.5.193m-131.089 82.446c-26.172 11.037-68.167-18.844-47.72-46.493 7.242-10.14 18.113-16.39 30.254-15.617h.041m616.98-56.896a931.738 931.738 0 0 0-15.933-22.557 821.217 821.217 0 0 0-10.101-13.534 404.684 404.684 0 0 0-3.849-5.035"/><path stroke="#171717" stroke-linecap="round" stroke-linejoin="round" stroke-width="4.139" d="M667.82 127.343c3.267.414 6.528.847 9.782 1.3a829.46 829.46 0 0 1 19.577 2.842 882.678 882.678 0 0 1 19.659 3.242c4.194.733 8.389 1.492 12.583 2.277m100.933 129.612c-.4-1.172-.787-2.331-1.187-3.5a1111.857 1111.857 0 0 1-11.233-35.322c-.733-2.456-1.46-4.912-2.18-7.367"/><path stroke="#171717" stroke-linecap="round" stroke-linejoin="round" stroke-width="4.139" d="M796.994 233.437c2.829.662 5.657 1.31 8.485 1.945a1046.366 1046.366 0 0 0 15.824 3.435 1001.73 1001.73 0 0 0 24.53 4.787c2 .373 4.015.732 6.029 1.09M587.889 349.416a694.07 694.07 0 0 1 7.681-68.285m-81.261 101.627a187.834 187.834 0 0 0 1.628-20.34 839.89 839.89 0 0 1 11.4-103.52m-191.403 12.456a3348.415 3348.415 0 0 0 11.938-135.173M137.824 452.667c-.825-9.846.612-19.72 1.581-29.553a313.757 313.757 0 0 0 .322-58.1"/><path stroke="#fff" stroke-linecap="round" stroke-linejoin="round" stroke-width="4.139" d="M618.404 445.313c-3.227.816-6.614.154-9.915-.256a64.352 64.352 0 0 0-14.249-.182l.5-1.356"/><path stroke="#fff" stroke-linecap="round" stroke-linejoin="round" stroke-width="4.139" d="M608.5 437.055a107.984 107.984 0 0 0-3.008 19.124m24.268 114.912a162.89 162.89 0 0 1 1.548-19.819m-14.152 11.488 26.3-3.222m108.76-98.498c-1.678-7.996-3.354-15.993-5.028-23.989m-8.356 16.749 24.415-9.893m-.608-89.673c-1.294-6.17-2.586-12.34-3.877-18.508"/><path stroke="#fff" stroke-linecap="round" stroke-linejoin="round" stroke-width="4.139" d="M751.52 348.046a134.542 134.542 0 0 1 21.448-7.728m-70.837-63.079a318.696 318.696 0 0 0-5.994-19"/><path stroke="#fff" stroke-linecap="round" stroke-linejoin="round" stroke-width="4.139" d="M689.613 273.55a987.669 987.669 0 0 0 21.261-13.247m-42.651-39.115a12.696 12.696 0 0 0-1.661 6.745 6.418 6.418 0 0 0 .2 2.22c.293.789.783 1.49 1.424 2.036a9.003 9.003 0 0 0 12.647-1.118c6.659-8.585-5.942-19.812-12.61-9.883Zm-25.522 186.555c-.847 3.32.877 7.284 4.117 8.4 1.286.375 2.632.503 3.967.376 2.078-.1 4.324-.438 5.775-1.926a8.783 8.783 0 0 0 1.675-2.918c.809-1.992 1.541-4.244.742-6.24-2.866-7.169-14.638-4.115-16.276 2.308Zm133.898-24.289a9.479 9.479 0 0 0-3.793 9.3 4.826 4.826 0 0 0 1.617 2.869 6.435 6.435 0 0 0 4.166.89c1.988-.056 4.1-.26 5.673-1.477a7.55 7.55 0 0 0 2.074-2.758 8.953 8.953 0 0 0 .7-6.738c-1.6-4.564-7.06-4.576-10.437-2.086ZM690.2 521.1a177.568 177.568 0 0 0 18.077-24.4 1.488 1.488 0 0 0 .155-1.911 1.507 1.507 0 0 0-.516-.456 101.158 101.158 0 0 0-25.357-16.521 2.138 2.138 0 0 0-1.175-.279 2.176 2.176 0 0 0-1.28 1.042l-21.674 30.063 24.792 15.922M683.059 354a1.554 1.554 0 0 0 1.713-1.357 1.542 1.542 0 0 0-.108-.791l-3.523-32.534a318.294 318.294 0 0 1-27.889 5.3 2.38 2.38 0 0 0-2.636 1.816 2.38 2.38 0 0 0 .021 1.159c.318 7.279-2.676 21.245 3.232 27.07 3.039 3 7.275 2.165 11.1 1.673 6.029-.774 12.059-1.553 18.09-2.336Z"/><path stroke="#fff" stroke-linecap="round" stroke-linejoin="round" stroke-width="4.139" d="M672.779 365.3c.909-6.392-1.951-12.85-1.192-19.261l.092 1.062m-9.486 18.824-.545-18.813M676.57 332.3l12.626-2.148m-20.439-3.498a87.902 87.902 0 0 0-1.285-13.3.526.526 0 0 0 .106.598c.052.051.114.09.182.114m-6.416 13.559-1.061-12.329m32.063 176.073a314.085 314.085 0 0 0 8.036-13.779l.189 1.308m-2.938 24.067a43.575 43.575 0 0 1 8.922 4.618m-15.024 4.276a26.342 26.342 0 0 1 9.309 5.405m-27.327-4.997a109.53 109.53 0 0 1-8.964 12.7l.638-.618m8.26-29.955a491.975 491.975 0 0 0-12.215-8.936l.706.259"/><path fill="#171717" d="M91.91 208.004c-10.5.035-19.59 5.657-25.47 14.2-5.427 7.885-9.04 19.9-6.088 29.329 6.646 21.242 35.86 29.578 53.291 16.4l-14.434-8.287c2 26.206 20.427 48.786 44.848 57.837 24.421 9.051 52.173-.236 68.549-19.915 9.688-11.641 15.531-25.633 15.884-40.871l-16.954 7.023c13.572 14.634 35.422 21.822 54.828 16.138 9.2-2.7 18.344-7.752 24.282-15.365 5.179-6.638 10.842-15.371 8.755-24.083-.477-1.992-3.252-3.337-5.026-2.045-5.6 4.077-8.877 10.219-14.671 14.154-5.558 3.775-11.086 7.279-17.708 8.787a38.378 38.378 0 0 1-36.415-11.631c-6.035-6.533-16.745-1.255-16.953 7.022-.573 22.762-20.617 43.557-43.526 44.416-23.172.87-44.859-18.335-46.707-41.467-.509-6.365-8.1-13.108-14.435-8.283-8.39 6.392-22.35 5.006-28.993-4.718-4.031-5.9-4.43-12.159-.764-18.413 3.722-6.354 10.247-11.156 17.708-11.7 5.413-.392 5.556-8.55 0-8.532v.004ZM49.497 784.336c-1.272 1.954-3.284 3.21-4.6 5.2a33.674 33.674 0 0 0-2.759 5.21 48.546 48.546 0 0 0-3.754 11.681c-1.049 6.615.01 14.182 3.671 19.9 10.6 16.554 33.023 9.835 43.532-3.236l-16.515-4.361c5.923 17.742 14.937 36.442 34.983 41.062 21.143 4.873 42.719-8.494 47.2-29.833L138.8 837.03c13.411 3.636 28.077 2.179 39.465-6.171 4.657-3.415 10.023-8.129 12.034-13.7.816-2.26 1.112-4.644 1.807-6.916.971-3.179.791-5.006.8-8.273 0-2.064-2.944-3.626-4.4-1.823a37.893 37.893 0 0 1-8.913 7.956c-3.62 2.268-6.608 5.157-10.488 7.082a35.157 35.157 0 0 1-24.919 2.321c-5.021-1.426-11.335 1.736-12.455 7.071-2.423 11.541-13.788 19.521-25.469 14.756-10.045-4.1-16.11-15.779-18.13-25.855-1.2-5.986-9.478-9.368-14.516-5.9-5.684 3.906-12.354 12.61-18.908 5.759-2.615-2.734-3.346-6.363-3.2-10.112.11-2.895 1.03-5.564 1.744-8.348.694-2.706.515-5.77 1.393-8.362 1.06-3.133-3.467-4.741-5.14-2.167l-.008-.012Zm431.106-63.649c-5.612 3.43-10.806 7.168-14.793 12.443a57.867 57.867 0 0 0-8.917 17.758c-4.363 14-1.715 29.535 5.325 42.235 15.3 27.592 49.942 39 79.556 31.5 16.685-4.229 33.833-14.266 44.629-27.843l-19.131-11.137c-7.371 32.479 7.464 67.709 37.8 82.615 33.328 16.374 72.46 8.3 100.34-14.842 14.475-12.015 25.755-28.037 33.372-45.158l-18.237 2.35c22.341 23.312 59.654 29.861 87.934 13.679 25.559-14.624 41.62-48.73 30.37-76.991-1.388-3.486-6.712-3.232-6.814.922-.572 23.357-11.825 47.121-33.543 57.588-20.3 9.786-46.287 4.43-61.526-11.619-4.736-4.987-15.165-4.471-18.236 2.35-10.879 24.157-29.679 46.359-55.851 54.166-24.973 7.45-54.059 1.026-67.995-21.819a56.945 56.945 0 0 1-7.518-18.108c-1.437-6.651-.363-12.56 1.979-19.052 3.986-11.047-11.471-18.9-19.132-11.137-10.762 10.91-22.362 19.24-37.682 22.317a51.151 51.151 0 0 1-38.467-7.938c-10.334-6.851-17.948-18.331-18.733-30.626-.821-12.842 1.1-26.97 10.951-36.291 3.855-3.649-1.125-10.147-5.681-7.362ZM834.036 532.52c-4 2.3-7.366 5.319-8.375 9.972a24.165 24.165 0 0 0 2.1 14.929c5.953 11.578 23.918 10.39 31.494 1.374l-13.914-1.793c6.727 13.989 17.227 29.594 34.773 29.221 16.266-.346 26.247-15.728 25.856-30.876l-6.592 8.659c14.278-3.684 24.838-19.561 20.093-34.238-1.184-3.661-6.609-3.913-7.684 0-2.39 8.693-8.329 14.709-17.184 16.919a9.094 9.094 0 0 0-6.593 8.66c.1 5.776-2.791 14.232-10.023 12.994-9.376-1.606-13.74-12.773-17.346-20.282-2.345-4.881-10.414-5.958-13.915-1.793-2.5 2.969-5.867 3.546-9.458 1.924-4.12-1.861-3.5-9.473-.787-12.5a2.023 2.023 0 0 0 .128-2.625 2.025 2.025 0 0 0-2.571-.541l-.002-.004ZM60.361 550.507c2.589 36.33 27.2 66.278 51.894 91.048 26.7 26.79 55.33 53.651 87.668 73.518 33.548 20.61 72.64 32.125 111.986 25.275 18.752-3.264 36.813-10.691 53.341-20 16.547-9.323 30.742-21.938 46.93-31.748 17.066-10.343 35.842-14.456 55.663-15.034 10.52-.306 21.336-.07 31.82.51 5.148.284 10.377.109 15.49.453 2.61.175 4.8.686 7.417.261 2.9-.471 5.706-1.186 8.639-1.576 1.8-.24 2.97-2.7 1.017-3.757-3.672-1.991-7.267-4.9-11.256-6.15-4.333-1.356-8.848-2.6-13.265-3.747a175.023 175.023 0 0 0-27-4.873c-18.116-1.784-36.277-1.277-53.943 3.468a104.54 104.54 0 0 0-26.14 10.669c-7.813 4.611-14.976 10.217-22.272 15.583-14.246 10.479-29.556 20.11-46.135 26.453-16.686 6.384-34.032 9.7-51.917 8.553-17.616-1.131-35.089-6.571-50.92-14.238-33.6-16.275-61.312-41.962-88.209-67.352-13.346-12.6-26.72-25.629-37.637-40.444a158.564 158.564 0 0 1-24.846-49.349c-2.894-9.7-19.1-8.383-18.323 2.48l-.002-.003Z" opacity=".1"/></svg>