<svg width="55" height="65" viewBox="0 0 55 65" fill="none" xmlns="http://www.w3.org/2000/svg">
<path d="M15.6 52.5605C15.4114 52.5608 14.9033 52.2933 14.0755 51.758L12.246 50.6948C12.0282 50.5502 11.9189 50.2312 11.9182 49.7379C11.9152 47.7068 14.6023 39.9622 19.9794 26.504L20.7385 24.74C20.5789 24.7548 19.9635 25.503 18.8921 26.9847C18.3708 27.711 17.8279 28.4446 17.2632 29.1855C15.8731 31.0014 14.8806 31.9099 14.2858 31.9109C14.1987 31.9111 14.1189 31.8894 14.0463 31.846C13.422 31.4844 12.8775 31.188 12.4129 30.9567C11.6289 30.5954 11.0626 30.2482 10.7139 29.9151C10.3653 29.582 10.1904 29.0238 10.1892 28.2404C10.1882 27.5295 10.31 26.5065 10.5547 25.1713C10.323 25.5054 9.20299 28.4524 7.19456 34.0125C6.64539 35.4642 6.07451 36.945 5.4819 38.4549C4.06544 42.0698 3.13959 43.8776 2.70436 43.8784C2.64633 43.8785 2.59551 43.8496 2.5519 43.7916C1.62142 42.444 1.0254 41.6254 0.763838 41.3357C0.574875 41.0894 0.480351 40.9372 0.480266 40.8792C0.72543 39.8777 2.63284 34.6806 6.20249 25.2877C8.63107 19.3353 10.3094 16.2277 11.2375 15.9649C11.4841 15.9064 12.0783 15.4774 13.0201 14.6778C13.3388 14.3581 13.5707 14.1981 13.7158 14.1979C13.8899 14.1976 13.9917 14.415 14.0214 14.8502C14.0947 15.3578 14.2329 15.6187 14.436 15.6329C14.7117 15.6614 14.8496 15.7119 14.8497 15.7845C14.8498 15.857 14.8137 15.9514 14.7413 16.0676C14.6834 16.1692 14.6184 16.3144 14.5461 16.5032C14.4738 16.6919 14.4379 16.9241 14.4383 17.1997C14.4386 17.3738 14.4606 17.5624 14.5044 17.7654C14.636 18.4616 14.7025 19.2521 14.7038 20.1371C14.7057 21.4718 14.5849 23.1984 14.3414 25.317C14.2841 25.8394 14.2556 26.1804 14.2559 26.34C14.647 25.9476 15.1828 25.2865 15.8633 24.3568C18.5995 20.4349 22.3077 16.4533 26.9878 12.4119C27.4224 11.9759 27.7195 11.7578 27.8791 11.7575C28.0677 11.7572 28.2204 12.0035 28.3371 12.4966C28.4684 12.9751 28.5858 13.8817 28.6893 15.2162C28.6907 16.1447 28.3589 17.4147 27.6939 19.0262C27.0434 20.6377 26.2337 22.4962 25.2647 24.6015C23.8474 27.6361 21.9972 32.2456 19.714 38.4299C17.4454 44.6142 16.1392 49.2227 15.7954 52.2555C15.7957 52.4586 15.7306 52.5603 15.6 52.5605Z" fill="black"/>
<path d="M38.2475 52.9907C37.7836 53.0093 37.2708 51.7957 36.7092 49.3497C36.609 48.9617 36.5504 48.5139 36.5333 48.0064C36.4486 45.4976 37.3665 41.5036 39.2867 36.0244L39.6415 34.921C39.6182 34.6606 39.0411 34.5531 37.9102 34.5987C36.7939 34.6436 35.5645 34.7803 34.2221 35.0086C32.3606 35.345 31.3759 35.6315 31.2677 35.8682L30.3126 38.5423C29.9298 39.6758 29.7426 40.3659 29.7509 40.6124C29.7544 40.7139 29.8015 40.8209 29.8924 40.9334C30.5103 41.6055 30.8321 42.1081 30.8579 42.441C30.8623 42.5715 30.8372 42.6887 30.7826 42.7926C30.5363 43.2381 30.2395 43.4752 29.892 43.5037C29.4281 43.5224 28.4939 43.589 27.0896 43.7037C26.6691 43.7206 26.2692 43.7004 25.8898 43.6431C25.4959 43.5864 25.289 43.2607 25.2689 42.6662C25.2435 41.9121 25.6261 40.3429 26.4167 37.9586C26.4162 37.9441 26.423 37.9294 26.437 37.9143C26.465 37.8841 26.4785 37.8545 26.4776 37.8255L26.4536 37.7611C26.3091 37.7815 26.1869 37.8154 26.0869 37.863C26.0008 37.8955 25.9288 37.913 25.8708 37.9153C25.7694 37.9194 25.6949 37.8643 25.6475 37.75L24.8174 35.736C24.4715 34.9513 24.2879 34.4577 24.2666 34.2552C24.2622 34.1247 24.353 34.0194 24.539 33.9393C26.0069 33.1251 27.1228 32.6372 27.8868 32.4758C28.1028 32.4235 28.2751 32.3657 28.4036 32.3025C28.5461 32.2241 28.7772 31.7574 29.0968 30.9023C30.0439 28.4246 31.4753 25.2376 33.3909 21.3414C35.9178 16.2008 37.4417 13.6054 37.9626 13.5554C38.0061 13.5537 38.1862 13.7279 38.5029 14.0782C39.3331 15.0177 39.8775 15.6637 40.1362 16.0163C40.3944 16.3544 40.5281 16.6612 40.5374 16.9368C40.5453 17.1688 40.3845 17.5673 40.0551 18.1324C39.6117 18.7602 39.0362 19.9886 38.3284 21.8177C38.3038 21.9494 38.2336 22.0176 38.1176 22.0223L37.9001 22.031C37.5377 22.0456 36.6589 23.5404 35.264 26.5153C33.9226 29.3574 33.2556 30.8873 33.2629 31.1048C34.6527 30.9907 35.8406 30.9138 36.8265 30.8741C37.9138 30.8303 38.7414 30.8333 39.3093 30.883C39.7017 30.8962 40.0284 30.8976 40.2894 30.8871C40.8258 30.8655 41.1768 30.7279 41.3425 30.4744C41.5081 30.2208 41.7032 29.7628 41.9276 29.1003C42.6111 26.9817 44.1772 23.4844 46.6259 18.6083C48.4077 15.0514 49.4052 13.2034 49.6183 13.0641C49.6873 12.9597 49.7509 12.9063 49.8088 12.9039C49.9683 12.8975 51.0556 13.2821 53.0707 14.0577C53.1736 14.0971 53.2276 14.1893 53.2324 14.3343C53.2491 14.8274 52.5123 16.4399 51.022 19.1718C50.0248 21.0271 48.8813 23.2804 47.5915 25.9316C44.4427 32.4333 42.1605 39.0161 40.7448 45.6803C40.4524 46.9119 40.3131 47.7307 40.3268 48.1367C40.3341 48.3542 40.3825 48.4975 40.4719 48.5665C40.5758 48.6349 40.7155 48.6874 40.891 48.7239C41.3743 48.8496 41.6261 48.9992 41.6465 49.1726C41.6534 49.3756 41.3338 49.8024 40.688 50.4528C40.2107 50.9367 39.6446 51.5839 38.9896 52.3944C38.7263 52.7681 38.479 52.9668 38.2475 52.9907Z" fill="black"/>
</svg>
