<svg xmlns="http://www.w3.org/2000/svg" width="73" height="80" fill="none" viewBox="0 0 73 80"><path fill="#fff" d="M20.581 65.38c-.253.001-.938-.359-2.052-1.08l-2.463-1.431c-.294-.195-.44-.625-.442-1.289-.004-2.734 3.612-13.16 10.848-31.277l1.022-2.375c-.215.02-1.043 1.027-2.485 3.022a127.74 127.74 0 0 1-2.193 2.962c-1.87 2.445-3.207 3.668-4.008 3.669a.615.615 0 0 1-.322-.088 40.586 40.586 0 0 0-2.2-1.197c-1.055-.487-1.817-.954-2.287-1.403-.47-.448-.705-1.2-.706-2.255-.002-.956.162-2.334.491-4.131-.312.45-1.819 4.417-4.522 11.902a518.41 518.41 0 0 1-2.305 5.98c-1.906 4.866-3.152 7.3-3.738 7.3-.078.001-.147-.038-.205-.116C1.76 51.759.958 50.656.606 50.266c-.254-.331-.382-.536-.382-.614.33-1.349 2.897-8.345 7.7-20.99 3.27-8.012 5.528-12.196 6.778-12.55.332-.078 1.132-.655 2.4-1.731.428-.43.74-.646.936-.647.234 0 .371.293.411.879.1.683.285 1.034.559 1.053.37.039.556.107.557.205 0 .097-.049.224-.146.38a4.458 4.458 0 0 0-.263.587c-.097.254-.146.567-.145.938 0 .234.03.488.09.761.176.938.266 2.002.268 3.193.003 1.797-.16 4.122-.487 6.974-.077.703-.115 1.162-.115 1.377.527-.528 1.248-1.418 2.164-2.67 3.683-5.279 8.674-10.639 14.974-16.078.585-.587.985-.88 1.2-.881.254 0 .46.331.617.995.176.644.335 1.865.474 3.661.002 1.25-.444 2.96-1.34 5.13-.875 2.169-1.964 4.67-3.268 7.505-1.908 4.085-4.398 10.29-7.47 18.615-3.054 8.326-4.811 14.53-5.273 18.612 0 .274-.088.41-.264.41Zm30.515.352c-.625.023-1.32-1.612-2.086-4.907a8.42 8.42 0 0 1-.243-1.808c-.125-3.377 1.094-8.748 3.657-16.113l.473-1.483c-.032-.35-.81-.498-2.332-.442-1.503.056-3.158.234-4.964.535-2.505.444-3.83.825-3.975 1.143l-1.274 3.595c-.511 1.523-.76 2.451-.748 2.783.005.137.069.28.192.433.835.907 1.27 1.585 1.306 2.033a.928.928 0 0 1-.1.473c-.33.598-.728.916-1.196.953-.624.023-1.882.108-3.772.256a8.527 8.527 0 0 1-1.616-.087c-.53-.078-.81-.517-.84-1.318-.038-1.015.471-3.125 1.526-6.33-.001-.02.008-.04.027-.06.037-.04.055-.08.054-.119l-.033-.086a1.696 1.696 0 0 0-.493.135.964.964 0 0 1-.29.07c-.137.005-.238-.07-.302-.224l-1.126-2.714c-.47-1.058-.718-1.723-.748-1.995-.006-.176.115-.317.366-.424 1.973-1.09 3.473-1.74 4.5-1.955a3.44 3.44 0 0 0 .696-.23c.192-.105.5-.732.927-1.882 1.265-3.33 3.18-7.612 5.742-12.847 3.38-6.906 5.422-10.392 6.123-10.457.059-.002.302.233.73.706 1.121 1.268 1.857 2.14 2.207 2.616.349.456.53.87.544 1.24.011.313-.203.848-.645 1.607-.594.843-1.364 2.494-2.309 4.952-.032.177-.127.268-.283.274l-.293.011c-.488.018-1.664 2.026-3.53 6.023-1.794 3.819-2.686 5.874-2.675 6.167 1.87-.147 3.47-.245 4.797-.294 1.464-.054 2.578-.046 3.343.023.528.02.968.023 1.32.01.722-.026 1.194-.21 1.416-.55.222-.34.482-.956.782-1.847.911-2.848 3.005-7.547 6.282-14.098 2.384-4.779 3.719-7.261 4.005-7.448.093-.14.178-.211.256-.214.215-.008 1.68.514 4.397 1.567.139.054.212.178.219.373.024.664-.961 2.83-2.956 6.5-1.335 2.492-2.865 5.52-4.59 9.082-4.213 8.735-7.258 17.584-9.136 26.546-.389 1.656-.573 2.757-.553 3.304.011.292.077.485.197.579.14.092.329.163.565.213.652.172.991.374 1.02.608.01.273-.419.846-1.286 1.718-.64.65-1.4 1.518-2.278 2.605-.353.502-.685.768-.997.8Z"/></svg>