<svg xmlns="http://www.w3.org/2000/svg" width="960" height="960" fill="none" viewBox="0 0 960 960"><g clip-path="url(#a)"><mask id="b" width="960" height="960" x="0" y="0" maskUnits="userSpaceOnUse" style="mask-type:luminance"><path fill="#fff" d="M960 0H0v960h960V0Z"/></mask><g mask="url(#b)"><mask id="c" width="884" height="717" x="38" y="122" maskUnits="userSpaceOnUse" style="mask-type:luminance"><path fill="#fff" d="M922 122H38v717h884V122Z"/></mask><g mask="url(#c)"><path fill="#fff" fill-rule="evenodd" d="M530.527 771.954c-15.688-18.571-19.18-46.681-8.288-68.454l-.211-.109c.011-.023.011-.057.022-.078l-1.629-.51c-18.438 6.758-37.021 13.562-56.421 16.62a121.607 121.607 0 0 1-28.351 1.284 86.347 86.347 0 0 1-29.407-7.28c-24.399-11.158-41.752-35.8-45.352-62.393a59.623 59.623 0 0 1-.244-2.006c-2.858-25.972 6.837-52.852 24.787-71.878 18.415-19.512 44.953-30.736 71.767-31.789l-31.735 100.82.033 1.407c54.279-1.14 108.4-2.522 162.551-3.906 16.342-.418 32.686-.835 49.038-1.246l-.055-2.382c-.787-2.349-27.313-86.437-27.313-86.437 40.698 5.252 82.67-3.446 119.279-21.994 36.609-18.548 67.956-46.648 92.72-79.368 25.382-33.54 44.248-72.557 50.763-114.114 6.515-41.557.111-85.667-21.418-121.8-4.31-7.246-9.662-14.515-17.529-17.584a23.507 23.507 0 0 0-7.058-1.529c-8.625-.554-17.633 3.18-25.6 7.224-6.848 3.474-13.917 7.574-18.726 13.374a26.176 26.176 0 0 0-4.133 6.792c-4.358 10.649-.465 22.353 3.248 33.515.544 1.636 1.085 3.26 1.594 4.867 13.074 41.255 5.195 87.91-18.018 124.431s-60.792 62.958-102.127 75.745c-41.335 12.787-85.063 12.421-127.135 2.316l-.344.011c.173 5.797 1.886 11.509 3.592 17.195.599 1.997 1.197 3.991 1.727 5.985a93.648 93.648 0 0 1 3.047 27.413c-.121 3.002-.83 6.626-3.656 7.634-2.758.975-5.561-1.252-7.5-3.435-14.205-16.011-18.681-38.227-21.551-59.435-.122-.86-.233-1.725-.344-2.6l-.587.078c-37.806 5.241-75.257 15.125-109.185 32.62-33.928 17.495-64.266 42.891-84.454 75.279-15.701 25.175-24.931 54.704-25.086 84.266a137.812 137.812 0 0 0 2.15 25.307c6.77 37.562 30.681 72.399 64.908 89.274 13.917 6.859 28.964 10.67 44.343 12.986 10.526 1.585 21.218 2.471 31.811 3.147 32.642 2.105 66.216 2.449 97.185-7.989a39.899 39.899 0 0 1-1.108-1.274Zm307.384-558.313a1.661 1.661 0 1 0-2.766 1.843c23.482 35.233 28.771 80.629 20.638 122.4-8.135 41.772-28.652 80.307-53.183 115.329a1.663 1.663 0 0 0 2.722 1.907c24.669-35.218 45.465-74.193 53.723-116.601 8.259-42.409 2.946-88.749-21.134-124.878Z" clip-rule="evenodd"/><path fill="#171717" fill-rule="evenodd" d="M505.774 350.67a114.211 114.211 0 0 0 58.449-27.357l2.852.736a74.785 74.785 0 0 1 15.59 58.592l1.276.211c14.714-14.282 25.341-33.185 27.9-53.551 2.559-20.366-3.424-42.042-17.518-56.942-18.571-19.635-48.776-25.164-75.036-18.848-26.26 6.316-48.997 22.914-68.066 42.05-3.848 3.859-7.616 7.863-11.39 11.873-13.997 14.87-28.079 29.832-46.615 37.878-14.763 6.406-30.936 7.771-47.097 9.134-5.951.502-11.901 1.004-17.778 1.758-42.371 5.441-83.908 25.795-109.108 60.288-11.175 15.302-18.806 32.723-26.441 50.152-7.232 16.508-14.466 33.023-24.717 47.753-27.967 40.199-78.613 63.379-127.313 58.293l-.078.72c60.113 30.404 134.371 18.77 183.113-27.723 10.996-10.491 20.524-22.487 30.031-34.456 13.57-17.084 27.098-34.115 44.794-46.644a115.386 115.386 0 0 1 53.695-20.4c17.369-1.914 34.76.155 52.178 2.227 8.601 1.023 17.207 2.047 25.822 2.593 26.061 1.651 54.615-2.138 73.108-20.565l2.36-.521c-2.194-10.116-5.36-19.9-10.56-28.842l-1.418-.809c9.817-13.407 14.515-30.659 12.033-47.124l-.066-.476Zm53.89-90.083c-28.602-8.532-59.084 5.529-81.569 24.179-9.92 8.228-18.978 17.441-27.961 26.578l-.001.001c-1.201 1.221-2.401 2.441-3.601 3.657-10.204 10.341-20.465 20.42-32.063 28.885a1.663 1.663 0 0 0 1.96 2.685c11.836-8.639 22.262-18.891 32.469-29.235 1.205-1.221 2.408-2.444 3.608-3.665 8.997-9.149 17.93-18.234 27.711-26.347 22.181-18.398 51.499-31.606 78.497-23.553a56.183 56.183 0 0 1 37.889 69.513 1.663 1.663 0 0 0 3.192.927 59.504 59.504 0 0 0-40.131-73.625Z" clip-rule="evenodd"/><path fill="#fff" d="M741.451 688.685c3.158 2.416 1.762 7.4.022 10.981a326.614 326.614 0 0 1-22.415 38.893l-.709-.476a14.43 14.43 0 0 0-13.019-8.842l-.787-.577a227387.18 227387.18 0 0 1 25.463-34.858 17.7 17.7 0 0 1 4.831-5.03c2.004-1.21 4.752-1.51 6.614-.091Z"/><path fill="#fff" d="m718.348 738.081.709.476a328.066 328.066 0 0 1-13.252 18.349c-3.945 5.1-11.2 12.277-17.463 5.884-6.427-6.537 2.172-14.936 6.061-20.255 3.379-4.62 6.759-9.244 10.138-13.873l.787.576a14.442 14.442 0 0 1 13.02 8.843Z"/><path stroke="#171717" stroke-linecap="round" stroke-linejoin="round" stroke-width="3.324" d="M542.15 383.324c1.23 1.895 4.321 1.839 5.928.244a6.666 6.666 0 0 0 1.307-6.371 22.385 22.385 0 0 0-3.08-6.039 15.906 15.906 0 0 1-2.681-6.194m-10.35 39.424a9.753 9.753 0 0 1-10.415-1.618"/><path stroke="#171717" stroke-linecap="round" stroke-linejoin="round" stroke-width="3.324" d="M495.227 399.08c5.2 8.942 8.366 18.726 10.56 28.842 2.172 9.95 3.424 20.222 4.764 30.338.111.875.222 1.74.344 2.6 2.87 21.208 7.346 43.424 21.551 59.435 1.939 2.183 4.742 4.41 7.5 3.435 2.826-1.008 3.535-4.632 3.656-7.634a93.716 93.716 0 0 0-3.047-27.413c-2.039-7.668-5.086-15.346-5.319-23.179-.044-1.327 0-2.656.133-3.978.886-8.643 5.839-16.366 11.656-22.826 5.817-6.46 12.6-12 18.282-18.582a75.097 75.097 0 0 0 1.762-96.077"/><path stroke="#171717" stroke-linecap="round" stroke-linejoin="round" stroke-width="3.324" d="M564.478 352.831a11.16 11.16 0 0 0-14.138.82m-19.523 4.641a11.566 11.566 0 0 0-14.715.233m-31.801-6.792a105.4 105.4 0 0 0 21.474-1.064 114.216 114.216 0 0 0 58.449-27.357 106.124 106.124 0 0 0 15.324-16.82m-101.12 106.607a61.53 61.53 0 0 0 15.379-14.825c9.817-13.407 14.515-30.659 12.033-47.124"/><path stroke="#171717" stroke-linecap="round" stroke-linejoin="round" stroke-width="3.324" d="M583.934 382.846c14.715-14.283 25.33-33.2 27.9-53.551 2.57-20.351-3.424-42.039-17.518-56.942-18.571-19.634-48.775-25.174-75.036-18.848-26.261 6.326-49 22.914-68.066 42.05-18.116 18.172-34.471 39.534-58 49.751-20.2 8.764-43.036 8.089-64.875 10.892-42.371 5.44-83.911 25.8-109.108 60.288-21.762 29.795-30.083 67.623-51.158 97.905-27.967 40.2-78.615 63.379-127.313 58.293-.2-.011-.4-.033-.6-.055"/><path stroke="#171717" stroke-linecap="round" stroke-linejoin="round" stroke-width="3.324" d="M503.425 428.442c-18.493 18.427-47.047 22.216-73.108 20.565-26.061-1.651-52.055-7.679-78-4.82a115.397 115.397 0 0 0-53.695 20.4c-30.094 21.307-48.133 55.634-74.825 81.1-48.742 46.493-123 58.127-183.113 27.723m469.277-115.073c-37.806 5.241-75.268 15.125-109.185 32.62-33.917 17.495-64.266 42.892-84.454 75.279-15.7 25.174-24.931 54.7-25.086 84.266a137.805 137.805 0 0 0 2.15 25.307c6.77 37.562 30.681 72.4 64.908 89.274 13.917 6.859 28.964 10.67 44.343 12.986 10.526 1.584 21.219 2.471 31.811 3.147 32.643 2.105 66.216 2.449 97.185-7.989.632-.211 1.263-.421 1.884-.643"/><path stroke="#171717" stroke-linecap="round" stroke-linejoin="round" stroke-width="3.324" d="M531.789 773.405a2.393 2.393 0 0 1-.155-.177 39.899 39.899 0 0 1-1.108-1.274c-15.69-18.571-19.18-46.681-8.288-68.454"/><path stroke="#171717" stroke-linecap="round" stroke-linejoin="round" stroke-width="3.324" d="M564.954 747.92c9.485-2.227 18.97-4.458 28.454-6.693 3.368-.787 7.291-1.463 9.972.72 3 2.438 2.659 7.413.288 10.46-2.371 3.047-6.15 4.62-9.784 5.939-19.7 7.147-42.271 13.817-63.224 13.5"/><path stroke="#171717" stroke-linecap="round" stroke-linejoin="round" stroke-width="3.324" d="M564.953 747.921a172.38 172.38 0 0 1-13.717 3.224l13.717-3.224Z"/><path stroke="#171717" stroke-linecap="round" stroke-linejoin="round" stroke-width="3.324" d="M562.404 727.011c7.501-2.914 15.006-5.828 22.515-8.742 6.05-2.349 14.172-4.155 17.983 1.1 2.46 3.391 1.562 8.355-1 11.668-2.562 3.313-6.438 5.3-10.238 7.058a175.948 175.948 0 0 1-26.715 9.828"/><path stroke="#171717" stroke-linecap="round" stroke-linejoin="round" stroke-width="3.324" d="M562.406 727.012a140.62 140.62 0 0 1-12.9 5.008c4.301-1.661 8.601-3.33 12.9-5.008Zm-40.377-23.623c.011-.022.011-.055.022-.078a44.063 44.063 0 0 1 14.382-21.6c2.2-1.806 5.33-3.413 7.756-1.917 2.061 1.274 2.393 4.089 2.382 6.515a69.867 69.867 0 0 1-6.061 28.2 95.598 95.598 0 0 1 45.2-21.7c4.676-.853 10.67-.72 12.72 3.557 2.172 4.532-2.006 9.44-5.95 12.543a141.448 141.448 0 0 1-30.08 18.103m213.955-575.277a413.968 413.968 0 0 1-2.216-5.2c-1.385-3.291-2.748-6.7-2.826-10.271-.078-3.571 1.407-7.413 4.521-9.152 3.734-2.083 8.632-.532 11.668 2.46 3.036 2.992 4.644 7.114 6.162 11.1 5.186 13.606 10.371 27.22 15.556 40.842l-13.728-36.4c-1.5-3.978-3.026-8.166-2.483-12.377.543-4.211 3.911-8.41 8.166-8.31 4.709.122 7.723 4.953 9.662 9.252a182.112 182.112 0 0 1 15.69 62.67"/><path stroke="#171717" stroke-linecap="round" stroke-linejoin="round" stroke-width="3.324" d="M776.355 151.734c6.427 10.958 11.49 22.792 16.476 34.5a515.11 515.11 0 0 1-16.476-34.5Zm5.627 65.966a133.953 133.953 0 0 1-34.571-10.781c-3.269-1.529-6.925-3.878-6.958-7.49-.022-2.515 1.917-4.72 4.211-5.751a16.874 16.874 0 0 1 7.4-1.03 81.186 81.186 0 0 1 29.3 6.316c-12.964-16.5-26.371-33.961-29.706-54.681-.753-4.632-.177-10.637 4.233-12.21 4.089-1.452 8.133 2.105 10.837 5.5a121.183 121.183 0 0 1 9.629 14.172m-71.814 576.918c-3.379 4.62-6.758 9.244-10.138 13.873-3.889 5.319-12.487 13.717-6.061 20.255 6.26 6.393 13.518-.787 17.463-5.884a323.095 323.095 0 0 0 13.252-18.349 326.248 326.248 0 0 0 22.415-38.892c1.74-3.579 3.136-8.565-.022-10.981-1.861-1.418-4.609-1.119-6.615.089a17.753 17.753 0 0 0-4.831 5.03c-8.488 11.624-16.976 23.244-25.463 34.859Z"/><path stroke="#171717" stroke-linecap="round" stroke-linejoin="round" stroke-width="3.324" d="M718.349 738.081a14.438 14.438 0 0 0-13.019-8.842m-17.773 20.343c-2.7.089-4.72-2.837-4.643-5.54.077-2.703 1.629-5.1 3.191-7.3a119.141 119.141 0 0 1 14.072-16.343m-63.147-80.345c-.787-2.349-27.313-86.437-27.313-86.437 40.7 5.252 82.67-3.446 119.279-21.994 36.609-18.548 67.955-46.648 92.72-79.368 25.385-33.54 44.244-72.565 50.759-114.116 6.515-41.551.111-85.662-21.418-121.8-4.31-7.247-9.662-14.515-17.529-17.584a23.446 23.446 0 0 0-7.058-1.529c-8.62-.554-17.629 3.18-25.6 7.224-6.848 3.479-13.917 7.579-18.726 13.374a26.193 26.193 0 0 0-4.133 6.792c-5 12.21.853 25.806 4.842 38.382 13.075 41.252 5.186 87.911-18.017 124.432s-60.786 62.958-102.127 75.745c-41.341 12.787-85.059 12.425-127.131 2.325M425.465 646.181l31.736-100.82c-26.814 1.053-53.352 12.277-71.767 31.789-17.95 19.025-27.645 45.906-24.787 71.878.066.665.155 1.341.244 2.006 3.6 26.593 20.953 51.235 45.352 62.393a86.324 86.324 0 0 0 29.407 7.28c9.468.68 18.983.249 28.351-1.285 19.4-3.058 37.983-9.861 56.421-16.62"/><path stroke="#171717" stroke-linecap="round" stroke-linejoin="round" stroke-width="3.324" d="m774.682 639.267 145.484 197.097-847.055-10.161L234.23 651.777"/><path stroke="#171717" stroke-linecap="round" stroke-linejoin="round" stroke-width="3.324" d="M362.771 648.808c20.942-.366 41.851-.773 62.726-1.219 70.659-1.485 141.052-3.379 211.589-5.152a32092.71 32092.71 0 0 1 137.6-3.169m-540.457 12.509c19.224.2 36.953-2.017 55.656-1.285m98.427 154.591 266.702-2.349-28.155-140.786H468.09"/><path stroke="#171717" stroke-linecap="round" stroke-linejoin="round" stroke-width="3.324" d="M402.583 779.455c-5.086 7.7-9.518 16.565-14.271 25.629m79.777-143.136c-6.327 11.08-11.867 22.161-18.515 34.349-5.54 7.756-8.864 16.62-13.873 23.745m-1.158-100.956c6.853 11.2 21.758 15.162 34.745 13.2 12.987-1.962 24.7-8.619 36.429-14.526 11.729-5.907 24.41-11.28 37.51-10.34 10.268.737 19.833 5.3 28.968 10.044 9.135 4.744 18.319 9.825 28.432 11.749 10.113 1.924 21.565.134 28.725-7.262"/><path stroke="#171717" stroke-linecap="round" stroke-linejoin="round" stroke-width="3.324" d="M438.434 606.621c8.627 10.549 24.438 12.364 37.636 8.972 13.198-3.392 24.883-10.939 37.35-16.44 13.271-5.856 28.233-9.421 42.31-5.919 8.178 2.034 15.584 6.324 22.892 10.52s14.779 8.4 23 10.238c8.221 1.838 17.453 1 24.108-4.175"/><path stroke="#171717" stroke-linecap="round" stroke-linejoin="round" stroke-width="3.324" d="M443.029 592.123c10.136 8.121 24.56 8.806 37.162 5.661 12.602-3.145 24.078-9.6 36.019-14.712 11.941-5.112 25.091-8.934 37.829-6.4 7.849 1.565 15.017 5.446 21.975 9.4 6.958 3.954 13.943 8.079 21.659 10.2 7.716 2.121 16.413 2.032 23.245-2.136m160.57-336.271a91.908 91.908 0 0 1 74.6-30.575"/><path stroke="#171717" stroke-linecap="round" stroke-linejoin="round" stroke-width="3.324" d="M786.107 272.222a68.733 68.733 0 0 1 76.329-29.533M492.971 712.661a70.78 70.78 0 0 0 17.9 64.5M480.5 716.962a71.568 71.568 0 0 0 14.693 63.323M621.154 280.3l21.228-21.009m-1.313 25.053-18.807-26.567m-199.15 39.85-14.128-11.934m-.623 14.691 12.665-16.571m14.925-32.947-2.959-13.8m-7.48 9.9 16.214-5.585m329.92 290.08a290.788 290.788 0 0 0 65.755-62.593m-647.253-31.246a123.698 123.698 0 0 1 44.469-64.022M134.9 607.208a107.668 107.668 0 0 0 65.609-23.585"/><path fill="#fff" d="M617.441 207.478a12.43 12.43 0 0 0 3.1-3.915 5.132 5.132 0 0 0-.152-4.821c-1.369-2.086-4.339-2.37-6.788-1.891a17.178 17.178 0 0 0-11.016 7.471c1.449-3.779 1.869-8.162.1-11.8s-6.138-6.145-9.991-4.907c-3.6 1.155-5.7 5.118-5.827 8.893-.127 3.775 1.3 7.413 2.774 10.889 2.66 6.257 3.821 14.406 6.683 13.264 6.268-2.503 16.166-8.595 21.117-13.183Z"/><path fill="#171717" d="m542.585 211.02 10.242-1.865a.65.65 0 0 1 .77.693.652.652 0 0 1-.145.365l-6.569 8.076a.65.65 0 0 0-.068.724l4.939 9.164a.653.653 0 0 1-.813.922l-9.711-3.752a.655.655 0 0 0-.71.159l-7.19 7.529a.654.654 0 0 1-1.128-.488l.568-10.4a.656.656 0 0 0-.37-.626l-9.383-4.511a.661.661 0 0 1-.368-.652.654.654 0 0 1 .484-.571l10.062-2.673a.65.65 0 0 0 .481-.545l1.391-10.317a.66.66 0 0 1 .507-.553.655.655 0 0 1 .693.285l5.651 8.743a.66.66 0 0 0 .667.293Z"/><path stroke="#171717" stroke-linecap="round" stroke-linejoin="round" stroke-width="3.324" d="M319.899 213.111c-8.74-34.235-49.563-56.333-83.006-44.931-33.443 11.402-52.266 53.834-38.273 86.279 4.119 9.55 12.091 18.884 22.489 19.071 16.067.29 23.38-24.309 12.019-35.673-11.361-11.364-31.794-8.515-43.477 2.518-11.683 11.033-16.223 27.674-17.879 43.658-1.656 15.984-.965 32.274-4.536 47.941-3.571 15.667-12.491 31.308-27.328 37.478m707.906-39.912-7.039-9.386M807.926 388.2a31.488 31.488 0 0 1 11.732-10.559m-10.558-32.85-5.866-8.212m-29.156 138.342-5.906-10.536m-33.207-18.959 12.692-10.809m36.804-5.354-2.346-14.078m-79.779 106.761 9.386-15.252m-45.755-12.904-14.078-4.69m-29.328 49.271 7.039-12.9m-46.93-23.472a28.9 28.9 0 0 0-12.899-8.212m-4.699 61.012 7.039-10.559m-76.259 10.56-7.04-8.212m-22.291-42.24 11.732-14.078m-62.118 38.685A13.55 13.55 0 0 0 406.68 522m-58.711 56.225 8.984-15.485m-14.792 76.527-8.212-8.212m-27.115-12.998 8.145-11.779m23.665 86.956-8.212 12.9m35.194 22.297-8.212-9.386m67.01 24.775 8.235-8.19m-30.66 26.823-8.212-7.039M499.07 460.173c1.72 22.163 6.253 44.958 19.366 62.909 3.334 4.565 7.334 8.864 12.484 11.2 5.15 2.336 11.646 2.328 16.08-1.182 3.489-2.762 5.233-7.272 5.6-11.706.367-4.434-.466-8.871-1.3-13.242-2.533-13.254-5.064-26.507-7.592-39.76"/><path fill="#171717" d="M563.929 322.665c-3.638 2.784-6.5 6.4-9.968 9.4a76.631 76.631 0 0 1-12.767 8.456 83.78 83.78 0 0 1-28.031 9.58l4.761 1.259-1.463-1.181c-4.394-3.546-12.615-1.723-12.225 5.064.4 6.958.68 14.066-.812 20.921a41.5 41.5 0 0 1-3.22 9.6c-1.761 3.553-4.452 6.549-5.383 10.452-1.759 7.374 6.311 14.446 13.221 10.164 7.964-4.937 11.838-17.259 13.277-26.1 1.612-9.9.867-19.638-3.738-28.656v7.229l1.108-1.567-2.924 2.248a79.641 79.641 0 0 0 29.662-11.775 75.818 75.818 0 0 0 11.429-9.525c3.738-3.7 8.054-7.573 10.152-12.49.75-1.759-1.045-4.635-3.079-3.079ZM438.474 646.549c8.766-15.851 14.89-33.887 20.9-50.936a513.235 513.235 0 0 0 15.434-52.628c1.447-6.128-2.808-11.322-8.924-11.714-16.418-1.054-35.158 1.717-49.682 9.883-7.232 4.066-14.474 8.114-21.092 13.16-6.308 4.812-11.9 11.137-17.07 17.172a109.079 109.079 0 0 0-22.692 43.543 84.36 84.36 0 0 0-2.388 24.962c.197 4.05.597 8.089 1.2 12.1.595 4.119.726 7.752 3.2 11.2 1.181 1.645 4.094 1.686 4.627-.605.9-3.856.036-6.933-.163-10.842-.16-3.687-.097-7.38.187-11.059a133.644 133.644 0 0 1 4.038-22.8 94.177 94.177 0 0 1 20.251-39.357c4.935-5.613 10.711-9.525 16.861-13.614 5.962-3.964 12.227-7.488 19.142-9.391 6.932-1.908 13.909-4.565 21.106-5.313a133.705 133.705 0 0 1 22.476-.531l-8.924-11.714c-4.163 17.46-8.9 34.842-14.3 51.961s-12.619 33.6-18.153 50.636c-2.68 8.249 9.789 13.438 13.965 5.887h.001Zm-144.536 5.496c-1.707 4.007-3.069 6.683-3 11.166.069 4.653.166 9.223.688 13.852 1.065 9.444 4.177 18.23 8.03 26.884 7.48 17 18.68 32.105 32.774 44.2 31.025 26.42 72.963 37.57 113.081 38.148 25.309.365 50.635-3.34 75.309-8.727 6.037-1.317 9.562-8.344 7.989-14.069-1.713-6.232-8.015-9.31-14.07-7.989-37.374 8.159-76.906 11.895-114.4 2.361-31.728-8.067-63.4-26.192-81.721-54.075-5.18-7.884-8.816-16.139-12.216-24.886-1.608-4.135-3.132-8.272-4.412-12.522-.674-2.235-.883-4.547-1.37-6.822-.579-2.707-2.022-4.5-3.081-7.048-.553-1.328-2.849-2.23-3.6-.471l-.001-.002Z" opacity=".1"/></g></g><mask id="d" width="960" height="960" x="0" y="0" maskUnits="userSpaceOnUse" style="mask-type:luminance"><path fill="#fff" d="M960 0H0v960h960V0Z"/></mask><g mask="url(#d)"><mask id="e" width="884" height="717" x="38" y="122" maskUnits="userSpaceOnUse" style="mask-type:luminance"><path fill="#fff" d="M922 122H38v717h884V122Z"/></mask><g mask="url(#e)"><path fill="#fff" fill-rule="evenodd" d="M530.527 771.954c-15.688-18.571-19.18-46.681-8.288-68.454l-.211-.109c.011-.023.011-.057.022-.078l-1.629-.51c-18.438 6.758-37.021 13.562-56.421 16.62a121.607 121.607 0 0 1-28.351 1.284 86.347 86.347 0 0 1-29.407-7.28c-24.399-11.158-41.752-35.8-45.352-62.393a59.623 59.623 0 0 1-.244-2.006c-2.858-25.972 6.837-52.852 24.787-71.878 18.415-19.512 44.953-30.736 71.767-31.789l-31.735 100.82.033 1.407c54.279-1.14 108.4-2.522 162.551-3.906 16.342-.418 32.686-.835 49.038-1.246l-.055-2.382c-.787-2.349-27.313-86.437-27.313-86.437 40.698 5.252 82.67-3.446 119.279-21.994 36.609-18.548 67.956-46.648 92.72-79.368 25.382-33.54 44.248-72.557 50.763-114.114 6.515-41.557.111-85.667-21.418-121.8-4.31-7.246-9.662-14.515-17.529-17.584a23.507 23.507 0 0 0-7.058-1.529c-8.625-.554-17.633 3.18-25.6 7.224-6.848 3.474-13.917 7.574-18.726 13.374a26.176 26.176 0 0 0-4.133 6.792c-4.358 10.649-.465 22.353 3.248 33.515.544 1.636 1.085 3.26 1.594 4.867 13.074 41.255 5.195 87.91-18.018 124.431s-60.792 62.958-102.127 75.745c-41.335 12.787-85.063 12.421-127.135 2.316l-.344.011c.173 5.797 1.886 11.509 3.592 17.195.599 1.997 1.197 3.991 1.727 5.985a93.648 93.648 0 0 1 3.047 27.413c-.121 3.002-.83 6.626-3.656 7.634-2.758.975-5.561-1.252-7.5-3.435-14.205-16.011-18.681-38.227-21.551-59.435-.122-.86-.233-1.725-.344-2.6l-.587.078c-37.806 5.241-75.257 15.125-109.185 32.62-33.928 17.495-64.266 42.891-84.454 75.279-15.701 25.175-24.931 54.704-25.086 84.266a137.812 137.812 0 0 0 2.15 25.307c6.77 37.562 30.681 72.399 64.908 89.274 13.917 6.859 28.964 10.67 44.343 12.986 10.526 1.585 21.218 2.471 31.811 3.147 32.642 2.105 66.216 2.449 97.185-7.989a39.899 39.899 0 0 1-1.108-1.274Zm307.384-558.313a1.661 1.661 0 1 0-2.766 1.843c23.482 35.233 28.771 80.629 20.638 122.4-8.135 41.772-28.652 80.307-53.183 115.329a1.663 1.663 0 0 0 2.722 1.907c24.669-35.218 45.465-74.193 53.723-116.601 8.259-42.409 2.946-88.749-21.134-124.878Z" clip-rule="evenodd"/><path fill="#171717" fill-rule="evenodd" d="M505.774 350.67a114.211 114.211 0 0 0 58.449-27.357l2.852.736a74.785 74.785 0 0 1 15.59 58.592l1.276.211c14.714-14.282 25.341-33.185 27.9-53.551 2.559-20.366-3.424-42.042-17.518-56.942-18.571-19.635-48.776-25.164-75.036-18.848-26.26 6.316-48.997 22.914-68.066 42.05-3.848 3.859-7.616 7.863-11.39 11.873-13.997 14.87-28.079 29.832-46.615 37.878-14.763 6.406-30.936 7.771-47.097 9.134-5.951.502-11.901 1.004-17.778 1.758-42.371 5.441-83.908 25.795-109.108 60.288-11.175 15.302-18.806 32.723-26.441 50.152-7.232 16.508-14.466 33.023-24.717 47.753-27.967 40.199-78.613 63.379-127.313 58.293l-.078.72c60.113 30.404 134.371 18.77 183.113-27.723 10.996-10.491 20.524-22.487 30.031-34.456 13.57-17.084 27.098-34.115 44.794-46.644a115.386 115.386 0 0 1 53.695-20.4c17.369-1.914 34.76.155 52.178 2.227 8.601 1.023 17.207 2.047 25.822 2.593 26.061 1.651 54.615-2.138 73.108-20.565l2.36-.521c-2.194-10.116-5.36-19.9-10.56-28.842l-1.418-.809c9.817-13.407 14.515-30.659 12.033-47.124l-.066-.476Zm53.89-90.083c-28.602-8.532-59.084 5.529-81.569 24.179-9.92 8.228-18.978 17.441-27.961 26.578l-.001.001c-1.201 1.221-2.401 2.441-3.601 3.657-10.204 10.341-20.465 20.42-32.063 28.885a1.663 1.663 0 0 0 1.96 2.685c11.836-8.639 22.262-18.891 32.469-29.235 1.205-1.221 2.408-2.444 3.608-3.665 8.997-9.149 17.93-18.234 27.711-26.347 22.181-18.398 51.499-31.606 78.497-23.553a56.183 56.183 0 0 1 37.889 69.513 1.663 1.663 0 0 0 3.192.927 59.504 59.504 0 0 0-40.131-73.625Z" clip-rule="evenodd"/><path fill="#fff" d="M741.451 688.685c3.158 2.416 1.762 7.4.022 10.981a326.614 326.614 0 0 1-22.415 38.893l-.709-.476a14.43 14.43 0 0 0-13.019-8.842l-.787-.577a227387.18 227387.18 0 0 1 25.463-34.858 17.7 17.7 0 0 1 4.831-5.03c2.004-1.21 4.752-1.51 6.614-.091Z"/><path fill="#fff" d="m718.348 738.081.709.476a328.066 328.066 0 0 1-13.252 18.349c-3.945 5.1-11.2 12.277-17.463 5.884-6.427-6.537 2.172-14.936 6.061-20.255 3.379-4.62 6.759-9.244 10.138-13.873l.787.576a14.442 14.442 0 0 1 13.02 8.843Z"/><path stroke="#171717" stroke-linecap="round" stroke-linejoin="round" stroke-width="3.324" d="M542.15 383.324c1.23 1.895 4.321 1.839 5.928.244a6.666 6.666 0 0 0 1.307-6.371 22.385 22.385 0 0 0-3.08-6.039 15.906 15.906 0 0 1-2.681-6.194m-10.35 39.424a9.753 9.753 0 0 1-10.415-1.618"/><path stroke="#171717" stroke-linecap="round" stroke-linejoin="round" stroke-width="3.324" d="M495.227 399.08c5.2 8.942 8.366 18.726 10.56 28.842 2.172 9.95 3.424 20.222 4.764 30.338.111.875.222 1.74.344 2.6 2.87 21.208 7.346 43.424 21.551 59.435 1.939 2.183 4.742 4.41 7.5 3.435 2.826-1.008 3.535-4.632 3.656-7.634a93.716 93.716 0 0 0-3.047-27.413c-2.039-7.668-5.086-15.346-5.319-23.179-.044-1.327 0-2.656.133-3.978.886-8.643 5.839-16.366 11.656-22.826 5.817-6.46 12.6-12 18.282-18.582a75.097 75.097 0 0 0 1.762-96.077"/><path stroke="#171717" stroke-linecap="round" stroke-linejoin="round" stroke-width="3.324" d="M564.478 352.831a11.16 11.16 0 0 0-14.138.82m-19.523 4.641a11.566 11.566 0 0 0-14.715.233m-31.801-6.792a105.4 105.4 0 0 0 21.474-1.064 114.216 114.216 0 0 0 58.449-27.357 106.124 106.124 0 0 0 15.324-16.82m-101.12 106.607a61.53 61.53 0 0 0 15.379-14.825c9.817-13.407 14.515-30.659 12.033-47.124"/><path stroke="#171717" stroke-linecap="round" stroke-linejoin="round" stroke-width="3.324" d="M583.934 382.846c14.715-14.283 25.33-33.2 27.9-53.551 2.57-20.351-3.424-42.039-17.518-56.942-18.571-19.634-48.775-25.174-75.036-18.848-26.261 6.326-49 22.914-68.066 42.05-18.116 18.172-34.471 39.534-58 49.751-20.2 8.764-43.036 8.089-64.875 10.892-42.371 5.44-83.911 25.8-109.108 60.288-21.762 29.795-30.083 67.623-51.158 97.905-27.967 40.2-78.615 63.379-127.313 58.293-.2-.011-.4-.033-.6-.055"/><path stroke="#171717" stroke-linecap="round" stroke-linejoin="round" stroke-width="3.324" d="M503.425 428.442c-18.493 18.427-47.047 22.216-73.108 20.565-26.061-1.651-52.055-7.679-78-4.82a115.397 115.397 0 0 0-53.695 20.4c-30.094 21.307-48.133 55.634-74.825 81.1-48.742 46.493-123 58.127-183.113 27.723m469.277-115.073c-37.806 5.241-75.268 15.125-109.185 32.62-33.917 17.495-64.266 42.892-84.454 75.279-15.7 25.174-24.931 54.7-25.086 84.266a137.805 137.805 0 0 0 2.15 25.307c6.77 37.562 30.681 72.4 64.908 89.274 13.917 6.859 28.964 10.67 44.343 12.986 10.526 1.584 21.219 2.471 31.811 3.147 32.643 2.105 66.216 2.449 97.185-7.989.632-.211 1.263-.421 1.884-.643"/><path stroke="#171717" stroke-linecap="round" stroke-linejoin="round" stroke-width="3.324" d="M531.789 773.405a2.393 2.393 0 0 1-.155-.177 39.899 39.899 0 0 1-1.108-1.274c-15.69-18.571-19.18-46.681-8.288-68.454"/><path stroke="#171717" stroke-linecap="round" stroke-linejoin="round" stroke-width="3.324" d="M564.954 747.92c9.485-2.227 18.97-4.458 28.454-6.693 3.368-.787 7.291-1.463 9.972.72 3 2.438 2.659 7.413.288 10.46-2.371 3.047-6.15 4.62-9.784 5.939-19.7 7.147-42.271 13.817-63.224 13.5"/><path stroke="#171717" stroke-linecap="round" stroke-linejoin="round" stroke-width="3.324" d="M564.953 747.921a172.38 172.38 0 0 1-13.717 3.224l13.717-3.224Z"/><path stroke="#171717" stroke-linecap="round" stroke-linejoin="round" stroke-width="3.324" d="M562.404 727.011c7.501-2.914 15.006-5.828 22.515-8.742 6.05-2.349 14.172-4.155 17.983 1.1 2.46 3.391 1.562 8.355-1 11.668-2.562 3.313-6.438 5.3-10.238 7.058a175.948 175.948 0 0 1-26.715 9.828"/><path stroke="#171717" stroke-linecap="round" stroke-linejoin="round" stroke-width="3.324" d="M562.406 727.012a140.62 140.62 0 0 1-12.9 5.008c4.301-1.661 8.601-3.33 12.9-5.008Zm-40.377-23.623c.011-.022.011-.055.022-.078a44.063 44.063 0 0 1 14.382-21.6c2.2-1.806 5.33-3.413 7.756-1.917 2.061 1.274 2.393 4.089 2.382 6.515a69.867 69.867 0 0 1-6.061 28.2 95.598 95.598 0 0 1 45.2-21.7c4.676-.853 10.67-.72 12.72 3.557 2.172 4.532-2.006 9.44-5.95 12.543a141.448 141.448 0 0 1-30.08 18.103m213.955-575.277a413.968 413.968 0 0 1-2.216-5.2c-1.385-3.291-2.748-6.7-2.826-10.271-.078-3.571 1.407-7.413 4.521-9.152 3.734-2.083 8.632-.532 11.668 2.46 3.036 2.992 4.644 7.114 6.162 11.1 5.186 13.606 10.371 27.22 15.556 40.842l-13.728-36.4c-1.5-3.978-3.026-8.166-2.483-12.377.543-4.211 3.911-8.41 8.166-8.31 4.709.122 7.723 4.953 9.662 9.252a182.112 182.112 0 0 1 15.69 62.67"/><path stroke="#171717" stroke-linecap="round" stroke-linejoin="round" stroke-width="3.324" d="M776.355 151.734c6.427 10.958 11.49 22.792 16.476 34.5a515.11 515.11 0 0 1-16.476-34.5Zm5.627 65.966a133.953 133.953 0 0 1-34.571-10.781c-3.269-1.529-6.925-3.878-6.958-7.49-.022-2.515 1.917-4.72 4.211-5.751a16.874 16.874 0 0 1 7.4-1.03 81.186 81.186 0 0 1 29.3 6.316c-12.964-16.5-26.371-33.961-29.706-54.681-.753-4.632-.177-10.637 4.233-12.21 4.089-1.452 8.133 2.105 10.837 5.5a121.183 121.183 0 0 1 9.629 14.172m-71.814 576.918c-3.379 4.62-6.758 9.244-10.138 13.873-3.889 5.319-12.487 13.717-6.061 20.255 6.26 6.393 13.518-.787 17.463-5.884a323.095 323.095 0 0 0 13.252-18.349 326.248 326.248 0 0 0 22.415-38.892c1.74-3.579 3.136-8.565-.022-10.981-1.861-1.418-4.609-1.119-6.615.089a17.753 17.753 0 0 0-4.831 5.03c-8.488 11.624-16.976 23.244-25.463 34.859Z"/><path stroke="#171717" stroke-linecap="round" stroke-linejoin="round" stroke-width="3.324" d="M718.349 738.081a14.438 14.438 0 0 0-13.019-8.842m-17.773 20.343c-2.7.089-4.72-2.837-4.643-5.54.077-2.703 1.629-5.1 3.191-7.3a119.141 119.141 0 0 1 14.072-16.343m-63.147-80.345c-.787-2.349-27.313-86.437-27.313-86.437 40.7 5.252 82.67-3.446 119.279-21.994 36.609-18.548 67.955-46.648 92.72-79.368 25.385-33.54 44.244-72.565 50.759-114.116 6.515-41.551.111-85.662-21.418-121.8-4.31-7.247-9.662-14.515-17.529-17.584a23.446 23.446 0 0 0-7.058-1.529c-8.62-.554-17.629 3.18-25.6 7.224-6.848 3.479-13.917 7.579-18.726 13.374a26.193 26.193 0 0 0-4.133 6.792c-5 12.21.853 25.806 4.842 38.382 13.075 41.252 5.186 87.911-18.017 124.432s-60.786 62.958-102.127 75.745c-41.341 12.787-85.059 12.425-127.131 2.325M425.465 646.181l31.736-100.82c-26.814 1.053-53.352 12.277-71.767 31.789-17.95 19.025-27.645 45.906-24.787 71.878.066.665.155 1.341.244 2.006 3.6 26.593 20.953 51.235 45.352 62.393a86.324 86.324 0 0 0 29.407 7.28c9.468.68 18.983.249 28.351-1.285 19.4-3.058 37.983-9.861 56.421-16.62"/><path stroke="#171717" stroke-linecap="round" stroke-linejoin="round" stroke-width="3.324" d="m774.682 639.267 145.484 197.097-847.055-10.161L234.23 651.777"/><path stroke="#171717" stroke-linecap="round" stroke-linejoin="round" stroke-width="3.324" d="M362.771 648.808c20.942-.366 41.851-.773 62.726-1.219 70.659-1.485 141.052-3.379 211.589-5.152a32092.71 32092.71 0 0 1 137.6-3.169m-540.457 12.509c19.224.2 36.953-2.017 55.656-1.285m98.427 154.591 266.702-2.349-28.155-140.786H468.09"/><path stroke="#171717" stroke-linecap="round" stroke-linejoin="round" stroke-width="3.324" d="M402.583 779.455c-5.086 7.7-9.518 16.565-14.271 25.629m79.777-143.136c-6.327 11.08-11.867 22.161-18.515 34.349-5.54 7.756-8.864 16.62-13.873 23.745m-1.158-100.956c6.853 11.2 21.758 15.162 34.745 13.2 12.987-1.962 24.7-8.619 36.429-14.526 11.729-5.907 24.41-11.28 37.51-10.34 10.268.737 19.833 5.3 28.968 10.044 9.135 4.744 18.319 9.825 28.432 11.749 10.113 1.924 21.565.134 28.725-7.262"/><path stroke="#171717" stroke-linecap="round" stroke-linejoin="round" stroke-width="3.324" d="M438.434 606.621c8.627 10.549 24.438 12.364 37.636 8.972 13.198-3.392 24.883-10.939 37.35-16.44 13.271-5.856 28.233-9.421 42.31-5.919 8.178 2.034 15.584 6.324 22.892 10.52s14.779 8.4 23 10.238c8.221 1.838 17.453 1 24.108-4.175"/><path stroke="#171717" stroke-linecap="round" stroke-linejoin="round" stroke-width="3.324" d="M443.029 592.123c10.136 8.121 24.56 8.806 37.162 5.661 12.602-3.145 24.078-9.6 36.019-14.712 11.941-5.112 25.091-8.934 37.829-6.4 7.849 1.565 15.017 5.446 21.975 9.4 6.958 3.954 13.943 8.079 21.659 10.2 7.716 2.121 16.413 2.032 23.245-2.136m160.57-336.271a91.908 91.908 0 0 1 74.6-30.575"/><path stroke="#171717" stroke-linecap="round" stroke-linejoin="round" stroke-width="3.324" d="M786.107 272.222a68.733 68.733 0 0 1 76.329-29.533M492.971 712.661a70.78 70.78 0 0 0 17.9 64.5M480.5 716.962a71.568 71.568 0 0 0 14.693 63.323M621.154 280.3l21.228-21.009m-1.313 25.053-18.807-26.567m-199.15 39.85-14.128-11.934m-.623 14.691 12.665-16.571m14.925-32.947-2.959-13.8m-7.48 9.9 16.214-5.585m329.92 290.08a290.788 290.788 0 0 0 65.755-62.593m-647.253-31.246a123.698 123.698 0 0 1 44.469-64.022M134.9 607.208a107.668 107.668 0 0 0 65.609-23.585"/><path fill="#fff" d="M617.441 207.478a12.43 12.43 0 0 0 3.1-3.915 5.132 5.132 0 0 0-.152-4.821c-1.369-2.086-4.339-2.37-6.788-1.891a17.178 17.178 0 0 0-11.016 7.471c1.449-3.779 1.869-8.162.1-11.8s-6.138-6.145-9.991-4.907c-3.6 1.155-5.7 5.118-5.827 8.893-.127 3.775 1.3 7.413 2.774 10.889 2.66 6.257 3.821 14.406 6.683 13.264 6.268-2.503 16.166-8.595 21.117-13.183Z"/><path fill="#171717" d="m542.585 211.02 10.242-1.865a.65.65 0 0 1 .77.693.652.652 0 0 1-.145.365l-6.569 8.076a.65.65 0 0 0-.068.724l4.939 9.164a.653.653 0 0 1-.813.922l-9.711-3.752a.655.655 0 0 0-.71.159l-7.19 7.529a.654.654 0 0 1-1.128-.488l.568-10.4a.656.656 0 0 0-.37-.626l-9.383-4.511a.661.661 0 0 1-.368-.652.654.654 0 0 1 .484-.571l10.062-2.673a.65.65 0 0 0 .481-.545l1.391-10.317a.66.66 0 0 1 .507-.553.655.655 0 0 1 .693.285l5.651 8.743a.66.66 0 0 0 .667.293Z"/><path stroke="#171717" stroke-linecap="round" stroke-linejoin="round" stroke-width="3.324" d="M319.899 213.111c-8.74-34.235-49.563-56.333-83.006-44.931-33.443 11.402-52.266 53.834-38.273 86.279 4.119 9.55 12.091 18.884 22.489 19.071 16.067.29 23.38-24.309 12.019-35.673-11.361-11.364-31.794-8.515-43.477 2.518-11.683 11.033-16.223 27.674-17.879 43.658-1.656 15.984-.965 32.274-4.536 47.941-3.571 15.667-12.491 31.308-27.328 37.478m707.906-39.912-7.039-9.386M807.926 388.2a31.488 31.488 0 0 1 11.732-10.559m-10.558-32.85-5.866-8.212m-29.156 138.342-5.906-10.536m-33.207-18.959 12.692-10.809m36.804-5.354-2.346-14.078m-79.779 106.761 9.386-15.252m-45.755-12.904-14.078-4.69m-29.328 49.271 7.039-12.9m-46.93-23.472a28.9 28.9 0 0 0-12.899-8.212m-4.699 61.012 7.039-10.559m-76.259 10.56-7.04-8.212m-22.291-42.24 11.732-14.078m-62.118 38.685A13.55 13.55 0 0 0 406.68 522m-58.711 56.225 8.984-15.485m-14.792 76.527-8.212-8.212m-27.115-12.998 8.145-11.779m23.665 86.956-8.212 12.9m35.194 22.297-8.212-9.386m67.01 24.775 8.235-8.19m-30.66 26.823-8.212-7.039M499.07 460.173c1.72 22.163 6.253 44.958 19.366 62.909 3.334 4.565 7.334 8.864 12.484 11.2 5.15 2.336 11.646 2.328 16.08-1.182 3.489-2.762 5.233-7.272 5.6-11.706.367-4.434-.466-8.871-1.3-13.242-2.533-13.254-5.064-26.507-7.592-39.76"/><path fill="#171717" d="M563.929 322.665c-3.638 2.784-6.5 6.4-9.968 9.4a76.631 76.631 0 0 1-12.767 8.456 83.78 83.78 0 0 1-28.031 9.58l4.761 1.259-1.463-1.181c-4.394-3.546-12.615-1.723-12.225 5.064.4 6.958.68 14.066-.812 20.921a41.5 41.5 0 0 1-3.22 9.6c-1.761 3.553-4.452 6.549-5.383 10.452-1.759 7.374 6.311 14.446 13.221 10.164 7.964-4.937 11.838-17.259 13.277-26.1 1.612-9.9.867-19.638-3.738-28.656v7.229l1.108-1.567-2.924 2.248a79.641 79.641 0 0 0 29.662-11.775 75.818 75.818 0 0 0 11.429-9.525c3.738-3.7 8.054-7.573 10.152-12.49.75-1.759-1.045-4.635-3.079-3.079ZM438.474 646.549c8.766-15.851 14.89-33.887 20.9-50.936a513.235 513.235 0 0 0 15.434-52.628c1.447-6.128-2.808-11.322-8.924-11.714-16.418-1.054-35.158 1.717-49.682 9.883-7.232 4.066-14.474 8.114-21.092 13.16-6.308 4.812-11.9 11.137-17.07 17.172a109.079 109.079 0 0 0-22.692 43.543 84.36 84.36 0 0 0-2.388 24.962c.197 4.05.597 8.089 1.2 12.1.595 4.119.726 7.752 3.2 11.2 1.181 1.645 4.094 1.686 4.627-.605.9-3.856.036-6.933-.163-10.842-.16-3.687-.097-7.38.187-11.059a133.644 133.644 0 0 1 4.038-22.8 94.177 94.177 0 0 1 20.251-39.357c4.935-5.613 10.711-9.525 16.861-13.614 5.962-3.964 12.227-7.488 19.142-9.391 6.932-1.908 13.909-4.565 21.106-5.313a133.705 133.705 0 0 1 22.476-.531l-8.924-11.714c-4.163 17.46-8.9 34.842-14.3 51.961s-12.619 33.6-18.153 50.636c-2.68 8.249 9.789 13.438 13.965 5.887h.001Zm-144.536 5.496c-1.707 4.007-3.069 6.683-3 11.166.069 4.653.166 9.223.688 13.852 1.065 9.444 4.177 18.23 8.03 26.884 7.48 17 18.68 32.105 32.774 44.2 31.025 26.42 72.963 37.57 113.081 38.148 25.309.365 50.635-3.34 75.309-8.727 6.037-1.317 9.562-8.344 7.989-14.069-1.713-6.232-8.015-9.31-14.07-7.989-37.374 8.159-76.906 11.895-114.4 2.361-31.728-8.067-63.4-26.192-81.721-54.075-5.18-7.884-8.816-16.139-12.216-24.886-1.608-4.135-3.132-8.272-4.412-12.522-.674-2.235-.883-4.547-1.37-6.822-.579-2.707-2.022-4.5-3.081-7.048-.553-1.328-2.849-2.23-3.6-.471l-.001-.002Z" opacity=".1"/></g><mask id="f" width="960" height="960" x="0" y="0" maskUnits="userSpaceOnUse" style="mask-type:luminance"><path fill="#fff" d="M960 0H0v960h960V0Z"/></mask><g mask="url(#f)"><mask id="g" width="884" height="717" x="38" y="122" maskUnits="userSpaceOnUse" style="mask-type:luminance"><path fill="#fff" d="M922 122H38v717h884V122Z"/></mask><g mask="url(#g)"><path fill="#fff" fill-rule="evenodd" d="M530.527 771.954c-15.688-18.571-19.18-46.681-8.288-68.454l-.211-.109c.011-.023.011-.057.022-.078l-1.629-.51c-18.438 6.758-37.021 13.562-56.421 16.62a121.607 121.607 0 0 1-28.351 1.284 86.347 86.347 0 0 1-29.407-7.28c-24.399-11.158-41.752-35.8-45.352-62.393a59.623 59.623 0 0 1-.244-2.006c-2.858-25.972 6.837-52.852 24.787-71.878 18.415-19.512 44.953-30.736 71.767-31.789l-31.735 100.82.033 1.407c54.279-1.14 108.4-2.522 162.551-3.906 16.342-.418 32.686-.835 49.038-1.246l-.055-2.382c-.787-2.349-27.313-86.437-27.313-86.437 40.698 5.252 82.67-3.446 119.279-21.994 36.609-18.548 67.956-46.648 92.72-79.368 25.382-33.54 44.248-72.557 50.763-114.114 6.515-41.557.111-85.667-21.418-121.8-4.31-7.246-9.662-14.515-17.529-17.584a23.507 23.507 0 0 0-7.058-1.529c-8.625-.554-17.633 3.18-25.6 7.224-6.848 3.474-13.917 7.574-18.726 13.374a26.176 26.176 0 0 0-4.133 6.792c-4.358 10.649-.465 22.353 3.248 33.515.544 1.636 1.085 3.26 1.594 4.867 13.074 41.255 5.195 87.91-18.018 124.431s-60.792 62.958-102.127 75.745c-41.335 12.787-85.063 12.421-127.135 2.316l-.344.011c.173 5.797 1.886 11.509 3.592 17.195.599 1.997 1.197 3.991 1.727 5.985a93.648 93.648 0 0 1 3.047 27.413c-.121 3.002-.83 6.626-3.656 7.634-2.758.975-5.561-1.252-7.5-3.435-14.205-16.011-18.681-38.227-21.551-59.435-.122-.86-.233-1.725-.344-2.6l-.587.078c-37.806 5.241-75.257 15.125-109.185 32.62-33.928 17.495-64.266 42.891-84.454 75.279-15.701 25.175-24.931 54.704-25.086 84.266a137.812 137.812 0 0 0 2.15 25.307c6.77 37.562 30.681 72.399 64.908 89.274 13.917 6.859 28.964 10.67 44.343 12.986 10.526 1.585 21.218 2.471 31.811 3.147 32.642 2.105 66.216 2.449 97.185-7.989a39.899 39.899 0 0 1-1.108-1.274Zm307.384-558.313a1.661 1.661 0 1 0-2.766 1.843c23.482 35.233 28.771 80.629 20.638 122.4-8.135 41.772-28.652 80.307-53.183 115.329a1.663 1.663 0 0 0 2.722 1.907c24.669-35.218 45.465-74.193 53.723-116.601 8.259-42.409 2.946-88.749-21.134-124.878Z" clip-rule="evenodd"/><path fill="#171717" fill-rule="evenodd" d="M505.774 350.67a114.211 114.211 0 0 0 58.449-27.357l2.852.736a74.785 74.785 0 0 1 15.59 58.592l1.276.211c14.714-14.282 25.341-33.185 27.9-53.551 2.559-20.366-3.424-42.042-17.518-56.942-18.571-19.635-48.776-25.164-75.036-18.848-26.26 6.316-48.997 22.914-68.066 42.05-3.848 3.859-7.616 7.863-11.39 11.873-13.997 14.87-28.079 29.832-46.615 37.878-14.763 6.406-30.936 7.771-47.097 9.134-5.951.502-11.901 1.004-17.778 1.758-42.371 5.441-83.908 25.795-109.108 60.288-11.175 15.302-18.806 32.723-26.441 50.152-7.232 16.508-14.466 33.023-24.717 47.753-27.967 40.199-78.613 63.379-127.313 58.293l-.078.72c60.113 30.404 134.371 18.77 183.113-27.723 10.996-10.491 20.524-22.487 30.031-34.456 13.57-17.084 27.098-34.115 44.794-46.644a115.386 115.386 0 0 1 53.695-20.4c17.369-1.914 34.76.155 52.178 2.227 8.601 1.023 17.207 2.047 25.822 2.593 26.061 1.651 54.615-2.138 73.108-20.565l2.36-.521c-2.194-10.116-5.36-19.9-10.56-28.842l-1.418-.809c9.817-13.407 14.515-30.659 12.033-47.124l-.066-.476Zm53.89-90.083c-28.602-8.532-59.084 5.529-81.569 24.179-9.92 8.228-18.978 17.441-27.961 26.578l-.001.001c-1.201 1.221-2.401 2.441-3.601 3.657-10.204 10.341-20.465 20.42-32.063 28.885a1.663 1.663 0 0 0 1.96 2.685c11.836-8.639 22.262-18.891 32.469-29.235 1.205-1.221 2.408-2.444 3.608-3.665 8.997-9.149 17.93-18.234 27.711-26.347 22.181-18.398 51.499-31.606 78.497-23.553a56.183 56.183 0 0 1 37.889 69.513 1.663 1.663 0 0 0 3.192.927 59.504 59.504 0 0 0-40.131-73.625Z" clip-rule="evenodd"/><path fill="#fff" d="M741.451 688.685c3.158 2.416 1.762 7.4.022 10.981a326.614 326.614 0 0 1-22.415 38.893l-.709-.476a14.43 14.43 0 0 0-13.019-8.842l-.787-.577a227387.18 227387.18 0 0 1 25.463-34.858 17.7 17.7 0 0 1 4.831-5.03c2.004-1.21 4.752-1.51 6.614-.091Z"/><path fill="#fff" d="m718.348 738.081.709.476a328.066 328.066 0 0 1-13.252 18.349c-3.945 5.1-11.2 12.277-17.463 5.884-6.427-6.537 2.172-14.936 6.061-20.255 3.379-4.62 6.759-9.244 10.138-13.873l.787.576a14.442 14.442 0 0 1 13.02 8.843Z"/><path stroke="#171717" stroke-linecap="round" stroke-linejoin="round" stroke-width="3.324" d="M542.15 383.324c1.23 1.895 4.321 1.839 5.928.244a6.666 6.666 0 0 0 1.307-6.371 22.385 22.385 0 0 0-3.08-6.039 15.906 15.906 0 0 1-2.681-6.194m-10.35 39.424a9.753 9.753 0 0 1-10.415-1.618"/><path stroke="#171717" stroke-linecap="round" stroke-linejoin="round" stroke-width="3.324" d="M495.227 399.08c5.2 8.942 8.366 18.726 10.56 28.842 2.172 9.95 3.424 20.222 4.764 30.338.111.875.222 1.74.344 2.6 2.87 21.208 7.346 43.424 21.551 59.435 1.939 2.183 4.742 4.41 7.5 3.435 2.826-1.008 3.535-4.632 3.656-7.634a93.716 93.716 0 0 0-3.047-27.413c-2.039-7.668-5.086-15.346-5.319-23.179-.044-1.327 0-2.656.133-3.978.886-8.643 5.839-16.366 11.656-22.826 5.817-6.46 12.6-12 18.282-18.582a75.097 75.097 0 0 0 1.762-96.077"/><path stroke="#171717" stroke-linecap="round" stroke-linejoin="round" stroke-width="3.324" d="M564.478 352.831a11.16 11.16 0 0 0-14.138.82m-19.523 4.641a11.566 11.566 0 0 0-14.715.233m-31.801-6.792a105.4 105.4 0 0 0 21.474-1.064 114.216 114.216 0 0 0 58.449-27.357 106.124 106.124 0 0 0 15.324-16.82m-101.12 106.607a61.53 61.53 0 0 0 15.379-14.825c9.817-13.407 14.515-30.659 12.033-47.124"/><path stroke="#171717" stroke-linecap="round" stroke-linejoin="round" stroke-width="3.324" d="M583.934 382.846c14.715-14.283 25.33-33.2 27.9-53.551 2.57-20.351-3.424-42.039-17.518-56.942-18.571-19.634-48.775-25.174-75.036-18.848-26.261 6.326-49 22.914-68.066 42.05-18.116 18.172-34.471 39.534-58 49.751-20.2 8.764-43.036 8.089-64.875 10.892-42.371 5.44-83.911 25.8-109.108 60.288-21.762 29.795-30.083 67.623-51.158 97.905-27.967 40.2-78.615 63.379-127.313 58.293-.2-.011-.4-.033-.6-.055"/><path stroke="#171717" stroke-linecap="round" stroke-linejoin="round" stroke-width="3.324" d="M503.425 428.442c-18.493 18.427-47.047 22.216-73.108 20.565-26.061-1.651-52.055-7.679-78-4.82a115.397 115.397 0 0 0-53.695 20.4c-30.094 21.307-48.133 55.634-74.825 81.1-48.742 46.493-123 58.127-183.113 27.723m469.277-115.073c-37.806 5.241-75.268 15.125-109.185 32.62-33.917 17.495-64.266 42.892-84.454 75.279-15.7 25.174-24.931 54.7-25.086 84.266a137.805 137.805 0 0 0 2.15 25.307c6.77 37.562 30.681 72.4 64.908 89.274 13.917 6.859 28.964 10.67 44.343 12.986 10.526 1.584 21.219 2.471 31.811 3.147 32.643 2.105 66.216 2.449 97.185-7.989.632-.211 1.263-.421 1.884-.643"/><path stroke="#171717" stroke-linecap="round" stroke-linejoin="round" stroke-width="3.324" d="M531.789 773.405a2.393 2.393 0 0 1-.155-.177 39.899 39.899 0 0 1-1.108-1.274c-15.69-18.571-19.18-46.681-8.288-68.454"/><path stroke="#171717" stroke-linecap="round" stroke-linejoin="round" stroke-width="3.324" d="M564.954 747.92c9.485-2.227 18.97-4.458 28.454-6.693 3.368-.787 7.291-1.463 9.972.72 3 2.438 2.659 7.413.288 10.46-2.371 3.047-6.15 4.62-9.784 5.939-19.7 7.147-42.271 13.817-63.224 13.5"/><path stroke="#171717" stroke-linecap="round" stroke-linejoin="round" stroke-width="3.324" d="M564.953 747.921a172.38 172.38 0 0 1-13.717 3.224l13.717-3.224Z"/><path stroke="#171717" stroke-linecap="round" stroke-linejoin="round" stroke-width="3.324" d="M562.404 727.011c7.501-2.914 15.006-5.828 22.515-8.742 6.05-2.349 14.172-4.155 17.983 1.1 2.46 3.391 1.562 8.355-1 11.668-2.562 3.313-6.438 5.3-10.238 7.058a175.948 175.948 0 0 1-26.715 9.828"/><path stroke="#171717" stroke-linecap="round" stroke-linejoin="round" stroke-width="3.324" d="M562.406 727.012a140.62 140.62 0 0 1-12.9 5.008c4.301-1.661 8.601-3.33 12.9-5.008Zm-40.377-23.623c.011-.022.011-.055.022-.078a44.063 44.063 0 0 1 14.382-21.6c2.2-1.806 5.33-3.413 7.756-1.917 2.061 1.274 2.393 4.089 2.382 6.515a69.867 69.867 0 0 1-6.061 28.2 95.598 95.598 0 0 1 45.2-21.7c4.676-.853 10.67-.72 12.72 3.557 2.172 4.532-2.006 9.44-5.95 12.543a141.448 141.448 0 0 1-30.08 18.103m213.955-575.277a413.968 413.968 0 0 1-2.216-5.2c-1.385-3.291-2.748-6.7-2.826-10.271-.078-3.571 1.407-7.413 4.521-9.152 3.734-2.083 8.632-.532 11.668 2.46 3.036 2.992 4.644 7.114 6.162 11.1 5.186 13.606 10.371 27.22 15.556 40.842l-13.728-36.4c-1.5-3.978-3.026-8.166-2.483-12.377.543-4.211 3.911-8.41 8.166-8.31 4.709.122 7.723 4.953 9.662 9.252a182.112 182.112 0 0 1 15.69 62.67"/><path stroke="#171717" stroke-linecap="round" stroke-linejoin="round" stroke-width="3.324" d="M776.355 151.734c6.427 10.958 11.49 22.792 16.476 34.5a515.11 515.11 0 0 1-16.476-34.5Zm5.627 65.966a133.953 133.953 0 0 1-34.571-10.781c-3.269-1.529-6.925-3.878-6.958-7.49-.022-2.515 1.917-4.72 4.211-5.751a16.874 16.874 0 0 1 7.4-1.03 81.186 81.186 0 0 1 29.3 6.316c-12.964-16.5-26.371-33.961-29.706-54.681-.753-4.632-.177-10.637 4.233-12.21 4.089-1.452 8.133 2.105 10.837 5.5a121.183 121.183 0 0 1 9.629 14.172m-71.814 576.918c-3.379 4.62-6.758 9.244-10.138 13.873-3.889 5.319-12.487 13.717-6.061 20.255 6.26 6.393 13.518-.787 17.463-5.884a323.095 323.095 0 0 0 13.252-18.349 326.248 326.248 0 0 0 22.415-38.892c1.74-3.579 3.136-8.565-.022-10.981-1.861-1.418-4.609-1.119-6.615.089a17.753 17.753 0 0 0-4.831 5.03c-8.488 11.624-16.976 23.244-25.463 34.859Z"/><path stroke="#171717" stroke-linecap="round" stroke-linejoin="round" stroke-width="3.324" d="M718.349 738.081a14.438 14.438 0 0 0-13.019-8.842m-17.773 20.343c-2.7.089-4.72-2.837-4.643-5.54.077-2.703 1.629-5.1 3.191-7.3a119.141 119.141 0 0 1 14.072-16.343m-63.147-80.345c-.787-2.349-27.313-86.437-27.313-86.437 40.7 5.252 82.67-3.446 119.279-21.994 36.609-18.548 67.955-46.648 92.72-79.368 25.385-33.54 44.244-72.565 50.759-114.116 6.515-41.551.111-85.662-21.418-121.8-4.31-7.247-9.662-14.515-17.529-17.584a23.446 23.446 0 0 0-7.058-1.529c-8.62-.554-17.629 3.18-25.6 7.224-6.848 3.479-13.917 7.579-18.726 13.374a26.193 26.193 0 0 0-4.133 6.792c-5 12.21.853 25.806 4.842 38.382 13.075 41.252 5.186 87.911-18.017 124.432s-60.786 62.958-102.127 75.745c-41.341 12.787-85.059 12.425-127.131 2.325M425.465 646.181l31.736-100.82c-26.814 1.053-53.352 12.277-71.767 31.789-17.95 19.025-27.645 45.906-24.787 71.878.066.665.155 1.341.244 2.006 3.6 26.593 20.953 51.235 45.352 62.393a86.324 86.324 0 0 0 29.407 7.28c9.468.68 18.983.249 28.351-1.285 19.4-3.058 37.983-9.861 56.421-16.62"/><path stroke="#171717" stroke-linecap="round" stroke-linejoin="round" stroke-width="3.324" d="m774.682 639.267 145.484 197.097-847.055-10.161L234.23 651.777"/><path stroke="#171717" stroke-linecap="round" stroke-linejoin="round" stroke-width="3.324" d="M362.771 648.808c20.942-.366 41.851-.773 62.726-1.219 70.659-1.485 141.052-3.379 211.589-5.152a32092.71 32092.71 0 0 1 137.6-3.169m-540.457 12.509c19.224.2 36.953-2.017 55.656-1.285m98.427 154.591 266.702-2.349-28.155-140.786H468.09"/><path stroke="#171717" stroke-linecap="round" stroke-linejoin="round" stroke-width="3.324" d="M402.583 779.455c-5.086 7.7-9.518 16.565-14.271 25.629m79.777-143.136c-6.327 11.08-11.867 22.161-18.515 34.349-5.54 7.756-8.864 16.62-13.873 23.745m-1.158-100.956c6.853 11.2 21.758 15.162 34.745 13.2 12.987-1.962 24.7-8.619 36.429-14.526 11.729-5.907 24.41-11.28 37.51-10.34 10.268.737 19.833 5.3 28.968 10.044 9.135 4.744 18.319 9.825 28.432 11.749 10.113 1.924 21.565.134 28.725-7.262"/><path stroke="#171717" stroke-linecap="round" stroke-linejoin="round" stroke-width="3.324" d="M438.434 606.621c8.627 10.549 24.438 12.364 37.636 8.972 13.198-3.392 24.883-10.939 37.35-16.44 13.271-5.856 28.233-9.421 42.31-5.919 8.178 2.034 15.584 6.324 22.892 10.52s14.779 8.4 23 10.238c8.221 1.838 17.453 1 24.108-4.175"/><path stroke="#171717" stroke-linecap="round" stroke-linejoin="round" stroke-width="3.324" d="M443.029 592.123c10.136 8.121 24.56 8.806 37.162 5.661 12.602-3.145 24.078-9.6 36.019-14.712 11.941-5.112 25.091-8.934 37.829-6.4 7.849 1.565 15.017 5.446 21.975 9.4 6.958 3.954 13.943 8.079 21.659 10.2 7.716 2.121 16.413 2.032 23.245-2.136m160.57-336.271a91.908 91.908 0 0 1 74.6-30.575"/><path stroke="#171717" stroke-linecap="round" stroke-linejoin="round" stroke-width="3.324" d="M786.107 272.222a68.733 68.733 0 0 1 76.329-29.533M492.971 712.661a70.78 70.78 0 0 0 17.9 64.5M480.5 716.962a71.568 71.568 0 0 0 14.693 63.323M621.154 280.3l21.228-21.009m-1.313 25.053-18.807-26.567m-199.15 39.85-14.128-11.934m-.623 14.691 12.665-16.571m14.925-32.947-2.959-13.8m-7.48 9.9 16.214-5.585m329.92 290.08a290.788 290.788 0 0 0 65.755-62.593m-647.253-31.246a123.698 123.698 0 0 1 44.469-64.022M134.9 607.208a107.668 107.668 0 0 0 65.609-23.585"/><path fill="#fff" d="M617.441 207.478a12.43 12.43 0 0 0 3.1-3.915 5.132 5.132 0 0 0-.152-4.821c-1.369-2.086-4.339-2.37-6.788-1.891a17.178 17.178 0 0 0-11.016 7.471c1.449-3.779 1.869-8.162.1-11.8s-6.138-6.145-9.991-4.907c-3.6 1.155-5.7 5.118-5.827 8.893-.127 3.775 1.3 7.413 2.774 10.889 2.66 6.257 3.821 14.406 6.683 13.264 6.268-2.503 16.166-8.595 21.117-13.183Z"/><path fill="#171717" d="m542.585 211.02 10.242-1.865a.65.65 0 0 1 .77.693.652.652 0 0 1-.145.365l-6.569 8.076a.65.65 0 0 0-.068.724l4.939 9.164a.653.653 0 0 1-.813.922l-9.711-3.752a.655.655 0 0 0-.71.159l-7.19 7.529a.654.654 0 0 1-1.128-.488l.568-10.4a.656.656 0 0 0-.37-.626l-9.383-4.511a.661.661 0 0 1-.368-.652.654.654 0 0 1 .484-.571l10.062-2.673a.65.65 0 0 0 .481-.545l1.391-10.317a.66.66 0 0 1 .507-.553.655.655 0 0 1 .693.285l5.651 8.743a.66.66 0 0 0 .667.293Z"/><path stroke="#171717" stroke-linecap="round" stroke-linejoin="round" stroke-width="3.324" d="M319.899 213.111c-8.74-34.235-49.563-56.333-83.006-44.931-33.443 11.402-52.266 53.834-38.273 86.279 4.119 9.55 12.091 18.884 22.489 19.071 16.067.29 23.38-24.309 12.019-35.673-11.361-11.364-31.794-8.515-43.477 2.518-11.683 11.033-16.223 27.674-17.879 43.658-1.656 15.984-.965 32.274-4.536 47.941-3.571 15.667-12.491 31.308-27.328 37.478m707.906-39.912-7.039-9.386M807.926 388.2a31.488 31.488 0 0 1 11.732-10.559m-10.558-32.85-5.866-8.212m-29.156 138.342-5.906-10.536m-33.207-18.959 12.692-10.809m36.804-5.354-2.346-14.078m-79.779 106.761 9.386-15.252m-45.755-12.904-14.078-4.69m-29.328 49.271 7.039-12.9m-46.93-23.472a28.9 28.9 0 0 0-12.899-8.212m-4.699 61.012 7.039-10.559m-76.259 10.56-7.04-8.212m-22.291-42.24 11.732-14.078m-62.118 38.685A13.55 13.55 0 0 0 406.68 522m-58.711 56.225 8.984-15.485m-14.792 76.527-8.212-8.212m-27.115-12.998 8.145-11.779m23.665 86.956-8.212 12.9m35.194 22.297-8.212-9.386m67.01 24.775 8.235-8.19m-30.66 26.823-8.212-7.039M499.07 460.173c1.72 22.163 6.253 44.958 19.366 62.909 3.334 4.565 7.334 8.864 12.484 11.2 5.15 2.336 11.646 2.328 16.08-1.182 3.489-2.762 5.233-7.272 5.6-11.706.367-4.434-.466-8.871-1.3-13.242-2.533-13.254-5.064-26.507-7.592-39.76"/><path fill="#171717" d="M563.929 322.665c-3.638 2.784-6.5 6.4-9.968 9.4a76.631 76.631 0 0 1-12.767 8.456 83.78 83.78 0 0 1-28.031 9.58l4.761 1.259-1.463-1.181c-4.394-3.546-12.615-1.723-12.225 5.064.4 6.958.68 14.066-.812 20.921a41.5 41.5 0 0 1-3.22 9.6c-1.761 3.553-4.452 6.549-5.383 10.452-1.759 7.374 6.311 14.446 13.221 10.164 7.964-4.937 11.838-17.259 13.277-26.1 1.612-9.9.867-19.638-3.738-28.656v7.229l1.108-1.567-2.924 2.248a79.641 79.641 0 0 0 29.662-11.775 75.818 75.818 0 0 0 11.429-9.525c3.738-3.7 8.054-7.573 10.152-12.49.75-1.759-1.045-4.635-3.079-3.079ZM438.474 646.549c8.766-15.851 14.89-33.887 20.9-50.936a513.235 513.235 0 0 0 15.434-52.628c1.447-6.128-2.808-11.322-8.924-11.714-16.418-1.054-35.158 1.717-49.682 9.883-7.232 4.066-14.474 8.114-21.092 13.16-6.308 4.812-11.9 11.137-17.07 17.172a109.079 109.079 0 0 0-22.692 43.543 84.36 84.36 0 0 0-2.388 24.962c.197 4.05.597 8.089 1.2 12.1.595 4.119.726 7.752 3.2 11.2 1.181 1.645 4.094 1.686 4.627-.605.9-3.856.036-6.933-.163-10.842-.16-3.687-.097-7.38.187-11.059a133.644 133.644 0 0 1 4.038-22.8 94.177 94.177 0 0 1 20.251-39.357c4.935-5.613 10.711-9.525 16.861-13.614 5.962-3.964 12.227-7.488 19.142-9.391 6.932-1.908 13.909-4.565 21.106-5.313a133.705 133.705 0 0 1 22.476-.531l-8.924-11.714c-4.163 17.46-8.9 34.842-14.3 51.961s-12.619 33.6-18.153 50.636c-2.68 8.249 9.789 13.438 13.965 5.887h.001Zm-144.536 5.496c-1.707 4.007-3.069 6.683-3 11.166.069 4.653.166 9.223.688 13.852 1.065 9.444 4.177 18.23 8.03 26.884 7.48 17 18.68 32.105 32.774 44.2 31.025 26.42 72.963 37.57 113.081 38.148 25.309.365 50.635-3.34 75.309-8.727 6.037-1.317 9.562-8.344 7.989-14.069-1.713-6.232-8.015-9.31-14.07-7.989-37.374 8.159-76.906 11.895-114.4 2.361-31.728-8.067-63.4-26.192-81.721-54.075-5.18-7.884-8.816-16.139-12.216-24.886-1.608-4.135-3.132-8.272-4.412-12.522-.674-2.235-.883-4.547-1.37-6.822-.579-2.707-2.022-4.5-3.081-7.048-.553-1.328-2.849-2.23-3.6-.471l-.001-.002Z" opacity=".1"/></g></g></g></g><defs><clipPath id="a"><path fill="#fff" d="M0 0h960v960H0z"/></clipPath></defs></svg>