<svg width="960" height="960" viewBox="0 0 960 960" fill="none" xmlns="http://www.w3.org/2000/svg">
<g clip-path="url(#clip0_318_281)">
<path fill-rule="evenodd" clip-rule="evenodd" d="M505.774 350.67C527.481 347.36 547.775 337.861 564.223 323.313L567.075 324.049C573.62 332.185 578.389 341.603 581.074 351.694C583.759 361.785 584.301 372.327 582.665 382.641L583.941 382.852C598.655 368.57 609.282 349.667 611.841 329.301C614.4 308.935 608.417 287.259 594.323 272.359C575.752 252.724 545.547 247.195 519.287 253.511C493.027 259.827 470.29 276.425 451.221 295.561C447.373 299.42 443.605 303.424 439.831 307.434C425.834 322.304 411.752 337.266 393.216 345.312C378.453 351.718 362.28 353.083 346.119 354.446C340.168 354.948 334.218 355.45 328.341 356.204C285.97 361.645 244.433 381.999 219.233 416.492C208.058 431.794 200.427 449.215 192.792 466.644C185.56 483.152 178.326 499.667 168.075 514.397C140.108 554.596 89.4616 577.776 40.7616 572.69L40.6836 573.41C100.797 603.814 175.055 592.18 223.797 545.687C234.793 535.196 244.321 523.2 253.828 511.231C267.398 494.147 280.926 477.116 298.622 464.587C314.514 453.37 332.985 446.352 352.317 444.187C369.686 442.273 387.077 444.342 404.495 446.414C413.096 447.437 421.702 448.461 430.317 449.007C456.378 450.658 484.932 446.869 503.425 428.442L505.785 427.921C503.591 417.805 500.425 408.021 495.225 399.079L493.807 398.27C503.624 384.863 508.322 367.611 505.84 351.146L505.774 350.67ZM559.664 260.587C531.062 252.055 500.58 266.116 478.095 284.766C468.175 292.994 459.117 302.207 450.134 311.344L450.133 311.345C448.932 312.566 447.732 313.786 446.532 315.002C436.328 325.343 426.067 335.422 414.469 343.887C413.728 344.428 413.566 345.468 414.107 346.21C414.648 346.951 415.688 347.113 416.429 346.572C428.265 337.933 438.691 327.681 448.898 317.337C450.103 316.116 451.306 314.893 452.506 313.672C461.503 304.523 470.436 295.438 480.217 287.325C502.398 268.927 531.716 255.719 558.714 263.772C572.926 268.012 584.885 277.699 591.983 290.721C599.081 303.743 600.742 319.043 596.603 333.285C596.347 334.166 596.854 335.089 597.735 335.345C598.617 335.601 599.539 335.094 599.795 334.212C604.179 319.128 602.419 302.923 594.902 289.13C587.384 275.338 574.717 265.077 559.664 260.587Z" fill="white"/>
<path d="M542.15 383.324C543.38 385.219 546.471 385.163 548.078 383.568C548.822 382.706 549.332 381.668 549.561 380.553C549.79 379.437 549.729 378.282 549.385 377.197C548.671 375.039 547.632 373.003 546.305 371.158C544.979 369.309 544.064 367.197 543.624 364.964" stroke="white" stroke-width="3.324" stroke-linecap="round" stroke-linejoin="round"/>
<path d="M533.274 404.388C531.566 405.144 529.676 405.394 527.829 405.107C525.983 404.821 524.258 404.009 522.859 402.77" stroke="white" stroke-width="3.324" stroke-linecap="round" stroke-linejoin="round"/>
<path d="M495.227 399.08C500.427 408.022 503.593 417.806 505.787 427.922C507.959 437.872 509.211 448.144 510.551 458.26C510.662 459.135 510.773 460 510.895 460.86C513.765 482.068 518.241 504.284 532.446 520.295C534.385 522.478 537.188 524.705 539.946 523.73C542.772 522.722 543.481 519.098 543.602 516.096C543.944 506.858 542.917 497.62 540.555 488.683C538.516 481.015 535.469 473.337 535.236 465.504C535.192 464.177 535.236 462.848 535.369 461.526C536.255 452.883 541.208 445.16 547.025 438.7C552.842 432.24 559.625 426.7 565.307 420.118C576.784 406.835 583.246 389.95 583.568 372.398C583.889 354.846 578.052 337.736 567.069 324.041" stroke="white" stroke-width="3.324" stroke-linecap="round" stroke-linejoin="round"/>
<path d="M564.478 352.831C562.39 351.31 559.84 350.561 557.262 350.71C554.684 350.86 552.237 351.899 550.34 353.651" stroke="white" stroke-width="3.324" stroke-linecap="round" stroke-linejoin="round"/>
<path d="M530.817 358.292C528.718 356.617 526.102 355.724 523.417 355.766C520.732 355.809 518.146 356.784 516.102 358.525" stroke="white" stroke-width="3.324" stroke-linecap="round" stroke-linejoin="round"/>
<path d="M484.301 351.733C491.476 352.111 498.672 351.755 505.775 350.669C527.483 347.358 547.776 337.86 564.224 323.312C569.92 318.271 575.057 312.632 579.548 306.492" stroke="white" stroke-width="3.324" stroke-linecap="round" stroke-linejoin="round"/>
<path d="M478.428 413.099C484.379 409.092 489.584 404.075 493.807 398.274C503.624 384.867 508.322 367.615 505.84 351.15" stroke="white" stroke-width="3.324" stroke-linecap="round" stroke-linejoin="round"/>
<path d="M583.934 382.846C598.649 368.563 609.264 349.646 611.834 329.295C614.404 308.944 608.41 287.256 594.316 272.353C575.745 252.719 545.541 247.179 519.28 253.505C493.019 259.831 470.28 276.419 451.214 295.555C433.098 313.727 416.743 335.089 393.214 345.306C373.014 354.07 350.178 353.395 328.339 356.198C285.968 361.638 244.428 381.998 219.231 416.486C197.469 446.281 189.148 484.109 168.073 514.391C140.106 554.591 89.4582 577.77 40.7602 572.684C40.5602 572.673 40.3602 572.651 40.1602 572.629" stroke="white" stroke-width="3.324" stroke-linecap="round" stroke-linejoin="round"/>
<path d="M503.425 428.442C484.932 446.869 456.378 450.658 430.317 449.007C404.256 447.356 378.262 441.328 352.317 444.187C332.985 446.353 314.514 453.37 298.622 464.587C268.528 485.894 250.489 520.221 223.797 545.687C175.055 592.18 100.797 603.814 40.6836 573.41" stroke="white" stroke-width="3.324" stroke-linecap="round" stroke-linejoin="round"/>
<path d="M509.961 458.337C472.155 463.578 434.693 473.462 400.776 490.957C366.859 508.452 336.51 533.849 316.322 566.236C300.622 591.41 291.391 620.936 291.236 650.502C291.172 658.986 291.892 667.458 293.386 675.809C300.156 713.371 324.067 748.209 358.294 765.083C372.211 771.942 387.258 775.753 402.637 778.069C413.163 779.653 423.856 780.54 434.448 781.216C467.091 783.321 500.664 783.665 531.633 773.227C532.265 773.016 532.896 772.806 533.517 772.584" stroke="white" stroke-width="3.324" stroke-linecap="round" stroke-linejoin="round"/>
<path d="M531.789 773.405C531.735 773.349 531.683 773.29 531.634 773.228C531.257 772.807 530.881 772.386 530.526 771.954C514.836 753.383 511.346 725.273 522.238 703.5" stroke="white" stroke-width="3.324" stroke-linecap="round" stroke-linejoin="round"/>
<path d="M564.954 747.92C574.439 745.693 583.924 743.462 593.408 741.227C596.776 740.44 600.699 739.764 603.38 741.947C606.38 744.385 606.039 749.36 603.668 752.407C601.297 755.454 597.518 757.027 593.884 758.346C574.184 765.493 551.613 772.163 530.66 771.846" stroke="white" stroke-width="3.324" stroke-linecap="round" stroke-linejoin="round"/>
<path d="M564.953 747.921C560.42 749.184 555.848 750.258 551.236 751.145L564.953 747.921Z" stroke="white" stroke-width="3.324" stroke-linecap="round" stroke-linejoin="round"/>
<path d="M562.404 727.011C569.905 724.097 577.41 721.183 584.919 718.269C590.969 715.92 599.091 714.114 602.902 719.369C605.362 722.76 604.464 727.724 601.902 731.037C599.34 734.35 595.464 736.337 591.664 738.095C583.039 742.087 574.105 745.374 564.949 747.923" stroke="white" stroke-width="3.324" stroke-linecap="round" stroke-linejoin="round"/>
<path d="M562.406 727.012C558.195 728.896 553.885 730.558 549.506 732.02C553.807 730.359 558.107 728.69 562.406 727.012Z" stroke="white" stroke-width="3.324" stroke-linecap="round" stroke-linejoin="round"/>
<path d="M522.029 703.389C522.04 703.367 522.04 703.334 522.051 703.311C524.568 694.83 529.58 687.304 536.433 681.711C538.633 679.905 541.763 678.298 544.189 679.794C546.25 681.068 546.582 683.883 546.571 686.309C546.534 696.028 544.47 705.633 540.51 714.509C553.378 703.383 568.981 695.892 585.71 692.809C590.386 691.956 596.38 692.089 598.43 696.366C600.602 700.898 596.424 705.806 592.48 708.909C583.244 716.169 573.14 722.25 562.4 727.012" stroke="white" stroke-width="3.324" stroke-linecap="round" stroke-linejoin="round"/>
<path d="M776.355 151.735C775.602 150.006 774.87 148.278 774.139 146.535C772.754 143.244 771.391 139.835 771.313 136.264C771.235 132.693 772.72 128.851 775.834 127.112C779.568 125.029 784.466 126.58 787.502 129.572C790.538 132.564 792.146 136.686 793.664 140.672C798.85 154.278 804.035 167.892 809.22 181.514C804.644 169.38 800.068 157.247 795.492 145.114C793.992 141.136 792.466 136.948 793.009 132.737C793.552 128.526 796.92 124.327 801.175 124.427C805.884 124.549 808.898 129.38 810.837 133.679C819.76 153.467 825.074 174.691 826.527 196.349" stroke="white" stroke-width="3.324" stroke-linecap="round" stroke-linejoin="round"/>
<path d="M776.355 151.734C782.782 162.692 787.845 174.526 792.831 186.234C786.915 174.944 781.423 163.444 776.355 151.734Z" stroke="white" stroke-width="3.324" stroke-linecap="round" stroke-linejoin="round"/>
<path d="M781.982 217.7C770.024 215.688 758.394 212.061 747.411 206.919C744.142 205.39 740.486 203.041 740.453 199.429C740.431 196.914 742.37 194.709 744.664 193.678C747.023 192.786 749.552 192.434 752.064 192.648C762.138 192.917 772.074 195.058 781.364 198.964C768.4 182.464 754.993 165.003 751.658 144.283C750.905 139.651 751.481 133.646 755.891 132.073C759.98 130.621 764.024 134.178 766.728 137.573C770.268 142.064 773.486 146.8 776.357 151.745" stroke="white" stroke-width="3.324" stroke-linecap="round" stroke-linejoin="round"/>
<path d="M704.543 728.663C701.164 733.283 697.785 737.907 694.405 742.536C690.516 747.855 681.918 756.253 688.344 762.791C694.604 769.184 701.862 762.004 705.807 756.907C710.439 750.945 714.856 744.829 719.059 738.558C727.415 726.124 734.904 713.129 741.474 699.666C743.214 696.087 744.61 691.101 741.452 688.685C739.591 687.267 736.843 687.566 734.837 688.774C732.91 690.115 731.268 691.824 730.006 693.804C721.518 705.428 713.03 717.048 704.543 728.663Z" stroke="white" stroke-width="3.324" stroke-linecap="round" stroke-linejoin="round"/>
<path d="M718.349 738.081C717.267 735.506 715.461 733.3 713.15 731.731C710.839 730.161 708.123 729.296 705.33 729.239" stroke="white" stroke-width="3.324" stroke-linecap="round" stroke-linejoin="round"/>
<path d="M687.557 749.582C684.857 749.671 682.837 746.745 682.914 744.042C682.991 741.339 684.543 738.942 686.105 736.742C690.292 730.88 695.002 725.41 700.177 720.399" stroke="white" stroke-width="3.324" stroke-linecap="round" stroke-linejoin="round"/>
<path d="M637.03 640.054C636.243 637.705 609.717 553.617 609.717 553.617C650.417 558.869 692.387 550.171 728.996 531.623C765.605 513.075 796.951 484.975 821.716 452.255C847.101 418.715 865.96 379.69 872.475 338.139C878.99 296.588 872.586 252.477 851.057 216.339C846.747 209.092 841.395 201.824 833.528 198.755C831.268 197.884 828.888 197.368 826.47 197.226C817.85 196.672 808.841 200.406 800.87 204.45C794.022 207.929 786.953 212.029 782.144 217.824C780.429 219.864 779.035 222.155 778.011 224.616C773.011 236.826 778.864 250.422 782.853 262.998C795.928 304.25 788.039 350.909 764.836 387.43C741.633 423.951 704.05 450.388 662.709 463.175C621.368 475.962 577.65 475.6 535.578 465.5" stroke="white" stroke-width="3.324" stroke-linecap="round" stroke-linejoin="round"/>
<path d="M425.465 646.181L457.201 545.361C430.387 546.414 403.849 557.638 385.434 577.15C367.484 596.175 357.789 623.056 360.647 649.028C360.713 649.693 360.802 650.369 360.891 651.034C364.491 677.627 381.844 702.269 406.243 713.427C415.54 717.568 425.495 720.033 435.65 720.707C445.118 721.387 454.633 720.956 464.001 719.422C483.401 716.364 501.984 709.561 520.422 702.802" stroke="white" stroke-width="3.324" stroke-linecap="round" stroke-linejoin="round"/>
<path d="M774.682 639.267L920.166 836.364L73.1113 826.203L234.229 651.777" stroke="white" stroke-width="3.324" stroke-linecap="round" stroke-linejoin="round"/>
<path d="M362.771 648.808C383.713 648.442 404.622 648.035 425.497 647.589C496.156 646.104 566.549 644.21 637.086 642.437C682.848 641.285 728.715 640.228 774.686 639.268" stroke="white" stroke-width="3.324" stroke-linecap="round" stroke-linejoin="round"/>
<path d="M234.229 651.777C253.453 651.977 271.182 649.76 289.885 650.492" stroke="white" stroke-width="3.324" stroke-linecap="round" stroke-linejoin="round"/>
<path d="M388.312 805.083L655.014 802.734L626.859 661.948H468.09" stroke="white" stroke-width="3.324" stroke-linecap="round" stroke-linejoin="round"/>
<path d="M402.583 779.455C397.497 787.155 393.065 796.02 388.312 805.084" stroke="white" stroke-width="3.324" stroke-linecap="round" stroke-linejoin="round"/>
<path d="M468.089 661.948C461.762 673.028 456.222 684.109 449.574 696.297C444.034 704.053 440.71 712.917 435.701 720.042" stroke="white" stroke-width="3.324" stroke-linecap="round" stroke-linejoin="round"/>
<path d="M434.543 619.086C441.396 630.286 456.301 634.248 469.288 632.286C482.275 630.324 493.988 623.667 505.717 617.76C517.446 611.853 530.127 606.48 543.227 607.42C553.495 608.157 563.06 612.72 572.195 617.464C581.33 622.208 590.514 627.289 600.627 629.213C610.74 631.137 622.192 629.347 629.352 621.951" stroke="white" stroke-width="3.324" stroke-linecap="round" stroke-linejoin="round"/>
<path d="M438.434 606.621C447.061 617.17 462.872 618.985 476.07 615.593C489.268 612.201 500.953 604.654 513.42 599.153C526.691 593.297 541.653 589.732 555.73 593.234C563.908 595.268 571.314 599.558 578.622 603.754C585.93 607.95 593.401 612.154 601.622 613.992C609.843 615.83 619.075 614.992 625.73 609.817" stroke="white" stroke-width="3.324" stroke-linecap="round" stroke-linejoin="round"/>
<path d="M443.029 592.123C453.165 600.244 467.589 600.929 480.191 597.784C492.793 594.639 504.269 588.184 516.21 583.072C528.151 577.96 541.301 574.138 554.039 576.672C561.888 578.237 569.056 582.118 576.014 586.072C582.972 590.026 589.957 594.151 597.673 596.272C605.389 598.393 614.086 598.304 620.918 594.136" stroke="white" stroke-width="3.324" stroke-linecap="round" stroke-linejoin="round"/>
<path d="M781.488 257.865C790.781 247.434 802.33 239.259 815.256 233.961C828.183 228.663 842.148 226.381 856.088 227.29" stroke="white" stroke-width="3.324" stroke-linecap="round" stroke-linejoin="round"/>
<path d="M786.107 272.222C793.984 259.767 805.654 250.174 819.397 244.857C833.14 239.539 848.229 238.779 862.436 242.689" stroke="white" stroke-width="3.324" stroke-linecap="round" stroke-linejoin="round"/>
<path d="M492.971 712.661C490.401 724.054 490.691 735.907 493.814 747.161C496.937 758.415 502.797 768.722 510.871 777.161" stroke="white" stroke-width="3.324" stroke-linecap="round" stroke-linejoin="round"/>
<path d="M480.5 716.962C477.777 727.927 477.689 739.382 480.243 750.388C482.797 761.394 487.92 771.639 495.193 780.285" stroke="white" stroke-width="3.324" stroke-linecap="round" stroke-linejoin="round"/>
<path d="M621.154 280.3L642.382 259.291" stroke="white" stroke-width="3.324" stroke-linecap="round" stroke-linejoin="round"/>
<path d="M641.069 284.344L622.262 257.777" stroke="white" stroke-width="3.324" stroke-linecap="round" stroke-linejoin="round"/>
<path d="M423.112 297.627L408.984 285.693" stroke="white" stroke-width="3.324" stroke-linecap="round" stroke-linejoin="round"/>
<path d="M408.361 300.384C412.583 294.86 416.804 289.337 421.026 283.813" stroke="white" stroke-width="3.324" stroke-linecap="round" stroke-linejoin="round"/>
<path d="M435.951 250.866C434.965 246.266 433.979 241.666 432.992 237.066" stroke="white" stroke-width="3.324" stroke-linecap="round" stroke-linejoin="round"/>
<path d="M425.512 246.966L441.726 241.381" stroke="white" stroke-width="3.324" stroke-linecap="round" stroke-linejoin="round"/>
<path d="M771.646 531.461C796.706 514.168 818.895 493.046 837.401 468.868" stroke="white" stroke-width="3.324" stroke-linecap="round" stroke-linejoin="round"/>
<path d="M190.148 437.622C197.684 412.046 213.282 389.59 234.617 373.6" stroke="white" stroke-width="3.324" stroke-linecap="round" stroke-linejoin="round"/>
<path d="M134.9 607.208C158.781 606.84 181.861 598.544 200.509 583.623" stroke="white" stroke-width="3.324" stroke-linecap="round" stroke-linejoin="round"/>
<path d="M617.441 207.478C618.729 206.396 619.783 205.064 620.541 203.563C620.913 202.808 621.093 201.974 621.066 201.133C621.04 200.293 620.807 199.472 620.389 198.742C619.02 196.656 616.05 196.372 613.601 196.851C611.361 197.301 609.232 198.194 607.341 199.477C605.45 200.76 603.833 202.407 602.585 204.322C604.034 200.543 604.454 196.16 602.685 192.522C600.916 188.884 596.547 186.377 592.694 187.615C589.094 188.77 586.994 192.733 586.867 196.508C586.74 200.283 588.167 203.921 589.641 207.397C592.301 213.654 593.462 221.803 596.324 220.661C602.592 218.158 612.49 212.066 617.441 207.478Z" fill="white"/>
<path d="M542.585 211.02L552.827 209.155C552.959 209.131 553.095 209.148 553.216 209.204C553.338 209.259 553.44 209.351 553.508 209.466C553.576 209.582 553.607 209.715 553.597 209.848C553.587 209.982 553.537 210.109 553.452 210.213L546.883 218.289C546.801 218.389 546.751 218.512 546.739 218.641C546.727 218.77 546.753 218.899 546.815 219.013L551.754 228.177C551.818 228.295 551.844 228.43 551.828 228.563C551.813 228.696 551.758 228.821 551.669 228.922C551.58 229.022 551.463 229.093 551.333 229.125C551.203 229.156 551.066 229.147 550.941 229.099L541.23 225.347C541.109 225.3 540.977 225.291 540.851 225.319C540.725 225.347 540.609 225.412 540.52 225.506L533.33 233.035C533.238 233.132 533.118 233.198 532.986 233.225C532.855 233.252 532.719 233.237 532.596 233.184C532.473 233.131 532.369 233.041 532.299 232.927C532.229 232.814 532.195 232.681 532.202 232.547L532.77 222.147C532.777 222.018 532.745 221.89 532.68 221.778C532.614 221.667 532.517 221.577 532.4 221.521L523.017 217.01C522.897 216.952 522.797 216.858 522.731 216.742C522.665 216.625 522.637 216.491 522.649 216.358C522.662 216.225 522.715 216.099 522.802 215.997C522.888 215.895 523.004 215.821 523.133 215.787L533.195 213.114C533.32 213.081 533.433 213.012 533.518 212.915C533.604 212.818 533.659 212.697 533.676 212.569L535.067 202.252C535.085 202.119 535.143 201.995 535.233 201.896C535.324 201.797 535.443 201.729 535.574 201.699C535.704 201.67 535.841 201.682 535.965 201.733C536.089 201.784 536.194 201.871 536.267 201.984L541.918 210.727C541.988 210.836 542.089 210.922 542.207 210.974C542.326 211.026 542.457 211.042 542.585 211.02Z" fill="white"/>
<path d="M319.899 213.111C311.159 178.876 270.336 156.778 236.893 168.18C203.45 179.582 184.627 222.014 198.62 254.459C202.739 264.009 210.711 273.343 221.109 273.53C237.176 273.82 244.489 249.221 233.128 237.857C221.767 226.493 201.334 229.342 189.651 240.375C177.968 251.408 173.428 268.049 171.772 284.033C170.116 300.017 170.807 316.307 167.236 331.974C163.665 347.641 154.745 363.282 139.908 369.452" stroke="white" stroke-width="3.324" stroke-linecap="round" stroke-linejoin="round"/>
<path d="M847.814 329.54L840.775 320.154" stroke="white" stroke-width="3.324" stroke-linecap="round" stroke-linejoin="round"/>
<path d="M807.926 388.2C810.877 383.741 814.914 380.108 819.658 377.641" stroke="white" stroke-width="3.324" stroke-linecap="round" stroke-linejoin="round"/>
<path d="M809.1 344.791L803.234 336.579" stroke="white" stroke-width="3.324" stroke-linecap="round" stroke-linejoin="round"/>
<path d="M774.078 474.921L768.172 464.385" stroke="white" stroke-width="3.324" stroke-linecap="round" stroke-linejoin="round"/>
<path d="M734.965 445.426L747.657 434.617" stroke="white" stroke-width="3.324" stroke-linecap="round" stroke-linejoin="round"/>
<path d="M784.461 429.263L782.115 415.185" stroke="white" stroke-width="3.324" stroke-linecap="round" stroke-linejoin="round"/>
<path d="M702.336 521.946L711.722 506.694" stroke="white" stroke-width="3.324" stroke-linecap="round" stroke-linejoin="round"/>
<path d="M665.967 493.79L651.889 489.1" stroke="white" stroke-width="3.324" stroke-linecap="round" stroke-linejoin="round"/>
<path d="M622.561 538.371L629.6 525.471" stroke="white" stroke-width="3.324" stroke-linecap="round" stroke-linejoin="round"/>
<path d="M582.67 501.999C579.186 498.153 574.73 495.317 569.771 493.787" stroke="white" stroke-width="3.324" stroke-linecap="round" stroke-linejoin="round"/>
<path d="M565.072 554.799L572.111 544.24" stroke="white" stroke-width="3.324" stroke-linecap="round" stroke-linejoin="round"/>
<path d="M495.852 554.8L488.812 546.588" stroke="white" stroke-width="3.324" stroke-linecap="round" stroke-linejoin="round"/>
<path d="M466.521 504.348C470.433 499.655 474.343 494.962 478.253 490.27" stroke="white" stroke-width="3.324" stroke-linecap="round" stroke-linejoin="round"/>
<path d="M416.135 528.955C415.181 527.161 413.836 525.605 412.199 524.401C410.562 523.197 408.676 522.377 406.68 522" stroke="white" stroke-width="3.324" stroke-linecap="round" stroke-linejoin="round"/>
<path d="M347.969 578.225L356.953 562.74" stroke="white" stroke-width="3.324" stroke-linecap="round" stroke-linejoin="round"/>
<path d="M342.161 639.267L333.949 631.055" stroke="white" stroke-width="3.324" stroke-linecap="round" stroke-linejoin="round"/>
<path d="M306.834 618.057L314.979 606.278" stroke="white" stroke-width="3.324" stroke-linecap="round" stroke-linejoin="round"/>
<path d="M338.644 693.234L330.432 706.134" stroke="white" stroke-width="3.324" stroke-linecap="round" stroke-linejoin="round"/>
<path d="M365.626 728.431L357.414 719.045" stroke="white" stroke-width="3.324" stroke-linecap="round" stroke-linejoin="round"/>
<path d="M424.424 743.82L432.659 735.63" stroke="white" stroke-width="3.324" stroke-linecap="round" stroke-linejoin="round"/>
<path d="M401.999 762.453L393.787 755.414" stroke="white" stroke-width="3.324" stroke-linecap="round" stroke-linejoin="round"/>
<path d="M499.07 460.173C500.79 482.336 505.323 505.131 518.436 523.082C521.77 527.647 525.77 531.946 530.92 534.282C536.07 536.618 542.566 536.61 547 533.1C550.489 530.338 552.233 525.828 552.6 521.394C552.967 516.96 552.134 512.523 551.3 508.152C548.767 494.898 546.236 481.645 543.708 468.392" stroke="white" stroke-width="3.324" stroke-linecap="round" stroke-linejoin="round"/>
<g opacity="0.1">
<path d="M563.929 322.665C560.291 325.449 557.429 329.065 553.961 332.065C549.998 335.303 545.721 338.136 541.194 340.521C532.494 345.354 523.001 348.598 513.163 350.101L517.924 351.36L516.461 350.179C512.067 346.633 503.846 348.456 504.236 355.243C504.636 362.201 504.916 369.309 503.424 376.164C502.747 379.483 501.665 382.707 500.204 385.764C498.443 389.317 495.752 392.313 494.821 396.216C493.062 403.59 501.132 410.662 508.042 406.38C516.006 401.443 519.88 389.121 521.319 380.28C522.931 370.38 522.186 360.642 517.581 351.624V358.853L518.689 357.286L515.765 359.534C526.345 357.651 536.435 353.645 545.427 347.759C549.54 344.966 553.368 341.776 556.856 338.234C560.594 334.534 564.91 330.661 567.008 325.744C567.758 323.985 565.963 321.109 563.929 322.665Z" fill="white"/>
</g>
<g opacity="0.1">
<path d="M438.474 646.549C447.24 630.698 453.364 612.662 459.374 595.613C465.453 578.358 470.605 560.79 474.808 542.985C476.255 536.857 472 531.663 465.884 531.271C449.466 530.217 430.726 532.988 416.202 541.154C408.97 545.22 401.728 549.268 395.11 554.314C388.802 559.126 383.21 565.451 378.04 571.486C367.265 584.087 359.505 598.978 355.348 615.029C353.313 623.184 352.508 631.597 352.96 639.991C353.157 644.041 353.557 648.08 354.16 652.091C354.755 656.21 354.886 659.843 357.36 663.291C358.541 664.936 361.454 664.977 361.987 662.686C362.887 658.83 362.023 655.753 361.824 651.844C361.664 648.157 361.727 644.464 362.011 640.785C362.695 633.082 364.046 625.453 366.049 617.985C369.577 603.443 376.519 589.952 386.3 578.628C391.235 573.015 397.011 569.103 403.161 565.014C409.123 561.05 415.388 557.526 422.303 555.623C429.235 553.715 436.212 551.058 443.409 550.31C450.873 549.502 458.391 549.325 465.885 549.779L456.961 538.065C452.798 555.525 448.061 572.907 442.661 590.026C437.261 607.145 430.042 623.626 424.508 640.662C421.828 648.911 434.297 654.1 438.473 646.549H438.474Z" fill="white"/>
</g>
<g opacity="0.1">
<path d="M293.938 652.045C292.231 656.052 290.869 658.728 290.938 663.211C291.007 667.864 291.104 672.434 291.626 677.063C292.691 686.507 295.803 695.293 299.656 703.947C307.136 720.947 318.336 736.052 332.43 748.147C363.455 774.567 405.393 785.717 445.511 786.295C470.82 786.66 496.146 782.955 520.82 777.568C526.857 776.251 530.382 769.224 528.809 763.499C527.096 757.267 520.794 754.189 514.739 755.51C477.365 763.669 437.833 767.405 400.339 757.871C368.611 749.804 336.939 731.679 318.618 703.796C313.438 695.912 309.802 687.657 306.402 678.91C304.794 674.775 303.27 670.638 301.99 666.388C301.316 664.153 301.107 661.841 300.62 659.566C300.041 656.859 298.598 655.066 297.539 652.518C296.986 651.19 294.69 650.288 293.939 652.047L293.938 652.045Z" fill="white"/>
</g>
</g>
<defs>
<clipPath id="clip0_318_281">
<rect width="960" height="960" fill="white"/>
</clipPath>
</defs>
</svg>
