<svg xmlns="http://www.w3.org/2000/svg" width="884" height="677" fill="none" viewBox="0 0 884 677"><mask id="a" width="884" height="677" x="0" y="0" maskUnits="userSpaceOnUse" style="mask-type:luminance"><path fill="#fff" d="M884 0H0v677h884V0Z"/></mask><g mask="url(#a)"><path fill="#171717" fill-rule="evenodd" d="M490.894 246.142c12.743-40.916-14.757-55.007-14.757-55.007s23.474-60.369-24.816-91.222c-48.29-30.853-93.9 32.868-93.9 32.868s-29.513-22.14-58.352 3.354c-28.839 25.494-18.111 71.104-5.369 95.248 0 0-39.576 2.68-42.255 42.256a106.485 106.485 0 0 0 1.225 25.38l.01.009a85.154 85.154 0 0 0 11.706 31.272 41.75 41.75 0 0 0 3.155 4.371c-28.839 83.171 70.429 83.171 70.429 83.171s70.429 12.078 124.752-38.9c31.118-29.2 22.632-55.758 9.7-73.119h-.01a94.68 94.68 0 0 0-21.759-20.781s27.498 2.016 40.241-38.9Zm-64.082-146.109a1.499 1.499 0 1 0-.622 2.934c11.128 2.356 26.419 9.78 36.074 24.325 9.603 14.468 13.801 36.242 2.328 67.694l-.36.986.803.676c6.629 5.578 14.208 15.799 15.499 28.269 1.278 12.349-3.578 27.258-22.472 42.413a1.5 1.5 0 0 0 1.878 2.34c19.506-15.645 24.983-31.486 23.578-45.062-1.34-12.951-8.914-23.515-15.756-29.569 11.291-31.635 7.136-54.139-2.999-69.406-10.187-15.347-26.246-23.123-37.951-25.6Z" clip-rule="evenodd"/><path fill="#171717" d="m705.969 127.869 1.796 133.808-188.701-8.162V127.869h186.905Zm-160.251 417.92c-.4.874-26.359 56.651-45.886 74.838-19.669 18.339-47.861 9.255-47.861 9.255l-8.073-50.076s20.619 9.074 44.764-5.236c24.145-14.31 22.805-28.192 22.805-28.192 11.949 2.166 23.703 2.271 34.251-.589Z"/><path fill="#fff" fill-opacity=".96" d="M287.749 119.869c3.164 7.107-11.287 20.429-32.269 29.769-20.981 9.34-40.555 11.146-43.719 4.039-1.976-4.438 2.443-10.063 11.518-16.866l.065-.067 7.886 9s22.977-1.169 34.731-15.451c2.974-3.62 4.219-8.456 4.409-13.664 9.682-1.492 15.574-.818 17.379 3.24Z"/><path fill="#fff" fill-opacity=".96" d="M270.371 116.628c-.19 5.208-1.435 10.044-4.409 13.664-11.754 14.282-34.73 15.451-34.73 15.451l-7.887-9-3.953-4.5-12.1-13.806-6.7-7.649c1.312 1.282 3.64 1.976 6.7 2.109 6.8.3 17.218-2.128 28.126-6.984 10.908-4.856 19.688-10.965 24.012-16.22 2.157-2.622 3.212-5.036 2.86-6.965l.124-.019s8.536 18.564 7.957 33.919Z"/><path fill="#fff" fill-opacity=".96" d="M200.6 110.785a3.685 3.685 0 0 1-.874-1.226c-2.508-5.635 9.407-16.42 26.606-24.069 17.199-7.649 33.19-9.293 35.7-3.649.126.282.216.579.266.884.352 1.929-.7 4.343-2.86 6.965a98.474 98.474 0 0 0-28.554 6.015c-14.077 5.483-23.584 17.194-23.584 17.194-3.064-.138-5.392-.832-6.7-2.114Z"/><path fill="#171717" d="M230.88 95.706a98.507 98.507 0 0 1 28.554-6.015c-4.324 5.255-13.1 11.365-24.012 16.22-10.912 4.855-21.321 7.289-28.121 6.989 0 0 9.507-11.711 23.579-17.194Z"/><path stroke="#171717" stroke-linecap="round" stroke-linejoin="round" stroke-width="3" d="M252.668 299.021a106.485 106.485 0 0 1-1.225-25.38c2.679-39.576 42.255-42.256 42.255-42.256-12.742-24.144-23.47-69.754 5.369-95.248s58.352-3.354 58.352-3.354 45.61-63.721 93.9-32.868c48.29 30.853 24.819 91.22 24.819 91.22s27.5 14.091 14.757 55.007-40.241 38.9-40.241 38.9a94.68 94.68 0 0 1 21.759 20.781m.009.001c12.932 17.361 21.418 43.919-9.7 73.119-54.323 50.978-124.752 38.9-124.752 38.9s-99.268 0-70.429-83.171a41.54 41.54 0 0 1-3.155-4.371 85.14 85.14 0 0 1-11.706-31.272"/><path stroke="#171717" stroke-linecap="round" stroke-linejoin="round" stroke-width="3" d="M264.384 330.299s-18.89 15.592-30.035 53.373c-5.873 19.9-9.6 45.942-7.279 79.113m245.34-156.961h.01c3.592.827 7.122 1.9 10.566 3.212 15.137 5.578 43.054 19.7 60.215 51.644 8.618 16.039 14.538 36.563 14.766 62.761"/><path stroke="#171717" stroke-linecap="round" stroke-linejoin="round" stroke-width="3" d="M627.499 343.481c-2.832-6.689-7.906-11.773-18.225-13.179-9.692-1.321-21.646-3.193-32.013-1.758-7.934 1.1-14.937 4.133-19.3 10.823-10.057 15.433-14.762 21.313-14.762 21.313m2.53 185.098c13.436-3.639 24.924-12.115 32.364-27.318 12.077-24.677 37.942-97.995 48.469-136.8 3.201-11.83 4.989-20.448 4.514-23.508-.8-5.179-1.7-10.272-3.572-14.662m-159.749 91.799s-3.686 97.253 28.507 107.316a126.846 126.846 0 0 0 15.2 3.772c11.953 2.166 23.707 2.271 34.255-.589m-61.161 128.999c-73.916-.18-240.762-13.35-252.564-33.589-14.082-24.145-42.93-156.945-42.93-156.945s-7.744-19.081 38.017-21.254c2.775-.142 5.756-.211 8.942-.209 55.663 0 130.121-4.028 163.653 0 33.532 4.028 34.208 55 34.208 55l10.015 62.02 8.077 50.076 3.7 22.947s5.607 21.1 28.877 21.959m.004-.005h.076m99.049-155.662s55.6.675 47.472 12.742-81.6 135.49-115.962 141.524c-5.55.978-16.325 1.425-30.559 1.4"/><path stroke="#171717" stroke-linecap="round" stroke-linejoin="round" stroke-width="3" d="M225.225 433.94H58.94L196.442 62.363l685.486 22.805-124.087 375.825-145.543-7.602"/><path stroke="#171717" stroke-linecap="round" stroke-linejoin="round" stroke-width="3" d="M621.461 322.823a.435.435 0 0 1 .038-.057c.048-.105.2-.381.418-.8.076-.152.162-.313.257-.494 3.915-7.316 22.795-41.714 30.587-39.12 8.647 2.879-24.7 60.186-25.256 61.127v.009m-18.56-24.912a.032.032 0 0 1 .01-.019v-.009a.166.166 0 0 1 .019-.048.368.368 0 0 0 .028-.085c1.121-2.946 17.265-45.126 26.549-42.541 8.609 2.4-9.512 38.17-13.379 45.6"/><path stroke="#171717" stroke-linecap="round" stroke-linejoin="round" stroke-width="3" d="M577.19 328.03s-25.931-6.1-22.358-16.828c3.573-10.728 38.236 6.033 38.236 6.033s11.4-46.056 21.237-44.716c9.493 1.292-4.314 42.939-5.3 45.9"/><path stroke="#171717" stroke-linecap="round" stroke-linejoin="round" stroke-width="3" d="M626.552 381.66h48.565l42.484-109.169V117.58l-206.584 3.135 1.787 140.963-29.818 47.358m29.819-47.358 204.797 10.813"/><path stroke="#171717" stroke-linecap="round" stroke-linejoin="round" stroke-width="3" d="M519.064 127.869v125.646l188.701 8.162-1.796-133.808H519.064ZM252.677 299.03l-.01-.009-19.336-37.343-83.618 28.059 23.698 112.685 60.937-18.747M200.6 110.785a3.685 3.685 0 0 1-.874-1.226c-2.508-5.635 9.407-16.42 26.606-24.069 17.199-7.649 33.19-9.293 35.7-3.649.126.282.216.579.266.884.352 1.929-.7 4.343-2.86 6.965-4.324 5.255-13.1 11.365-24.012 16.22-10.912 4.855-21.326 7.289-28.126 6.989-3.064-.138-5.392-.832-6.7-2.114Z"/><path stroke="#171717" stroke-linecap="round" stroke-linejoin="round" stroke-width="3" d="m200.234 110.376.361.409 6.7 7.649 12.1 13.806 3.953 4.5 7.887 9s22.976-1.169 34.73-15.451c2.974-3.62 4.219-8.456 4.409-13.664.579-15.355-7.953-33.922-7.953-33.922"/><path stroke="#171717" stroke-linecap="round" stroke-linejoin="round" stroke-width="3" d="M270.3 116.639c.019 0 .048-.01.067-.01 9.682-1.491 15.574-.817 17.379 3.241 3.164 7.107-11.288 20.429-32.269 29.769-20.981 9.34-40.555 11.146-43.719 4.039-1.976-4.438 2.442-10.063 11.517-16.866m-15.976-18.378s-7.848 6.461-2.062 13.436 14.158.37 14.158.37m-12.094-19.341s9.512-11.706 23.584-17.19a98.507 98.507 0 0 1 28.554-6.014m-85.134 217.031 48.299-14.757m-40.252 36.062 52.965-17.722m-40.44 38.901c1.786-.894 44.27-14.757 44.27-14.757m212.826 295.429s28.192 9.084 47.861-9.255c19.527-18.187 45.487-73.964 45.886-74.838l.009-.01m-101.831 34.026s20.619 9.074 44.764-5.236c24.145-14.31 22.805-28.192 22.805-28.192m113.154-116.22a107.362 107.362 0 0 0 9.67-33.12M271.934 217.7a77.733 77.733 0 0 1-2.694-37.118M225.077 74.304a30.704 30.704 0 0 1-13.033-26.919c.506-7.333 3.681-14.339 3.745-21.689A26.5 26.5 0 0 0 200.1 1.689m7.991 77.166c-5.457-2.96-8.178-9.377-8.9-15.542-.722-6.165.158-12.407-.12-18.608-.278-6.201-1.973-12.775-6.68-16.822m293.346 86.027a49.804 49.804 0 0 0-22.251-23.56m144.828 289.255-2.693-12.742m-37.596-5.358a22.307 22.307 0 0 1 9.391-5.366m1.945 50.865 8.735-5.34m4.076 41-3.354-12.074m-34.877 22.81 8.72-4.695m5.494 44.235-2.723-12.735m-34.305 23.476 10.722-6.052m-38.883 28.205a33.656 33.656 0 0 0-5.366-12.744m22.263-38.306-5.4-9.372m-30.277-21.407 8.049-5.366m30.308-34.282-4.731-8.029m-23.566-31.47 9.065-4.741-1.687.046m-44.187 58.936-7.4-6.679m9.389 134.908 6.022-10.74m-16.847-34.872a13.249 13.249 0 0 0-9.208-5.319l1.871-1.418m-21.463-48.962 6.036-7.378m-53.628 5.981a18.04 18.04 0 0 1-6.225-7.251m-63.566 14.013 8.719-9.39m-34.163-10.798a14.162 14.162 0 0 1-5.593-7.249m-32.682 20.059 5.366-6.037m6.706-40.913-4.695-7.378m103.355-288.455-6.677-10.082m-2.897 9.987 10.606-9.53m65.308-40.641a27.411 27.411 0 0 1 10.061-8.049"/><path stroke="#171717" stroke-linecap="round" stroke-linejoin="round" stroke-width="3" d="m423.311 51.513-9.457-13.54a1.103 1.103 0 0 0 1.867.2M659.223 303.8a22.223 22.223 0 0 0 4.741-16.751M544.59 305.86a15.646 15.646 0 0 1 12.7-6.844M18.065 408.193a113.374 113.374 0 0 0 76.034 152.253c9.618 2.546 19.893 3.8 29.468 1.1 9.575-2.7 18.295-10.014 20.469-19.722 2.174-9.708-3.944-21.16-13.742-22.888-10.681-1.883-20.044 7.238-25.871 16.385-10.656 16.73-15.773 40.656-2.243 55.161 12.2 13.084 35.521 13.819 43.606 29.78a21.932 21.932 0 0 1-24.051 31.378m583.136.249c-6.628 2.8-14.67-.253-19.339-5.727-4.669-5.474-6.511-12.83-7.152-20a73.51 73.51 0 0 1 66.625-79.763c8.3-.748 18.15.791 22.118 8.115 4.836 8.929-4.424 20.968-14.56 20.361-10.136-.607-17.827-11.054-17.6-21.205.227-10.151 6.818-19.328 15.147-25.136s18.264-8.78 28.068-11.421c9.804-2.641 19.806-5.093 28.663-10.059 23.6-13.234 34.666-45.127 24.329-70.134m-42.471 38.945 13.079-8.049m-3.077 11.099-8.982-17.142M660.924 586.535 674 580.5m-6.041 11.069a31.431 31.431 0 0 1-2.985-16.1m-511.122 18.108 10.061-6.036m-5.212 11.124-5.152-17.065M1.93 535.224 14 525.164m-3.565 11.665a24.813 24.813 0 0 1-6.171-14.636M352.95 46.158l-5.45-12.033m-4.869 9.39 15.839-7.892"/><path fill="#171717" d="M211.121 119.313c1.716 4.727 5.169 7.66 8.711 11.049 3.591 3.435 7.032 7.053 10.343 10.758 5.519 6.176 14.577-2.933 9.082-9.082a113.612 113.612 0 0 0-11.177-10.928c-3.992-3.389-7.775-6.347-13.162-6.782a3.968 3.968 0 0 0-1.744.416 3.97 3.97 0 0 0-2.117 2.778 3.956 3.956 0 0 0 .061 1.791h.003Zm242.911 522.844c4.764 3.418 12.086 2.836 17.623 2.234a66.165 66.165 0 0 0 16.879-4.264c11.8-4.608 22.486-12.234 31.4-21.168 18.835-18.869 29.608-43.822 39.949-67.945 1.578-3.68 1.066-7.849-2.64-10.069-3.074-1.842-8.516-1.013-10.069 2.64-9.356 22.007-18.923 44.966-35.116 62.96a87.003 87.003 0 0 1-26.579 20.215 74.972 74.972 0 0 1-15.473 5.479c-5.186 1.246-11.2 1.015-15.978 3.442-2.724 1.384-2.117 4.957 0 6.476h.004ZM199.787 470.855c-4.433 4.328-6.253 10.988-6.946 16.919-.822 7.032.641 14.165 1.874 21.1 2.72 15.287 6.277 30.37 10.028 45.433 7.49 30.074 16.452 59.787 26.254 89.183 3.285 9.851 18.943 5.636 15.64-4.311-9.266-27.9-17.472-56.094-25.133-84.47-3.786-14.024-7.086-28.173-10.856-42.2-1.733-6.45-3.621-12.922-4.723-19.519-.582-3.484-.923-6.916-1.39-10.4-.236-1.758-.942-3.247-.9-5.071.042-1.679.449-3.2.389-4.9a2.522 2.522 0 0 0-1.551-2.254 2.506 2.506 0 0 0-1.419-.149 2.507 2.507 0 0 0-1.271.646l.004-.007Z" opacity=".1"/></g></svg>