<svg width="884" height="677" viewBox="0 0 884 677" fill="none" xmlns="http://www.w3.org/2000/svg">
<mask id="mask0_318_2193" style="mask-type:luminance" maskUnits="userSpaceOnUse" x="0" y="0" width="884" height="677">
<path d="M884 0H0V677H884V0Z" fill="white"/>
</mask>
<g mask="url(#mask0_318_2193)">
<path fill-rule="evenodd" clip-rule="evenodd" d="M490.894 246.142C503.637 205.226 476.137 191.135 476.137 191.135C476.137 191.135 499.611 130.766 451.321 99.913C403.031 69.06 357.421 132.781 357.421 132.781C357.421 132.781 327.908 110.641 299.069 136.135C270.23 161.629 280.958 207.239 293.7 231.383C293.7 231.383 254.124 234.063 251.445 273.639C250.839 282.117 251.25 290.638 252.67 299.019L252.68 299.028C254.48 310.122 258.458 320.75 264.386 330.3C265.342 331.823 266.396 333.283 267.541 334.671C238.702 417.842 337.97 417.842 337.97 417.842C337.97 417.842 408.399 429.92 462.722 378.942C493.84 349.742 485.354 323.184 472.422 305.823H472.412C466.313 297.78 458.967 290.765 450.653 285.042C450.653 285.042 478.151 287.058 490.894 246.142ZM426.812 100.033C426.001 99.861 425.205 100.379 425.034 101.189C424.862 102 425.38 102.796 426.19 102.967C437.318 105.323 452.609 112.747 462.264 127.292C471.867 141.76 476.065 163.534 464.592 194.986L464.232 195.972L465.035 196.648C471.664 202.226 479.243 212.447 480.534 224.917C481.812 237.266 476.956 252.175 458.062 267.33C457.416 267.848 457.313 268.792 457.831 269.439C458.349 270.085 459.293 270.188 459.94 269.67C479.446 254.025 484.923 238.184 483.518 224.608C482.178 211.657 474.604 201.093 467.762 195.039C479.053 163.404 474.898 140.9 464.763 125.633C454.576 110.286 438.517 102.51 426.812 100.033Z" fill="#171717"/>
<path d="M705.969 127.869L707.765 261.677L519.064 253.515V127.869H705.969Z" fill="#171717"/>
<path d="M545.718 545.789C545.318 546.663 519.359 602.44 499.832 620.627C480.163 638.966 451.971 629.882 451.971 629.882L443.898 579.806C443.898 579.806 464.517 588.88 488.662 574.57C512.807 560.26 511.467 546.378 511.467 546.378C523.416 548.544 535.17 548.649 545.718 545.789Z" fill="#171717"/>
<path d="M287.749 119.869C290.913 126.976 276.462 140.298 255.48 149.638C234.499 158.978 214.925 160.784 211.761 153.677C209.785 149.239 214.204 143.614 223.279 136.811L223.344 136.744L231.23 145.744C231.23 145.744 254.207 144.575 265.961 130.293C268.935 126.673 270.18 121.837 270.37 116.629C280.052 115.137 285.944 115.811 287.749 119.869Z" fill="white" fill-opacity="0.96"/>
<path d="M270.371 116.628C270.181 121.836 268.936 126.672 265.962 130.292C254.208 144.574 231.232 145.743 231.232 145.743L223.345 136.743L219.392 132.243L207.292 118.437L200.592 110.788C201.904 112.07 204.232 112.764 207.292 112.897C214.092 113.197 224.51 110.769 235.418 105.913C246.326 101.057 255.106 94.948 259.43 89.693C261.587 87.071 262.642 84.657 262.29 82.728L262.414 82.709C262.414 82.709 270.95 101.273 270.371 116.628Z" fill="white" fill-opacity="0.96"/>
<path d="M200.6 110.785C200.227 110.441 199.93 110.023 199.726 109.559C197.218 103.924 209.133 93.139 226.332 85.49C243.531 77.841 259.522 76.197 262.032 81.841C262.158 82.123 262.248 82.42 262.298 82.725C262.65 84.654 261.598 87.068 259.438 89.69C249.674 90.266 240.05 92.293 230.884 95.705C216.807 101.188 207.3 112.899 207.3 112.899C204.236 112.761 201.908 112.067 200.6 110.785Z" fill="white" fill-opacity="0.96"/>
<path d="M230.88 95.7059C240.046 92.2949 249.67 90.2669 259.434 89.6909C255.11 94.9459 246.334 101.056 235.422 105.911C224.51 110.766 214.101 113.2 207.301 112.9C207.301 112.9 216.808 101.189 230.88 95.7059Z" fill="#171717"/>
<path d="M252.668 299.021C251.248 290.64 250.837 282.119 251.443 273.641C254.122 234.065 293.698 231.385 293.698 231.385C280.956 207.241 270.228 161.631 299.067 136.137C327.906 110.643 357.419 132.783 357.419 132.783C357.419 132.783 403.029 69.0619 451.319 99.9149C499.609 130.768 476.138 191.135 476.138 191.135C476.138 191.135 503.638 205.226 490.895 246.142C478.152 287.058 450.654 285.042 450.654 285.042C458.968 290.765 466.314 297.78 472.413 305.823" stroke="#171717" stroke-width="3" stroke-linecap="round" stroke-linejoin="round"/>
<path d="M472.422 305.824C485.354 323.185 493.84 349.743 462.722 378.943C408.399 429.921 337.97 417.843 337.97 417.843C337.97 417.843 238.702 417.843 267.541 334.672C266.396 333.285 265.342 331.825 264.386 330.301C258.458 320.752 254.48 310.124 252.68 299.029" stroke="#171717" stroke-width="3" stroke-linecap="round" stroke-linejoin="round"/>
<path d="M264.384 330.299C264.384 330.299 245.494 345.891 234.349 383.672C228.476 403.572 224.749 429.614 227.07 462.785" stroke="#171717" stroke-width="3" stroke-linecap="round" stroke-linejoin="round"/>
<path d="M472.41 305.824H472.42C476.012 306.651 479.542 307.724 482.986 309.036C498.123 314.614 526.04 328.736 543.201 360.68C551.819 376.719 557.739 397.243 557.967 423.441" stroke="#171717" stroke-width="3" stroke-linecap="round" stroke-linejoin="round"/>
<path d="M627.499 343.481C624.667 336.792 619.593 331.708 609.274 330.302C599.582 328.981 587.628 327.109 577.261 328.544C569.327 329.644 562.324 332.677 557.961 339.367C547.904 354.8 543.199 360.68 543.199 360.68" stroke="#171717" stroke-width="3" stroke-linecap="round" stroke-linejoin="round"/>
<path d="M545.729 545.778C559.165 542.139 570.653 533.663 578.093 518.46C590.17 493.783 616.035 420.465 626.562 381.66C629.763 369.83 631.551 361.212 631.076 358.152C630.276 352.973 629.376 347.88 627.504 343.49" stroke="#171717" stroke-width="3" stroke-linecap="round" stroke-linejoin="round"/>
<path d="M467.755 435.289C467.755 435.289 464.069 532.542 496.262 542.605C501.246 544.174 506.322 545.434 511.462 546.377C523.415 548.543 535.169 548.648 545.717 545.788" stroke="#171717" stroke-width="3" stroke-linecap="round" stroke-linejoin="round"/>
<path d="M484.556 674.787C410.64 674.607 243.794 661.437 231.992 641.198C217.91 617.053 189.062 484.253 189.062 484.253C189.062 484.253 181.318 465.172 227.079 462.999C229.854 462.857 232.835 462.788 236.021 462.79C291.684 462.79 366.142 458.762 399.674 462.79C433.206 466.818 433.882 517.79 433.882 517.79L443.897 579.81L451.974 629.886L455.674 652.833C455.674 652.833 461.281 673.933 484.551 674.792" stroke="#171717" stroke-width="3" stroke-linecap="round" stroke-linejoin="round"/>
<path d="M484.555 674.787H484.631" stroke="#171717" stroke-width="3" stroke-linecap="round" stroke-linejoin="round"/>
<path d="M583.68 519.125C583.68 519.125 639.28 519.8 631.152 531.867C623.024 543.934 549.552 667.357 515.19 673.391C509.64 674.369 498.865 674.816 484.631 674.791" stroke="#171717" stroke-width="3" stroke-linecap="round" stroke-linejoin="round"/>
<path d="M225.225 433.94H58.9395L196.443 62.363L881.929 85.168L757.842 460.993L612.299 453.391" stroke="#171717" stroke-width="3" stroke-linecap="round" stroke-linejoin="round"/>
<path d="M621.461 322.823C621.472 322.803 621.485 322.784 621.499 322.766C621.547 322.661 621.699 322.385 621.917 321.966C621.993 321.814 622.079 321.653 622.174 321.472C626.089 314.156 644.969 279.758 652.761 282.352C661.408 285.231 628.061 342.538 627.505 343.479V343.488" stroke="#171717" stroke-width="3" stroke-linecap="round" stroke-linejoin="round"/>
<path d="M608.945 318.576C608.946 318.568 608.95 318.562 608.955 318.557V318.548C608.959 318.531 608.965 318.515 608.974 318.5C608.987 318.473 608.996 318.444 609.002 318.415C610.123 315.469 626.267 273.289 635.551 275.874C644.16 278.274 626.039 314.044 622.172 321.474" stroke="#171717" stroke-width="3" stroke-linecap="round" stroke-linejoin="round"/>
<path d="M577.19 328.03C577.19 328.03 551.259 321.93 554.832 311.202C558.405 300.474 593.068 317.235 593.068 317.235C593.068 317.235 604.468 271.179 614.305 272.519C623.798 273.811 609.991 315.458 609.005 318.419" stroke="#171717" stroke-width="3" stroke-linecap="round" stroke-linejoin="round"/>
<path d="M626.552 381.66H626.562H675.117L717.601 272.491V117.58L511.017 120.715L512.804 261.678L482.986 309.036" stroke="#171717" stroke-width="3" stroke-linecap="round" stroke-linejoin="round"/>
<path d="M512.805 261.678L717.602 272.491" stroke="#171717" stroke-width="3" stroke-linecap="round" stroke-linejoin="round"/>
<path d="M519.064 127.869V253.515L707.765 261.677L705.969 127.869H519.064Z" stroke="#171717" stroke-width="3" stroke-linecap="round" stroke-linejoin="round"/>
<path d="M252.677 299.03L252.667 299.021L233.331 261.678L149.713 289.737L173.411 402.422L234.348 383.675" stroke="#171717" stroke-width="3" stroke-linecap="round" stroke-linejoin="round"/>
<path d="M200.6 110.785C200.227 110.441 199.93 110.023 199.726 109.559C197.218 103.924 209.133 93.139 226.332 85.49C243.531 77.841 259.522 76.197 262.032 81.841C262.158 82.123 262.248 82.42 262.298 82.725C262.65 84.654 261.598 87.068 259.438 89.69C255.114 94.945 246.338 101.055 235.426 105.91C224.514 110.765 214.1 113.199 207.3 112.899C204.236 112.761 201.908 112.067 200.6 110.785Z" stroke="#171717" stroke-width="3" stroke-linecap="round" stroke-linejoin="round"/>
<path d="M200.234 110.376L200.595 110.785L207.295 118.434L219.395 132.24L223.348 136.74L231.235 145.74C231.235 145.74 254.211 144.571 265.965 130.289C268.939 126.669 270.184 121.833 270.374 116.625C270.953 101.27 262.421 82.703 262.421 82.703" stroke="#171717" stroke-width="3" stroke-linecap="round" stroke-linejoin="round"/>
<path d="M270.3 116.639C270.319 116.639 270.348 116.629 270.367 116.629C280.049 115.138 285.941 115.812 287.746 119.87C290.91 126.977 276.458 140.299 255.477 149.639C234.496 158.979 214.922 160.785 211.758 153.678C209.782 149.24 214.2 143.615 223.275 136.812" stroke="#171717" stroke-width="3" stroke-linecap="round" stroke-linejoin="round"/>
<path d="M207.299 118.434C207.299 118.434 199.451 124.895 205.237 131.87C211.023 138.845 219.395 132.24 219.395 132.24" stroke="#171717" stroke-width="3" stroke-linecap="round" stroke-linejoin="round"/>
<path d="M207.301 112.899C207.301 112.899 216.813 101.193 230.885 95.7099C240.051 92.2989 249.675 90.2709 259.439 89.6949" stroke="#171717" stroke-width="3" stroke-linecap="round" stroke-linejoin="round"/>
<path d="M174.305 306.726L222.604 291.969" stroke="#171717" stroke-width="3" stroke-linecap="round" stroke-linejoin="round"/>
<path d="M182.352 328.031L235.317 310.309" stroke="#171717" stroke-width="3" stroke-linecap="round" stroke-linejoin="round"/>
<path d="M194.877 349.21C196.663 348.316 239.147 334.453 239.147 334.453" stroke="#171717" stroke-width="3" stroke-linecap="round" stroke-linejoin="round"/>
<path d="M451.973 629.882C451.973 629.882 480.165 638.966 499.834 620.627C519.361 602.44 545.321 546.663 545.72 545.789L545.729 545.779" stroke="#171717" stroke-width="3" stroke-linecap="round" stroke-linejoin="round"/>
<path d="M443.898 579.805C443.898 579.805 464.517 588.879 488.662 574.569C512.807 560.259 511.467 546.377 511.467 546.377" stroke="#171717" stroke-width="3" stroke-linecap="round" stroke-linejoin="round"/>
<path d="M624.621 430.157C629.609 419.711 632.874 408.526 634.291 397.037" stroke="#171717" stroke-width="3" stroke-linecap="round" stroke-linejoin="round"/>
<path d="M271.934 217.7C268.044 205.728 267.119 192.99 269.24 180.582" stroke="#171717" stroke-width="3" stroke-linecap="round" stroke-linejoin="round"/>
<path d="M225.077 74.304C220.79 71.3 217.343 67.25 215.062 62.539C212.781 57.827 211.742 52.611 212.044 47.385C212.55 40.052 215.725 33.046 215.789 25.696C215.753 20.611 214.254 15.644 211.472 11.387C208.69 7.12996 204.742 3.76396 200.1 1.68896" stroke="#171717" stroke-width="3" stroke-linecap="round" stroke-linejoin="round"/>
<path d="M208.091 78.8549C202.634 75.8959 199.913 69.4779 199.191 63.3129C198.469 57.1479 199.349 50.9059 199.071 44.7049C198.793 38.5039 197.098 31.9299 192.391 27.8829" stroke="#171717" stroke-width="3" stroke-linecap="round" stroke-linejoin="round"/>
<path d="M485.737 113.91C481.154 103.796 473.322 95.503 463.486 90.35" stroke="#171717" stroke-width="3" stroke-linecap="round" stroke-linejoin="round"/>
<path d="M608.314 379.605L605.621 366.863" stroke="#171717" stroke-width="3" stroke-linecap="round" stroke-linejoin="round"/>
<path d="M568.025 361.505C570.668 358.973 573.893 357.13 577.416 356.139" stroke="#171717" stroke-width="3" stroke-linecap="round" stroke-linejoin="round"/>
<path d="M579.361 407.004L588.096 401.664" stroke="#171717" stroke-width="3" stroke-linecap="round" stroke-linejoin="round"/>
<path d="M592.172 442.664L588.818 430.59" stroke="#171717" stroke-width="3" stroke-linecap="round" stroke-linejoin="round"/>
<path d="M553.941 453.4L562.661 448.705" stroke="#171717" stroke-width="3" stroke-linecap="round" stroke-linejoin="round"/>
<path d="M568.155 492.94L565.432 480.205" stroke="#171717" stroke-width="3" stroke-linecap="round" stroke-linejoin="round"/>
<path d="M531.127 503.681L541.849 497.629" stroke="#171717" stroke-width="3" stroke-linecap="round" stroke-linejoin="round"/>
<path d="M502.966 525.834C502.079 521.26 500.251 516.921 497.6 513.09" stroke="#171717" stroke-width="3" stroke-linecap="round" stroke-linejoin="round"/>
<path d="M519.863 474.784L514.463 465.412" stroke="#171717" stroke-width="3" stroke-linecap="round" stroke-linejoin="round"/>
<path d="M484.186 444.005L492.235 438.639" stroke="#171717" stroke-width="3" stroke-linecap="round" stroke-linejoin="round"/>
<path d="M522.543 404.357L517.812 396.328" stroke="#171717" stroke-width="3" stroke-linecap="round" stroke-linejoin="round"/>
<path d="M494.246 364.858L503.311 360.117L501.624 360.163" stroke="#171717" stroke-width="3" stroke-linecap="round" stroke-linejoin="round"/>
<path d="M457.437 419.099L450.037 412.42" stroke="#171717" stroke-width="3" stroke-linecap="round" stroke-linejoin="round"/>
<path d="M459.426 547.328L465.448 536.588" stroke="#171717" stroke-width="3" stroke-linecap="round" stroke-linejoin="round"/>
<path d="M448.601 501.716C447.517 500.241 446.139 499.007 444.554 498.091C442.969 497.176 441.212 496.599 439.393 496.397L441.264 494.979" stroke="#171717" stroke-width="3" stroke-linecap="round" stroke-linejoin="round"/>
<path d="M419.801 446.017L425.837 438.639" stroke="#171717" stroke-width="3" stroke-linecap="round" stroke-linejoin="round"/>
<path d="M372.209 444.62C369.52 442.807 367.37 440.302 365.984 437.369" stroke="#171717" stroke-width="3" stroke-linecap="round" stroke-linejoin="round"/>
<path d="M302.418 451.382L311.137 441.992" stroke="#171717" stroke-width="3" stroke-linecap="round" stroke-linejoin="round"/>
<path d="M276.974 431.194C274.359 429.464 272.391 426.914 271.381 423.945" stroke="#171717" stroke-width="3" stroke-linecap="round" stroke-linejoin="round"/>
<path d="M238.699 444.004L244.065 437.967" stroke="#171717" stroke-width="3" stroke-linecap="round" stroke-linejoin="round"/>
<path d="M250.771 397.054L246.076 389.676" stroke="#171717" stroke-width="3" stroke-linecap="round" stroke-linejoin="round"/>
<path d="M349.431 101.221L342.754 91.1389" stroke="#171717" stroke-width="3" stroke-linecap="round" stroke-linejoin="round"/>
<path d="M339.857 101.126L350.463 91.5959" stroke="#171717" stroke-width="3" stroke-linecap="round" stroke-linejoin="round"/>
<path d="M415.771 50.955C418.437 47.511 421.886 44.752 425.832 42.906" stroke="#171717" stroke-width="3" stroke-linecap="round" stroke-linejoin="round"/>
<path d="M423.311 51.513L413.854 37.973C413.935 38.143 414.058 38.29 414.212 38.399C414.365 38.508 414.544 38.576 414.732 38.596C414.919 38.617 415.109 38.588 415.282 38.514C415.455 38.44 415.607 38.322 415.721 38.173" stroke="#171717" stroke-width="3" stroke-linecap="round" stroke-linejoin="round"/>
<path d="M659.223 303.8C661.1 301.471 662.488 298.787 663.303 295.908C664.117 293.03 664.342 290.016 663.964 287.049" stroke="#171717" stroke-width="3" stroke-linecap="round" stroke-linejoin="round"/>
<path d="M544.59 305.86C546.003 303.784 547.894 302.079 550.105 300.888C552.315 299.697 554.779 299.054 557.29 299.016" stroke="#171717" stroke-width="3" stroke-linecap="round" stroke-linejoin="round"/>
<path d="M18.0646 408.193C12.0069 423.111 9.19614 439.148 9.81934 455.236C10.4425 471.325 14.4853 487.096 21.6787 501.5C28.8721 515.905 39.0511 528.612 51.5382 538.776C64.025 548.939 78.534 556.327 94.099 560.446C103.717 562.992 113.992 564.246 123.567 561.546C133.142 558.846 141.862 551.532 144.036 541.824C146.21 532.116 140.092 520.664 130.294 518.936C119.613 517.053 110.25 526.174 104.423 535.321C93.767 552.051 88.65 575.977 102.18 590.482C114.38 603.566 137.701 604.301 145.786 620.262C147.653 623.948 148.441 628.086 148.059 632.2C147.677 636.314 146.141 640.236 143.628 643.515C141.114 646.794 137.726 649.296 133.853 650.734C129.979 652.171 125.779 652.486 121.735 651.64" stroke="#171717" stroke-width="3" stroke-linecap="round" stroke-linejoin="round"/>
<path d="M704.871 651.889C698.243 654.689 690.201 651.636 685.532 646.162C680.863 640.688 679.021 633.332 678.38 626.162C676.644 606.751 682.687 587.445 695.181 572.488C707.674 557.531 725.595 548.147 745.005 546.399C753.305 545.651 763.155 547.19 767.123 554.514C771.959 563.443 762.699 575.482 752.563 574.875C742.427 574.268 734.736 563.821 734.963 553.67C735.19 543.519 741.781 534.342 750.11 528.534C758.439 522.726 768.374 519.754 778.178 517.113C787.982 514.472 797.984 512.02 806.841 507.054C830.441 493.82 841.507 461.927 831.17 436.92" stroke="#171717" stroke-width="3" stroke-linecap="round" stroke-linejoin="round"/>
<path d="M788.699 475.865L801.778 467.816" stroke="#171717" stroke-width="3" stroke-linecap="round" stroke-linejoin="round"/>
<path d="M798.701 478.915L789.719 461.773" stroke="#171717" stroke-width="3" stroke-linecap="round" stroke-linejoin="round"/>
<path d="M660.924 586.535L674 580.5" stroke="#171717" stroke-width="3" stroke-linecap="round" stroke-linejoin="round"/>
<path d="M667.959 591.569C665.559 586.56 664.529 581.005 664.974 575.469" stroke="#171717" stroke-width="3" stroke-linecap="round" stroke-linejoin="round"/>
<path d="M153.852 593.577L163.913 587.541" stroke="#171717" stroke-width="3" stroke-linecap="round" stroke-linejoin="round"/>
<path d="M158.701 598.665L153.549 581.6" stroke="#171717" stroke-width="3" stroke-linecap="round" stroke-linejoin="round"/>
<path d="M1.92969 535.224L13.9997 525.164" stroke="#171717" stroke-width="3" stroke-linecap="round" stroke-linejoin="round"/>
<path d="M10.4347 536.829C6.82967 532.759 4.66157 527.616 4.26367 522.193" stroke="#171717" stroke-width="3" stroke-linecap="round" stroke-linejoin="round"/>
<path d="M352.95 46.158L347.5 34.125" stroke="#171717" stroke-width="3" stroke-linecap="round" stroke-linejoin="round"/>
<path d="M342.631 43.5149L358.47 35.6229" stroke="#171717" stroke-width="3" stroke-linecap="round" stroke-linejoin="round"/>
<g opacity="0.1">
<path d="M211.121 119.313C212.837 124.04 216.29 126.973 219.832 130.362C223.423 133.797 226.864 137.415 230.175 141.12C235.694 147.296 244.752 138.187 239.257 132.038C235.787 128.143 232.052 124.492 228.08 121.11C224.088 117.721 220.305 114.763 214.918 114.328C214.312 114.332 213.716 114.474 213.174 114.744C212.632 115.015 212.16 115.406 211.793 115.887C211.426 116.368 211.174 116.928 211.057 117.522C210.94 118.116 210.961 118.728 211.118 119.313H211.121Z" fill="#171717"/>
</g>
<g opacity="0.1">
<path d="M454.032 642.157C458.796 645.575 466.118 644.993 471.655 644.391C477.444 643.719 483.12 642.286 488.534 640.127C500.334 635.519 511.02 627.893 519.934 618.959C538.769 600.09 549.542 575.137 559.883 551.014C561.461 547.334 560.949 543.165 557.243 540.945C554.169 539.103 548.727 539.932 547.174 543.585C537.818 565.592 528.251 588.551 512.058 606.545C504.587 614.936 495.561 621.801 485.479 626.76C480.537 629.147 475.348 630.985 470.006 632.239C464.82 633.485 458.806 633.254 454.028 635.681C451.304 637.065 451.911 640.638 454.028 642.157H454.032Z" fill="#171717"/>
</g>
<g opacity="0.1">
<path d="M199.787 470.855C195.354 475.183 193.534 481.843 192.841 487.774C192.019 494.806 193.482 501.939 194.715 508.874C197.435 524.161 200.992 539.244 204.743 554.307C212.233 584.381 221.195 614.094 230.997 643.49C234.282 653.341 249.94 649.126 246.637 639.179C237.371 611.279 229.165 583.085 221.504 554.709C217.718 540.685 214.418 526.536 210.648 512.509C208.915 506.059 207.027 499.587 205.925 492.99C205.343 489.506 205.002 486.074 204.535 482.59C204.299 480.832 203.593 479.343 203.635 477.519C203.677 475.84 204.084 474.319 204.024 472.619C204.01 472.134 203.857 471.663 203.582 471.263C203.306 470.863 202.921 470.551 202.473 470.365C202.024 470.179 201.532 470.127 201.054 470.216C200.577 470.304 200.135 470.528 199.783 470.862L199.787 470.855Z" fill="#171717"/>
</g>
</g>
</svg>
